<?xml version="1.0" encoding="UTF-8" standalone="no"?>
<!-- Created with Inkscape (http://www.inkscape.org/) -->

<svg
   xmlns:dc="http://purl.org/dc/elements/1.1/"
   xmlns:cc="http://creativecommons.org/ns#"
   xmlns:rdf="http://www.w3.org/1999/02/22-rdf-syntax-ns#"
   xmlns:svg="http://www.w3.org/2000/svg"
   xmlns="http://www.w3.org/2000/svg"
   xmlns:sodipodi="http://sodipodi.sourceforge.net/DTD/sodipodi-0.dtd"
   xmlns:inkscape="http://www.inkscape.org/namespaces/inkscape"
   width="100%"
   viewBox="0 0 100 150"
   preserveAspectRatio="none"
   id="svg2"
   version="1.1"
   inkscape:version="0.48.4 r9939"
   sodipodi:docname="btn_arrow.svg">
  <defs
     id="defs4" />
  <sodipodi:namedview
     id="base"
     pagecolor="#ffffff"
     bordercolor="#666666"
     borderopacity="1.0"
     inkscape:pageopacity="0.0"
     inkscape:pageshadow="2"
     inkscape:zoom="3.6182654"
     inkscape:cx="31.909318"
     inkscape:cy="14.504549"
     inkscape:document-units="px"
     inkscape:current-layer="layer1"
     showgrid="false"
     inkscape:window-width="867"
     inkscape:window-height="918"
     inkscape:window-x="2748"
     inkscape:window-y="23"
     inkscape:window-maximized="0" />
  <metadata
     id="metadata7">
    <rdf:RDF>
      <cc:Work
         rdf:about="">
        <dc:format>image/svg+xml</dc:format>
        <dc:type
           rdf:resource="http://purl.org/dc/dcmitype/StillImage" />
        <dc:title></dc:title>
      </cc:Work>
    </rdf:RDF>
  </metadata>
  <g
     inkscape:label="Layer 1"
     inkscape:groupmode="layer"
     id="layer1"
     transform="translate(0,-1001.3622)">
    <path
       style="fill:#455560;fill-opacity:1;stroke:none"
       d="m 28.0625,0.57393248 c -1.328482,0.096208 -2.40625,1.05628122 -2.40625,2.71875002 l 0,3.3323175 -21.6875,0 c -1.9487981,0 -3.53125,1.58245 -3.53125,3.53125 l 0,30.96875 c 0,1.9488 1.5824519,3.53125 3.53125,3.53125 l 21.6875,0 0.06909,3.047593 c 0.06035,2.661716 3.475131,3.454567 5.308536,0.418665 L 43.079127,30.43087 c 0,0 1.704334,-2.078325 1.704334,-4.768904 l 0,-0.6875 c 0,-2.099602 -2.391309,-4.847189 -2.391309,-4.847189 L 31.940939,3.3933101 C 30.559991,0.95101998 29.095764,0.49910374 28.0625,0.57393248 z"
       transform="translate(0,1001.3622) rotate(180,22.5,25.5)"
       id="rect2985"
       inkscape:connector-curvature="0"
       sodipodi:nodetypes="sscsssscsccssccs" />
  </g>
</svg>
