<?xml version="1.0" encoding="utf-8"?>
<!-- Generator: Adobe Illustrator 15.1.0, SVG Export Plug-In . SVG Version: 6.00 Build 0)  -->
<!DOCTYPE svg PUBLIC "-//W3C//DTD SVG 1.1//EN" "http://www.w3.org/Graphics/SVG/1.1/DTD/svg11.dtd">
<svg version="1.1"
	 id="svg2" sodipodi:docname="btn_arrow.svg" inkscape:version="0.48.4 r9939" xmlns:dc="http://purl.org/dc/elements/1.1/" xmlns:cc="http://creativecommons.org/ns#" xmlns:inkscape="http://www.inkscape.org/namespaces/inkscape" xmlns:sodipodi="http://sodipodi.sourceforge.net/DTD/sodipodi-0.dtd" xmlns:rdf="http://www.w3.org/1999/02/22-rdf-syntax-ns#" xmlns:svg="http://www.w3.org/2000/svg"
	 xmlns="http://www.w3.org/2000/svg" xmlns:xlink="http://www.w3.org/1999/xlink" x="0px" y="0px" width="50px" height="45px"
	 viewBox="729.75 554.75 50 45" enable-background="new 729.75 554.75 50 45" xml:space="preserve">
<sodipodi:namedview  id="base" inkscape:pageshadow="2" inkscape:window-width="867" inkscape:window-height="918" inkscape:pageopacity="0.0" inkscape:window-x="2748" inkscape:document-units="px" inkscape:current-layer="layer1" inkscape:window-y="23" inkscape:window-maximized="0" bordercolor="#666666" showgrid="false" borderopacity="1.0" inkscape:zoom="3.6182654" pagecolor="#ffffff" inkscape:cx="31.909318" inkscape:cy="14.504549">
	</sodipodi:namedview>
<g>
	<path id="rect2985" sodipodi:nodetypes="sscsssscsccssccs" inkscape:connector-curvature="0" fill="#007095" d="M769.474,554.82
		c-0.801,0.17-1.488,1.007-1.488,2.519v3.021h-13.385c-1.26,0-2.176,1.51-2.176,3.188v28.027c0,1.846,1.031,3.188,2.176,3.188
		h13.385v2.686c0,2.35,2.174,3.189,3.317,0.336l7.438-16.111c0,0,1.029-1.846,1.029-4.363v-0.672c0-1.847-1.487-4.363-1.487-4.363
		l-6.407-15.104C771.076,555.156,770.16,554.654,769.474,554.82z"/>
	<path id="rect2985_1_" sodipodi:nodetypes="sscsssscsccssccs" inkscape:connector-curvature="0" fill="#007095" d="
		M737.645,557.196l-6.407,15.104c0,0-1.488,2.517-1.488,4.363v0.671c0,2.518,1.029,4.363,1.029,4.363l7.438,16.111
		c1.144,2.685,3.203,2.013,3.317-0.335v-2.688h13.388c1.258,0,2.173-1.51,2.173-3.188v-28.025c0-1.846-1.03-3.189-2.173-3.189
		h-13.388v-3.021c0-1.511-0.686-2.35-1.486-2.518C739.36,554.509,738.446,555.014,737.645,557.196z"/>
</g>
</svg>
