<?xml version="1.0" encoding="utf-8"?>
<!-- Generator: Adobe Illustrator 15.1.0, SVG Export Plug-In . SVG Version: 6.00 Build 0)  -->
<!DOCTYPE svg PUBLIC "-//W3C//DTD SVG 1.1//EN" "http://www.w3.org/Graphics/SVG/1.1/DTD/svg11.dtd">
<svg version="1.1"
	 id="svg2" inkscape:version="0.48.4 r9939" sodipodi:docname="btn_arrow2.svg" xmlns:dc="http://purl.org/dc/elements/1.1/" xmlns:cc="http://creativecommons.org/ns#" xmlns:rdf="http://www.w3.org/1999/02/22-rdf-syntax-ns#" xmlns:svg="http://www.w3.org/2000/svg" xmlns:sodipodi="http://sodipodi.sourceforge.net/DTD/sodipodi-0.dtd" xmlns:inkscape="http://www.inkscape.org/namespaces/inkscape"
	 xmlns="http://www.w3.org/2000/svg" xmlns:xlink="http://www.w3.org/1999/xlink" x="0px" y="0px" width="70px" height="45px"
	 viewBox="0 0 70 45" enable-background="new 0 0 70 45" xml:space="preserve">
<sodipodi:namedview  id="base" inkscape:pageopacity="0.0" inkscape:pageshadow="2" inkscape:document-units="px" inkscape:current-layer="layer1" inkscape:window-width="867" inkscape:window-height="918" inkscape:window-x="581" inkscape:window-y="0" inkscape:window-maximized="0" pagecolor="#ffffff" bordercolor="#666666" borderopacity="1.0" inkscape:zoom="3.6182654" inkscape:cx="38.859339" inkscape:cy="14.504549" showgrid="false">
	</sodipodi:namedview>
<g>
	<g id="layer1" transform="translate(0,-1007.3622)" inkscape:groupmode="layer" inkscape:label="Layer 1">
		<path id="rect2985" sodipodi:nodetypes="cscsssscsccssccsc" inkscape:connector-curvature="0" fill="#007095" d="M62.909,1039.421
			c-0.112-0.99-1.22-1.796-3.136-1.796h-3.269v-16.182c0-1.454-1.825-2.634-4.073-2.634H16.715c-2.248,0-4.073,1.181-4.073,2.634
			v16.182l-3.515,0.052c-3.07,0.045-3.984,2.592-0.483,3.961l20.405,8.985c0,0,2.397,1.272,5.5,1.272h0.793
			c2.422,0,5.592-1.785,5.592-1.785l19.217-8.162C62.968,1040.918,62.909,1038.647,62.909,1039.421L62.909,1039.421z"/>
	</g>
	<g id="layer1_1_" transform="translate(0,-1007.3622)" inkscape:groupmode="layer" inkscape:label="Layer 1">
		<path id="rect2985_1_" sodipodi:nodetypes="cscsssscsccssccsc" inkscape:connector-curvature="0" fill="#007095" d="
			M6.485,1020.109c0.112,0.991,1.219,1.795,3.136,1.795h3.267v16.181c0,1.455,1.825,2.635,4.073,2.635H52.68
			c2.248,0,4.072-1.18,4.072-2.635v-16.181l3.516-0.051c3.069-0.045,3.983-2.593,0.482-3.961l-20.404-8.987
			c0,0-2.397-1.271-5.5-1.271h-0.793c-2.422,0-5.59,1.784-5.59,1.784l-19.218,8.163C6.426,1018.611,6.485,1020.882,6.485,1020.109
			L6.485,1020.109z"/>
	</g>
</g>
</svg>
