<?xml version="1.0" encoding="utf-8"?>
<!-- Generator: Adobe Illustrator 18.0.0, SVG Export Plug-In . SVG Version: 6.00 Build 0)  -->
<!DOCTYPE svg PUBLIC "-//W3C//DTD SVG 1.1//EN" "http://www.w3.org/Graphics/SVG/1.1/DTD/svg11.dtd">
<svg version="1.1" id="Calque_1" xmlns="http://www.w3.org/2000/svg" xmlns:xlink="http://www.w3.org/1999/xlink" x="0px" y="0px"
	 viewBox="-1741.5 -256.3 381.3 381.8" enable-background="new -1741.5 -256.3 381.3 381.8" xml:space="preserve">
<g>
	<path fill="#3AAA35" d="M-1380.7,73c0,23.4-19,41.6-41.6,41.6h-245c-23.4,0-41.6-19-41.6-41.6v-245c0-23.4,19-41.6,41.6-41.6h245
		c23.4,0,41.6,19,41.6,41.6V73z"/>
	<path fill="#26333A" d="M-1422.2,103.3h-245c-16.4,0-30.3-13-30.3-30.3v-245c0-16.4,13-30.3,30.3-30.3h245
		c16.4,0,30.3,13,30.3,30.3V73C-1392.8,89.5-1405.8,103.3-1422.2,103.3L-1422.2,103.3z"/>
	<g>
		
			<circle fill="#26333A" stroke="#3AAA35" stroke-width="1.0736" stroke-linecap="round" stroke-linejoin="round" stroke-miterlimit="10" cx="-1680.2" cy="-200.5" r="45.9"/>
		
			<path fill="none" stroke="#FFFFFF" stroke-width="1.0736" stroke-linecap="round" stroke-linejoin="round" stroke-miterlimit="10" d="
			M-1660.3-224.8c-17.3,25.1-23.4,54.5-23.4,54.5c-1.7-4.3-5.2-12.1-13.9-19"/>
	</g>
	<g>
		
			<image overflow="visible" opacity="0.75" enable-background="new    " width="31" height="34" xlink:href="F05B6356.png"  transform="matrix(8.3774 0 0 8.402 -1674.4845 -187.8567)">
		</image>
		<g>
			<g>
				
					<radialGradient id="SVGID_1_" cx="-13301.0107" cy="2663.2588" r="3622.6301" gradientTransform="matrix(0.1065 0 0 -0.1065 -4.534348e-005 95.8838)" gradientUnits="userSpaceOnUse">
					<stop  offset="3.181820e-002" style="stop-color:#AAB0B2"/>
					<stop  offset="0.1273" style="stop-color:#B3B8BA"/>
					<stop  offset="0.2831" style="stop-color:#CCCFD0"/>
					<stop  offset="0.4786" style="stop-color:#F3F4F4"/>
					<stop  offset="0.5318" style="stop-color:#FFFFFF"/>
					<stop  offset="0.6215" style="stop-color:#FAFAFA"/>
					<stop  offset="0.7336" style="stop-color:#EAECEC"/>
					<stop  offset="0.8576" style="stop-color:#D1D4D5"/>
					<stop  offset="0.9893" style="stop-color:#AEB3B5"/>
					<stop  offset="1" style="stop-color:#AAB0B2"/>
				</radialGradient>
				<path fill="url(#SVGID_1_)" d="M-1578.9-43c-9.5-10.4-14.7-24.2-14.7-39s5.2-28.6,13.9-39l-10.4-11.3
					c-12.1,13-18.2,31.2-18.2,50.2c0,19,6.9,37.2,19,50.2L-1578.9-43z"/>
				
					<radialGradient id="SVGID_2_" cx="-13300.7432" cy="2663.2588" r="3623.2009" gradientTransform="matrix(0.1065 0 0 -0.1065 -4.534348e-005 95.8838)" gradientUnits="userSpaceOnUse">
					<stop  offset="3.181820e-002" style="stop-color:#AAB0B2"/>
					<stop  offset="0.1273" style="stop-color:#B3B8BA"/>
					<stop  offset="0.2831" style="stop-color:#CCCFD0"/>
					<stop  offset="0.4786" style="stop-color:#F3F4F4"/>
					<stop  offset="0.5318" style="stop-color:#FFFFFF"/>
					<stop  offset="0.6215" style="stop-color:#FAFAFA"/>
					<stop  offset="0.7336" style="stop-color:#EAECEC"/>
					<stop  offset="0.8576" style="stop-color:#D1D4D5"/>
					<stop  offset="0.9893" style="stop-color:#AEB3B5"/>
					<stop  offset="1" style="stop-color:#AAB0B2"/>
				</radialGradient>
				<path fill="url(#SVGID_2_)" d="M-1612.7-157.2c-18.2,19.9-27.7,46.7-27.7,75.3s10.4,55.4,28.6,76.2l10.4-11.3
					c-15.6-17.3-24.2-39.8-24.2-64.9c0-24.2,8.7-46.7,23.4-64.1L-1612.7-157.2z"/>
				
					<radialGradient id="SVGID_3_" cx="-13300.7432" cy="2663.2588" r="3623.2009" gradientTransform="matrix(0.1065 0 0 -0.1065 -4.534348e-005 95.8838)" gradientUnits="userSpaceOnUse">
					<stop  offset="3.181820e-002" style="stop-color:#AAB0B2"/>
					<stop  offset="0.1273" style="stop-color:#B3B8BA"/>
					<stop  offset="0.2831" style="stop-color:#CCCFD0"/>
					<stop  offset="0.4786" style="stop-color:#F3F4F4"/>
					<stop  offset="0.5318" style="stop-color:#FFFFFF"/>
					<stop  offset="0.6215" style="stop-color:#FAFAFA"/>
					<stop  offset="0.7336" style="stop-color:#EAECEC"/>
					<stop  offset="0.8576" style="stop-color:#D1D4D5"/>
					<stop  offset="0.9893" style="stop-color:#AEB3B5"/>
					<stop  offset="1" style="stop-color:#AAB0B2"/>
				</radialGradient>
				<path fill="url(#SVGID_3_)" d="M-1478.5-4.9c19-20.8,29.4-47.6,29.4-77s-10.4-56.3-28.6-77l-9.5,11.3
					c15.6,17.3,25.1,40.7,25.1,65.8s-8.7,48.5-25.1,65.8L-1478.5-4.9z"/>
				
					<radialGradient id="SVGID_4_" cx="-13300.7432" cy="2663.2588" r="3623.2009" gradientTransform="matrix(0.1065 0 0 -0.1065 -4.534348e-005 95.8838)" gradientUnits="userSpaceOnUse">
					<stop  offset="3.181820e-002" style="stop-color:#AAB0B2"/>
					<stop  offset="0.1273" style="stop-color:#B3B8BA"/>
					<stop  offset="0.2831" style="stop-color:#CCCFD0"/>
					<stop  offset="0.4786" style="stop-color:#F3F4F4"/>
					<stop  offset="0.5318" style="stop-color:#FFFFFF"/>
					<stop  offset="0.6215" style="stop-color:#FAFAFA"/>
					<stop  offset="0.7336" style="stop-color:#EAECEC"/>
					<stop  offset="0.8576" style="stop-color:#D1D4D5"/>
					<stop  offset="0.9893" style="stop-color:#AEB3B5"/>
					<stop  offset="1" style="stop-color:#AAB0B2"/>
				</radialGradient>
				<path fill="url(#SVGID_4_)" d="M-1510.5-120.9c9.5,10.4,14.7,24.2,14.7,39c0,14.7-5.2,28.6-14.7,39l9.5,11.3
					c12.1-13.9,19-31.2,19-51.1c0-19-6.9-37.2-19-50.2L-1510.5-120.9z"/>
				
					<radialGradient id="SVGID_5_" cx="-13300.7432" cy="2663.2588" r="3623.2009" gradientTransform="matrix(0.1065 0 0 -0.1065 -4.534348e-005 95.8838)" gradientUnits="userSpaceOnUse">
					<stop  offset="3.181820e-002" style="stop-color:#AAB0B2"/>
					<stop  offset="0.1273" style="stop-color:#B3B8BA"/>
					<stop  offset="0.2831" style="stop-color:#CCCFD0"/>
					<stop  offset="0.4786" style="stop-color:#F3F4F4"/>
					<stop  offset="0.5318" style="stop-color:#FFFFFF"/>
					<stop  offset="0.6215" style="stop-color:#FAFAFA"/>
					<stop  offset="0.7336" style="stop-color:#EAECEC"/>
					<stop  offset="0.8576" style="stop-color:#D1D4D5"/>
					<stop  offset="0.9893" style="stop-color:#AEB3B5"/>
					<stop  offset="1" style="stop-color:#AAB0B2"/>
				</radialGradient>
				<path fill="url(#SVGID_5_)" d="M-1514-81.1c0-19-13.9-34.6-31.2-34.6c-17.3,0-31.2,15.6-31.2,34.6c0,13,6.9,25.1,16.4,30.3V60.1
					h28.6V-50.8C-1520.9-56.8-1514-68.1-1514-81.1z"/>
			</g>
		</g>
	</g>
</g>
</svg>
