<?xml version="1.0" encoding="utf-8"?>
<!-- Generator: Adobe Illustrator 18.0.0, SVG Export Plug-In . SVG Version: 6.00 Build 0)  -->
<!DOCTYPE svg PUBLIC "-//W3C//DTD SVG 1.1//EN" "http://www.w3.org/Graphics/SVG/1.1/DTD/svg11.dtd">
<svg version="1.1" id="Calque_1" xmlns="http://www.w3.org/2000/svg" xmlns:xlink="http://www.w3.org/1999/xlink" x="0px" y="0px"
	 viewBox="-2203.7 -256.3 381.3 381.8" enable-background="new -2203.7 -256.3 381.3 381.8" xml:space="preserve">
<g>
	<path fill="#E30613" d="M-1847.1,75.3c0,23.4-19,41.5-41.5,41.5h-244.9c-23.4,0-41.5-19-41.5-41.5v-244c0-23.4,19-41.5,41.5-41.5
		h244.9c23.4,0,41.5,19,41.5,41.5V75.3z"/>
	<path fill="#26333A" d="M-1889.5,105.6h-244.9c-16.4,0-30.3-13-30.3-30.3v-244c0-16.4,13-30.3,30.3-30.3h244.9
		c16.4,0,30.3,13,30.3,30.3V76.2C-1859.2,91.8-1873,105.6-1889.5,105.6L-1889.5,105.6z"/>
	<g>
		
			<image overflow="visible" opacity="0.76" enable-background="new    " width="31" height="34" xlink:href="AA69B7A1.png"  transform="matrix(8.3741 0 0 8.3988 -2139.0305 -189.7918)">
		</image>
		<g>
			<g>
				
					<radialGradient id="SVGID_1_" cx="-17694.8418" cy="2637.7817" r="3622.1113" gradientTransform="matrix(0.1065 0 0 -0.1065 -1.440542e-005 95.8838)" gradientUnits="userSpaceOnUse">
					<stop  offset="3.181820e-002" style="stop-color:#AAB0B2"/>
					<stop  offset="0.1273" style="stop-color:#B3B8BA"/>
					<stop  offset="0.2831" style="stop-color:#CCCFD0"/>
					<stop  offset="0.4786" style="stop-color:#F3F4F4"/>
					<stop  offset="0.5318" style="stop-color:#FFFFFF"/>
					<stop  offset="0.6215" style="stop-color:#FAFAFA"/>
					<stop  offset="0.7336" style="stop-color:#EAECEC"/>
					<stop  offset="0.8576" style="stop-color:#D1D4D5"/>
					<stop  offset="0.9893" style="stop-color:#AEB3B5"/>
					<stop  offset="1" style="stop-color:#AAB0B2"/>
				</radialGradient>
				<path fill="url(#SVGID_1_)" d="M-2047-39.8c-9.5-10.4-14.7-24.2-14.7-38.9s5.2-28.6,13.8-38.9l-10.4-11.2
					c-12.1,13-18.2,31.2-18.2,50.2s6.9,37.2,19,50.2L-2047-39.8z"/>
				
					<radialGradient id="SVGID_2_" cx="-17694.9805" cy="2637.7817" r="3621.8159" gradientTransform="matrix(0.1065 0 0 -0.1065 -1.440542e-005 95.8838)" gradientUnits="userSpaceOnUse">
					<stop  offset="3.181820e-002" style="stop-color:#AAB0B2"/>
					<stop  offset="0.1273" style="stop-color:#B3B8BA"/>
					<stop  offset="0.2831" style="stop-color:#CCCFD0"/>
					<stop  offset="0.4786" style="stop-color:#F3F4F4"/>
					<stop  offset="0.5318" style="stop-color:#FFFFFF"/>
					<stop  offset="0.6215" style="stop-color:#FAFAFA"/>
					<stop  offset="0.7336" style="stop-color:#EAECEC"/>
					<stop  offset="0.8576" style="stop-color:#D1D4D5"/>
					<stop  offset="0.9893" style="stop-color:#AEB3B5"/>
					<stop  offset="1" style="stop-color:#AAB0B2"/>
				</radialGradient>
				<path fill="url(#SVGID_2_)" d="M-2080.7-154.8c-18.2,19.9-27.7,46.7-27.7,75.3s10.4,55.4,28.6,76.1l10.4-11.2
					c-15.6-17.3-24.2-39.8-24.2-64.9c0-24.2,8.7-46.7,23.4-64L-2080.7-154.8z"/>
				
					<radialGradient id="SVGID_3_" cx="-17694.9805" cy="2637.7817" r="3621.8159" gradientTransform="matrix(0.1065 0 0 -0.1065 -1.440542e-005 95.8838)" gradientUnits="userSpaceOnUse">
					<stop  offset="3.181820e-002" style="stop-color:#AAB0B2"/>
					<stop  offset="0.1273" style="stop-color:#B3B8BA"/>
					<stop  offset="0.2831" style="stop-color:#CCCFD0"/>
					<stop  offset="0.4786" style="stop-color:#F3F4F4"/>
					<stop  offset="0.5318" style="stop-color:#FFFFFF"/>
					<stop  offset="0.6215" style="stop-color:#FAFAFA"/>
					<stop  offset="0.7336" style="stop-color:#EAECEC"/>
					<stop  offset="0.8576" style="stop-color:#D1D4D5"/>
					<stop  offset="0.9893" style="stop-color:#AEB3B5"/>
					<stop  offset="1" style="stop-color:#AAB0B2"/>
				</radialGradient>
				<path fill="url(#SVGID_3_)" d="M-1946.6-1.7c19-20.8,29.4-47.6,29.4-77s-10.4-56.2-28.6-77l-9.5,11.2
					c15.6,17.3,25.1,40.7,25.1,65.8s-8.7,48.5-25.1,65.8L-1946.6-1.7z"/>
				
					<radialGradient id="SVGID_4_" cx="-17694.9805" cy="2637.7817" r="3621.8159" gradientTransform="matrix(0.1065 0 0 -0.1065 -1.440542e-005 95.8838)" gradientUnits="userSpaceOnUse">
					<stop  offset="3.181820e-002" style="stop-color:#AAB0B2"/>
					<stop  offset="0.1273" style="stop-color:#B3B8BA"/>
					<stop  offset="0.2831" style="stop-color:#CCCFD0"/>
					<stop  offset="0.4786" style="stop-color:#F3F4F4"/>
					<stop  offset="0.5318" style="stop-color:#FFFFFF"/>
					<stop  offset="0.6215" style="stop-color:#FAFAFA"/>
					<stop  offset="0.7336" style="stop-color:#EAECEC"/>
					<stop  offset="0.8576" style="stop-color:#D1D4D5"/>
					<stop  offset="0.9893" style="stop-color:#AEB3B5"/>
					<stop  offset="1" style="stop-color:#AAB0B2"/>
				</radialGradient>
				<path fill="url(#SVGID_4_)" d="M-1978.6-117.6c9.5,10.4,14.7,24.2,14.7,38.9s-5.2,28.6-14.7,38.9l9.5,11.2
					c12.1-13.8,19-31.2,19-51.1c0-19-6.9-37.2-19-50.2L-1978.6-117.6z"/>
				
					<radialGradient id="SVGID_5_" cx="-17694.9805" cy="2637.7817" r="3621.8159" gradientTransform="matrix(0.1065 0 0 -0.1065 -1.440542e-005 95.8838)" gradientUnits="userSpaceOnUse">
					<stop  offset="3.181820e-002" style="stop-color:#AAB0B2"/>
					<stop  offset="0.1273" style="stop-color:#B3B8BA"/>
					<stop  offset="0.2831" style="stop-color:#CCCFD0"/>
					<stop  offset="0.4786" style="stop-color:#F3F4F4"/>
					<stop  offset="0.5318" style="stop-color:#FFFFFF"/>
					<stop  offset="0.6215" style="stop-color:#FAFAFA"/>
					<stop  offset="0.7336" style="stop-color:#EAECEC"/>
					<stop  offset="0.8576" style="stop-color:#D1D4D5"/>
					<stop  offset="0.9893" style="stop-color:#AEB3B5"/>
					<stop  offset="1" style="stop-color:#AAB0B2"/>
				</radialGradient>
				<path fill="url(#SVGID_5_)" d="M-1982.1-78.7c0-19-13.8-34.6-31.2-34.6c-17.3,0-31.2,15.6-31.2,34.6c0,13,6.9,25.1,16.4,30.3
					V62.3h28.6V-48.4C-1989-54.5-1982.1-65.7-1982.1-78.7z"/>
			</g>
		</g>
	</g>
	<g>
		<g>
			
				<circle fill="#26333A" stroke="#FF0000" stroke-width="1.0736" stroke-linecap="round" stroke-linejoin="round" stroke-miterlimit="10" cx="-2147.4" cy="-198.1" r="45.9"/>
		</g>
		<g>
			<path fill="#FFFFFF" d="M-2126.6-172.2c-0.9,0-2.6-0.9-3.5-1.7l-41.5-41.5c-1.7-1.7-1.7-4.3,0-6.9c1.7-1.7,5.2-1.7,6.9,0
				l41.5,41.5c1.7,1.7,1.7,4.3,0,6.9C-2124-172.2-2125.7-172.2-2126.6-172.2z"/>
			<path fill="#FFFFFF" d="M-2167.3-172.2c-0.9,0-2.6-0.9-3.5-1.7c-1.7-1.7-1.7-4.3,0-6.9l41.5-41.5c1.7-1.7,5.2-1.7,6.9,0
				c1.7,1.7,1.7,4.3,0,6.9l-41.5,41.5C-2165.5-172.2-2166.4-172.2-2167.3-172.2z"/>
		</g>
	</g>
</g>
</svg>
