<?xml version="1.0" encoding="utf-8"?>
<!-- Generator: Adobe Illustrator 14.0.0, SVG Export Plug-In . SVG Version: 6.00 Build 43363)  -->
<!DOCTYPE svg PUBLIC "-//W3C//DTD SVG 1.1//EN" "http://www.w3.org/Graphics/SVG/1.1/DTD/svg11.dtd">
<svg version="1.1" id="Layer_1" xmlns="http://www.w3.org/2000/svg" xmlns:xlink="http://www.w3.org/1999/xlink" x="0px" y="0px"
	 width="68.92px" height="64.32px" viewBox="0 0 68.92 64.32" enable-background="new 0 0 68.92 64.32" xml:space="preserve">
<g>
	<g>
		<path fill="#474747" d="M21.403,0.476H0.841v19.473h20.562V0.476z M17.654,16.402H4.591V4.024h13.063V16.402z M14.896,6.639H7.347
			v7.148h7.549V6.639z M49.197,0.476v19.473H69.76V0.476H49.197z M66.01,16.402H52.943V4.024H66.01V16.402z M63.254,6.639h-7.549
			v7.148h7.549V6.639z M0.841,64.796h20.562v-19.47H0.841V64.796z M4.591,48.871h13.063v12.377H4.591V48.871z M7.347,58.636h7.549
			v-7.151H7.347V58.636z M58.863,26.619h4.613v-4.328h-4.613V26.619z M7.484,28.647v-4.334H2.983v4.334H7.484z M41.982,13.848h-4.16
			v9.785h4.16V13.848z M24.015,54.147h3.818v-8.981h-3.818V54.147z M28.549,64.562h3.818v-8.979h-3.818V64.562z M32.142,12.665
			h4.165V7.998h-4.165V12.665z M33.186,1.26h-4.423v4.146h4.423V1.26z M44.629,7.479h-4.422v4.146h4.422V7.479z M54.994,40.08h0.141
			v-4.33h-5.969v-4.322h-4.885v4.322h-2.299v-6.971h-4.16v3.479h-4.57v-3.74h4.185v-4.87h-4.349v4.734h-5.185V24.39H17.659v4.329
			h5.35v3.539H7.115v3.49H1.399v4.33H43.24v3.691h3.406v-3.691h4.189v8.561h-0.051v4.328h7.945v-4.328h-3.74L54.994,40.08
			L54.994,40.08z M48.801,53.742h-4.16v4.896h4.16V53.742z M48.646,63.599h4.16v-4.894h-4.16V63.599z M49.311,21.889v9.788h4.16
			v-9.788H49.311z M28.263,14.89h-4.159v9.262h4.159V14.89z M38.973,53.498h4.158v-9.786h-4.158V53.498z M34.379,45.084H30.7v4.281
			h3.68v0.688h4.158v-9.787h-4.158V45.084z M58.424,48.296h4.16v-4.896h-4.16V48.296z"/>
	</g>
</g>
</svg>
