<?xml version="1.0" encoding="utf-8"?>
<!-- Generator: Adobe Illustrator 14.0.0, SVG Export Plug-In . SVG Version: 6.00 Build 43363)  -->
<!DOCTYPE svg PUBLIC "-//W3C//DTD SVG 1.1//EN" "http://www.w3.org/Graphics/SVG/1.1/DTD/svg11.dtd">
<svg version="1.1" id="Layer_1" xmlns="http://www.w3.org/2000/svg" xmlns:xlink="http://www.w3.org/1999/xlink" x="0px" y="0px"
	 width="35.15px" height="35.15px" viewBox="0 0 35.15 35.15" enable-background="new 0 0 35.15 35.15" xml:space="preserve">
<g>
	<g>
		<path fill="#474747" d="M20.706,12.657c0-1.793-1.409-3.247-3.151-3.247c-1.735,0-3.145,1.454-3.145,3.247
			c0,1.366,0.818,2.53,1.974,3.005h-0.012L14.885,35.15h5.365l-1.509-19.488h-0.014C19.887,15.187,20.706,14.024,20.706,12.657z
			 M10.34,5.584c-1.696,1.842-2.738,4.333-2.738,7.073c-0.003,2.664,0.976,5.085,2.584,6.908l2.492-2.574h0.003
			c-0.976-1.167-1.562-2.673-1.562-4.334c0-1.775,0.675-3.386,1.779-4.58L10.34,5.584z M22.224,8.078H22.22
			C23.32,9.271,24,10.882,24,12.654c0,1.665-0.586,3.171-1.563,4.337l2.496,2.574c1.607-1.823,2.586-4.245,2.586-6.912
			c0-2.737-1.045-5.231-2.741-7.07L22.224,8.078z M7.691,2.612L4.869,0.097c-3.036,3.26-4.9,7.686-4.9,12.564
			c0,4.793,1.802,9.154,4.749,12.398l2.819-2.515c-2.378-2.567-3.842-6.047-3.842-9.877C3.695,8.743,5.217,5.191,7.691,2.612z
			 M30.154,0l-2.631,2.712c2.409,2.579,3.897,6.078,3.897,9.945c0,3.699-1.357,7.062-3.588,9.604l2.635,2.72
			c2.898-3.236,4.683-7.562,4.683-12.324C35.143,7.733,33.242,3.268,30.154,0z"/>
	</g>
</g>
</svg>
