<?xml version="1.0" encoding="utf-8"?>
<!-- Generator: Adobe Illustrator 14.0.0, SVG Export Plug-In . SVG Version: 6.00 Build 43363)  -->
<!DOCTYPE svg PUBLIC "-//W3C//DTD SVG 1.1//EN" "http://www.w3.org/Graphics/SVG/1.1/DTD/svg11.dtd">
<svg version="1.1" id="Layer_1" xmlns="http://www.w3.org/2000/svg" xmlns:xlink="http://www.w3.org/1999/xlink" x="0px" y="0px"
	 width="67.55px" height="67.46px" viewBox="0 0 67.55 67.46" enable-background="new 0 0 67.55 67.46" xml:space="preserve">
<g>
	<g>
		<path fill="#474747" d="M67.408,16.762c-0.127-0.426-0.277-0.718-1.242-1.211L36.936,0.6c-0.867-0.443-2.014-0.665-3.157-0.665
			c-1.15,0-2.296,0.222-3.164,0.665L1.387,15.551c-0.971,0.493-1.161,0.751-1.279,1.104c-0.13,0.391-0.106,0.956-0.106,1.472v28.63
			c0,2.297,1.686,5.02,3.743,6.061l28.064,14.166c0.549,0.285,1.549,0.539,1.97,0.539c0.391,0,1.418-0.254,1.963-0.539
			l28.068-14.166c2.059-1.037,3.739-3.766,3.739-6.063V18.123C67.544,17.611,67.527,17.152,67.408,16.762z M61.895,49.094
			L36.189,62.068v-7.436h-4.842v7.436L5.64,49.094c-0.649-0.33-1.447-1.619-1.447-2.344v-26l6.369,3.218l2.282-3.529l-6.478-3.27
			L32.232,3.742c0.245-0.125,0.794-0.271,1.53-0.271c0.736,0,1.287,0.146,1.536,0.271l25.86,13.43l-6.313,3.184l2.288,3.53
			l6.207-3.128l0.003,25.996C63.344,47.479,62.546,48.766,61.895,49.094z M43.125,31.78l-14.514-3.422
			c-2.015-0.563-3.063-1.447-3.879-3.097c-6.029,0.432-7.465,1.499-8.515,2.031c0.297,4.044,3.961,6.896,9.458,8.188l11.126,2.66
			c2.876,0.68,4.318,0.697,4.869,3.15c5.943-0.396,8.447-1.445,9.641-2.021v-0.016c0.008-0.012,0.033-0.021,0.051-0.025V39.16
			c0-0.465-0.06-0.898-0.153-1.32C50.675,34.942,47.977,32.948,43.125,31.78z M50.031,25.946v-7.724
			c-4.687-0.965-6.912-1.887-16.116-1.887c-8.393,0-13.914,1.717-16.335,4.981c-0.51,0.651-0.884,1.39-1.1,2.227
			c-0.197,0.682-0.297,1.402-0.297,2.183v0.103c2.164-0.854,7.386-2.274,17.571-2.274C40.953,23.552,44.338,24.427,50.031,25.946z
			 M51.292,40.744C49,41.682,44.867,42.93,32.925,42.93c-5.524,0-10.025-0.871-15.753-2.105v7.771
			c4.598,0.863,7.437,1.479,15.753,1.479c7.774,0,14.222-1.725,16.955-5.059c0.711-0.813,1.201-1.766,1.378-2.9
			c-0.009,0.012-0.025,0.012-0.037,0.012C51.292,41.684,51.318,41.227,51.292,40.744z"/>
	</g>
</g>
</svg>
