<?xml version="1.0" encoding="utf-8"?>
<!-- Generator: Adobe Illustrator 14.0.0, SVG Export Plug-In . SVG Version: 6.00 Build 43363)  -->
<!DOCTYPE svg PUBLIC "-//W3C//DTD SVG 1.1//EN" "http://www.w3.org/Graphics/SVG/1.1/DTD/svg11.dtd">
<svg version="1.1" id="Layer_1" xmlns="http://www.w3.org/2000/svg" xmlns:xlink="http://www.w3.org/1999/xlink" x="0px" y="0px"
	 width="42.24px" height="37.13px" viewBox="0 0 42.24 37.13" enable-background="new 0 0 42.24 37.13" xml:space="preserve">
<g>
	<g>
		<path fill="#474747" d="M31.469,18.608l9.906-2.543l0.9-7.946l-2.033-2.023l-1.479,6.036l-5.563,0.797l-3.125-3.117l0.99-5.278
			l6.051-1.551L35.084,0.96l-8.098,0.781l-2.71,9.708l1.224,1.217l-4.41,4.283L12.981,8.61l1.693-1.57l2.027-0.252l1.236-1.14
			l-5.313-5.533l-1.236,1.148l-0.369,1.97L5.217,8.621l-3.578,0.87l-1.675,1.553l6.14,6.395l1.678-1.553l1.092-3.465l1.554-1.442
			l8.162,8.395L6.07,31.524l0.013,0.014c-1.123,1.342-1.057,3.316,0.208,4.573c1.35,1.345,3.552,1.36,4.919,0.033
			c0.07-0.067,5.788-5.617,10.962-10.637l9.99,10.4l0.013-0.012c1.334,1.131,3.351,1.105,4.659-0.103
			c1.396-1.3,1.459-3.457,0.141-4.836c-0.109-0.108-7.634-7.944-9.854-10.256c1.943-1.883,3.267-3.167,3.267-3.167L31.469,18.608z"
			/>
	</g>
</g>
</svg>
