<svg id="icon-prev" xmlns="http://www.w3.org/2000/svg" viewBox="0 0 50 50"><path id="prev" fill="#ffffff" d="M33.996,17.61V32.39c0,0.352-0.201,0.442-0.452,0.191l-7.129-7.129c-0.06-0.06-0.1-0.12-0.13-0.19 v7.128c0,0.352-0.201,0.442-0.452,0.191l-7.129-7.129c-0.06-0.06-0.1-0.12-0.13-0.19v6.807c0,0.352-0.291,0.643-0.643,0.643h-1.285 c-0.352,0-0.643-0.291-0.643-0.643V17.932c0-0.352,0.291-0.643,0.643-0.643h1.285c0.352,0,0.643,0.291,0.643,0.643v6.807 c0.03-0.07,0.07-0.13,0.13-0.19l7.129-7.129c0.251-0.251,0.452-0.161,0.452,0.191v7.128c0.03-0.07,0.07-0.13,0.13-0.19l7.129-7.129 C33.795,17.168,33.996,17.259,33.996,17.61z"/></svg>
