<svg id="icon-next" xmlns="http://www.w3.org/2000/svg" viewBox="0 0 50 50"><path id="next" fill="#ffffff" d="M16.004,32.39V17.61c0-0.352,0.201-0.442,0.452-0.191l7.129,7.129c0.06,0.06,0.1,0.12,0.13,0.19 V17.61c0-0.352,0.201-0.442,0.452-0.191l7.129,7.129c0.06,0.06,0.1,0.12,0.13,0.19v-6.807c0-0.352,0.291-0.643,0.643-0.643h1.285 c0.352,0,0.643,0.291,0.643,0.643v14.137c0,0.352-0.291,0.643-0.643,0.643h-1.285c-0.352,0-0.643-0.291-0.643-0.643v-6.807 c-0.03,0.07-0.07,0.13-0.13,0.19l-7.129,7.129c-0.251,0.251-0.452,0.161-0.452-0.191v-7.128c-0.03,0.07-0.07,0.13-0.13,0.19 l-7.129,7.129C16.205,32.832,16.004,32.741,16.004,32.39z"/></svg>