<?xml version="1.0" encoding="utf-8"?>
<!-- Generator: Adobe Illustrator 15.1.0, SVG Export Plug-In . SVG Version: 6.00 Build 0)  -->
<!DOCTYPE svg PUBLIC "-//W3C//DTD SVG 1.1//EN" "http://www.w3.org/Graphics/SVG/1.1/DTD/svg11.dtd">
<svg version="1.1"
	 id="svg2" sodipodi:docname="dynaHouse.svg" inkscape:version="0.46" sodipodi:version="0.32" xmlns:svg="http://www.w3.org/2000/svg" xmlns:sodipodi="http://sodipodi.sourceforge.net/DTD/sodipodi-0.dtd" xmlns:inkscape="http://www.inkscape.org/namespaces/inkscape" inkscape:output_extension="org.inkscape.output.svg.inkscape" xmlns:dc="http://purl.org/dc/elements/1.1/" xmlns:cc="http://creativecommons.org/ns#" xmlns:rdf="http://www.w3.org/1999/02/22-rdf-syntax-ns#"
	 xmlns="http://www.w3.org/2000/svg" xmlns:xlink="http://www.w3.org/1999/xlink" x="0px" y="0px" width="20px" height="20px"
	 viewBox="424.669 399.907 20 20" enable-background="new 424.669 399.907 20 20" xml:space="preserve">
<defs>
	
	
		<inkscape:perspective  id="perspective10" inkscape:persp3d-origin="372.04724 : 350.78739 : 1" inkscape:vp_z="744.09448 : 526.18109 : 1" inkscape:vp_y="0 : 1000 : 0" inkscape:vp_x="0 : 526.18109 : 1" sodipodi:type="inkscape:persp3d">
		</inkscape:perspective>
</defs>
<sodipodi:namedview  id="base" inkscape:window-y="43" inkscape:window-x="660" inkscape:window-height="954" inkscape:window-width="1006" inkscape:current-layer="layer1" inkscape:document-units="px" inkscape:pageshadow="2" inkscape:pageopacity="0.0" showgrid="false" inkscape:cy="219.43852" inkscape:cx="231.94643" inkscape:zoom="1.4098083" objecttolerance="10" guidetolerance="10" gridtolerance="10000" borderopacity="1.0" bordercolor="#666666" pagecolor="#ffffff">
	</sodipodi:namedview>
<g>
	<path id="rect2391" sodipodi:nodetypes="cccccccccccccccccc" fill="#FFFFFF" d="M441.632,410.057L441.632,410.057z
		 M441.632,410.057l-6.948-6.581l-6.952,6.585v9.408c0,0.243,0.184,0.438,0.411,0.438h4.345v-4.125c0-0.243,0.182-0.439,0.409-0.439
		h3.569c0.228,0,0.409,0.196,0.409,0.439v4.125h4.347c0.229,0,0.41-0.195,0.41-0.438V410.057z M427.732,410.061L427.732,410.061z"/>
	<path id="path2399" fill="#FFFFFF" d="M434.644,399.874l-9.86,9.338l1.038,1.255l8.862-8.395l8.86,8.395l1.036-1.255l-9.858-9.338
		l-0.038,0.047L434.644,399.874z"/>
	<path id="rect2404" sodipodi:nodetypes="ccccc" fill="#FFFFFF" d="M427.732,401.219h2.499l-0.022,1.583l-2.477,2.394V401.219z"/>
</g>
</svg>
