<?xml version="1.0" encoding="utf-8"?>
<!-- Generator: Adobe Illustrator 16.0.0, SVG Export Plug-In . SVG Version: 6.00 Build 0)  -->
<!DOCTYPE svg PUBLIC "-//W3C//DTD SVG 1.1//EN" "http://www.w3.org/Graphics/SVG/1.1/DTD/svg11.dtd">
<svg version="1.1" id="Layer_1" xmlns="http://www.w3.org/2000/svg" xmlns:xlink="http://www.w3.org/1999/xlink" x="0px" y="0px"
	 width="123.468px" height="135.755px" viewBox="0 0 123.468 135.755" enable-background="new 0 0 123.468 135.755"
	 xml:space="preserve">
<path fill-rule="evenodd" clip-rule="evenodd" d="M18.052,98.879c0-9.325-0.106-18.652,0.063-27.975
	c0.052-2.85-0.79-3.838-3.639-3.622c-2.98,0.225-5.991,0.051-8.989,0.038c-1.188-0.006-2.369-0.1-3.011-1.325
	c-0.809-1.545,0.276-2.505,1.183-3.449c1.729-1.801,3.515-3.55,5.28-5.316C25.296,40.853,41.722,24.542,57.955,8.042
	c3.044-3.094,4.895-3.143,7.993,0.009c17.514,17.81,35.247,35.402,52.887,53.088c1.25,1.252,3.199,2.36,2.479,4.512
	c-0.802,2.395-3.081,1.47-4.767,1.497c-10.809,0.172-10.81,0.14-10.81,10.889c0,16.152-0.087,32.307,0.073,48.458
	c0.032,3.243-0.79,4.345-4.144,4.248c-7.987-0.231-15.99-0.247-23.976,0.007c-3.294,0.105-3.798-1.134-3.751-4.022
	c0.162-9.822-0.094-19.652,0.139-29.472c0.094-4.004-0.936-5.808-5.271-5.51c-4.807,0.329-9.662,0.249-14.479,0.017
	c-3.532-0.171-4.646,1.176-4.587,4.628c0.169,9.989-0.104,19.986,0.146,29.972c0.09,3.611-1.091,4.486-4.514,4.381
	c-7.819-0.238-15.655-0.217-23.476-0.005c-3.064,0.083-3.989-0.767-3.919-3.884C18.185,117.532,18.052,108.204,18.052,98.879z"/>
</svg>
