<?xml version="1.0" encoding="utf-8"?>
<!-- Generator: Adobe Illustrator 18.0.0, SVG Export Plug-In . SVG Version: 6.00 Build 0)  -->
<!DOCTYPE svg PUBLIC "-//W3C//DTD SVG 1.1//EN" "http://www.w3.org/Graphics/SVG/1.1/DTD/svg11.dtd">
<svg version="1.1" id="Layer_1" xmlns="http://www.w3.org/2000/svg" xmlns:xlink="http://www.w3.org/1999/xlink" x="0px" y="0px"
	 viewBox="0 0 24 24" enable-background="new 0 0 24 24" xml:space="preserve" width="28px" height="28px">
<path fill="#3C3C3C" d="M20,24H4c-1.1,0-2-0.9-2-2V12c0-1.1,0.9-2,2-2h1V7c0-3.9,3.1-7,7-7s7,3.1,7,7v3h1c1.1,0,2,0.9,2,2v10
	C22,23.1,21.1,24,20,24z M16,7c0-2.2-1.8-4-4-4S8,4.8,8,7v3h8V7z"/>
</svg>
