<?xml version="1.0" encoding="utf-8"?>
<!-- Generator: Adobe Illustrator 18.0.0, SVG Export Plug-In . SVG Version: 6.00 Build 0)  -->
<!DOCTYPE svg PUBLIC "-//W3C//DTD SVG 1.1//EN" "http://www.w3.org/Graphics/SVG/1.1/DTD/svg11.dtd">
<svg version="1.1" id="Layer_1" xmlns="http://www.w3.org/2000/svg" xmlns:xlink="http://www.w3.org/1999/xlink" x="0px" y="0px"
	 viewBox="0 0 134 20" enable-background="new 0 0 134 20" xml:space="preserve">
<g>
	<g>
		<linearGradient id="SVGID_1_" gradientUnits="userSpaceOnUse" x1="0.5346" y1="9.9635" x2="17.184" y2="9.9635">
			<stop  offset="0" style="stop-color:#25333C"/>
			<stop  offset="1" style="stop-color:#A8ADB1"/>
		</linearGradient>
		<path fill="url(#SVGID_1_)" d="M17.2,12.7c0-1.7-1.3-2.8-3.9-3.4L6.4,7.6C5.5,7.3,5,6.9,4.6,6.1c-2.9,0.2-3.5,0.7-4,1
			C0.7,9,2.4,10.4,5,11l5.3,1.3c1.4,0.3,2,0.3,2.3,1.5c2.8-0.2,4-0.7,4.6-1V12.7z"/>
		
			<radialGradient id="SVGID_2_" cx="-66.9346" cy="-830.2134" r="42.9966" gradientTransform="matrix(0.1945 0 0 0.1735 25.6565 152.4624)" gradientUnits="userSpaceOnUse">
			<stop  offset="0" style="stop-color:#7C858A"/>
			<stop  offset="0.1757" style="stop-color:#727B81"/>
			<stop  offset="0.4726" style="stop-color:#586269"/>
			<stop  offset="0.7363" style="stop-color:#3B474F"/>
			<stop  offset="0.788" style="stop-color:#2F3D45"/>
			<stop  offset="0.8612" style="stop-color:#27353E"/>
			<stop  offset="1" style="stop-color:#25333C"/>
		</radialGradient>
		<path fill="url(#SVGID_2_)" d="M13.1,13.7c-0.3-1.2-1.1-1.4-2.5-1.7l-5.4-1.3c-2-0.5-4.4-1.5-4.7-3.5c0,0,0,0,0,0
			c0.5-0.3,1.3-0.7,3.7-0.9c0.4,0.8,1,1.2,2,1.5l7.1,1.7c2.6,0.6,3.8,1.7,3.8,3.3v0C16.6,13.1,15.6,13.5,13.1,13.7L13.1,13.7z"/>
		<linearGradient id="SVGID_3_" gradientUnits="userSpaceOnUse" x1="0.5203" y1="4.173" x2="16.5772" y2="4.173">
			<stop  offset="0" style="stop-color:#25333C"/>
			<stop  offset="1" style="stop-color:#A8ADB1"/>
		</linearGradient>
		<path fill="url(#SVGID_3_)" d="M8.9,5.3c3.4,0,5,0.4,7.7,1.1V2.8c-2.2-0.5-3.3-0.9-7.6-0.9c-5.5,0-8.4,1.6-8.4,4.5v0
			C1.5,6,4,5.3,8.9,5.3z"/>
		
			<radialGradient id="SVGID_4_" cx="-87.6831" cy="-844.7545" r="48.4688" gradientTransform="matrix(0.2036 0 0 0.1735 28.0152 152.4624)" gradientUnits="userSpaceOnUse">
			<stop  offset="0" style="stop-color:#7C858A"/>
			<stop  offset="0.3297" style="stop-color:#515C63"/>
			<stop  offset="0.3639" style="stop-color:#4A565D"/>
			<stop  offset="0.4956" style="stop-color:#35424B"/>
			<stop  offset="0.626" style="stop-color:#293740"/>
			<stop  offset="0.7527" style="stop-color:#25333C"/>
			<stop  offset="0.7537" style="stop-color:#27353D"/>
			<stop  offset="0.7714" style="stop-color:#414D55"/>
			<stop  offset="0.7915" style="stop-color:#576269"/>
			<stop  offset="0.8152" style="stop-color:#687178"/>
			<stop  offset="0.8445" style="stop-color:#747C82"/>
			<stop  offset="0.8857" style="stop-color:#7A8388"/>
			<stop  offset="1" style="stop-color:#7C858A"/>
		</radialGradient>
		<path fill="url(#SVGID_4_)" d="M16.6,5.9C14,5.3,12.3,4.9,8.9,4.9c-4.6,0-7.1,0.6-8.3,1C0.8,2.7,5.2,2.1,9,2.1
			c3.7,0,5,0.3,6.7,0.7c0.3,0.1,0.6,0.1,0.9,0.2V5.9L16.6,5.9z"/>
		<linearGradient id="SVGID_5_" gradientUnits="userSpaceOnUse" x1="0.988" y1="15.7552" x2="17.1819" y2="15.7552">
			<stop  offset="0" style="stop-color:#25333C"/>
			<stop  offset="1" style="stop-color:#A8ADB1"/>
		</linearGradient>
		<path fill="url(#SVGID_5_)" d="M8.5,14.6c-2.6,0-4.8-0.4-7.5-1v3.7C3.2,17.7,4.5,18,8.5,18c5,0,8.9-1.5,8.7-4.5
			C16.1,14,14.1,14.6,8.5,14.6z"/>
		
			<radialGradient id="SVGID_6_" cx="-96.1644" cy="-796.2923" r="44.3682" gradientTransform="matrix(0.1987 0 0 0.1735 26.454 152.4624)" gradientUnits="userSpaceOnUse">
			<stop  offset="0" style="stop-color:#7C858A"/>
			<stop  offset="0.3297" style="stop-color:#515C63"/>
			<stop  offset="0.3639" style="stop-color:#4A565D"/>
			<stop  offset="0.4956" style="stop-color:#35424B"/>
			<stop  offset="0.626" style="stop-color:#293740"/>
			<stop  offset="0.7527" style="stop-color:#25333C"/>
			<stop  offset="0.7537" style="stop-color:#27353D"/>
			<stop  offset="0.7714" style="stop-color:#414D55"/>
			<stop  offset="0.7915" style="stop-color:#576269"/>
			<stop  offset="0.8152" style="stop-color:#687178"/>
			<stop  offset="0.8445" style="stop-color:#747C82"/>
			<stop  offset="0.8857" style="stop-color:#7A8388"/>
			<stop  offset="1" style="stop-color:#7C858A"/>
		</radialGradient>
		<path fill="url(#SVGID_6_)" d="M8.5,17.7c-3.8,0-5.3-0.3-7.3-0.6l-0.2,0v-2.9c2.6,0.5,4.8,0.9,7.4,0.9c5.1,0,7.4-0.4,8.7-0.9
			C16.7,17.3,11.6,17.7,8.5,17.7L8.5,17.7z"/>
	</g>
	<linearGradient id="SVGID_7_" gradientUnits="userSpaceOnUse" x1="75.4212" y1="19.5197" x2="75.4212" y2="12.6625">
		<stop  offset="0" style="stop-color:#7C858A"/>
		<stop  offset="0.1574" style="stop-color:#727B81"/>
		<stop  offset="0.4232" style="stop-color:#586269"/>
		<stop  offset="0.6593" style="stop-color:#3B474F"/>
		<stop  offset="0.7092" style="stop-color:#35424A"/>
		<stop  offset="0.8539" style="stop-color:#293740"/>
		<stop  offset="1" style="stop-color:#25333C"/>
	</linearGradient>
	<path fill="url(#SVGID_7_)" d="M53.9,12.3c1.5,0.2,2.3,0.3,3.5,0.3c4.3,0,6.9-1.1,6.9-3.1v-1c0-1.5-0.2-3.8-6.6-3.8
		c-5.6,0-7.2,1.7-7.2,4.3v5.2c0,2.7,3.5,3.5,7.1,3.5c2.3,0,4.8-0.3,6.1-0.7v-2.8c-1.4,0.5-3.8,0.8-5.8,0.8c-2.3,0-4-0.5-4-1.6V12.3z
		 M53.9,9.1c0-1,0.3-1.7,3.8-1.7c2.3,0,3.1,0.2,3.1,1.2V9c0,1-1.1,1.4-3.2,1.4c-1.2,0-2.2-0.1-3.7-0.3V9.1z M29.1,13.6
		c0,1-0.8,1.5-3.6,1.5c-2.3,0-2.9-0.3-2.9-1.3v-0.6c0-0.7,0.5-1.1,2.8-1.1c1.8,0,2.2,0.2,3.8,0.4V13.6z M41.6,12.7h3.5v1.1
		c0,1-1.2,1.2-3.5,1.2c-2.8,0-3.6-0.5-3.6-1.7V9c0-1.2,1.4-1.6,3.6-1.6c2.4,0,4.1,0.3,6,0.7V5.2c-1.5-0.3-3.2-0.6-6-0.6
		c-3.7,0-7,0.9-7,4.3v4.3c0,2.8,1.4,4.5,7,4.5c6.5,0,6.9-2.2,6.9-3.8v-2.3c0-1-0.6-1.3-1.5-1.3h-5.4V12.7z M25.8,4.7
		c-2.3,0-3.9,0.3-5.3,0.7v2.7c1.7-0.4,2.7-0.7,5.1-0.7c2.3,0,3.4,0.5,3.4,1.6v1.1c-1.3-0.2-2-0.4-3.8-0.4c-4.6,0-6,1.4-6,3.4v1
		c0,1.6,0.4,3.6,6.1,3.6c5.6,0,7-1.7,7-4.3V8.2C32.5,5.5,29.4,4.7,25.8,4.7L25.8,4.7z M74.4,15h1l3.7-6.2h0c0.3,2.3,0.5,5.7,0.6,8.5
		h3.2c-0.3-4.5-0.8-8.9-1.2-11.7c-0.1-0.4-0.2-0.8-1.2-0.8h-1.8c-0.4,0-0.7,0.2-1,0.6L74.4,11h0h0L71,5.5c-0.2-0.4-0.6-0.6-1-0.6
		h-1.8c-0.9,0-1.1,0.4-1.2,0.8c-0.4,2.8-0.9,7.2-1.2,11.7H69c0.1-2.7,0.3-6.2,0.6-8.5h0l3.7,6.2H74.4z M88.2,9
		c0-1.2,1.4-1.6,3.6-1.6c2.3,0,3.1,0.1,4.9,0.6V5.2c-1.5-0.3-2.2-0.6-5-0.6c-3.7,0-7,0.9-7,4.3v4.5c0,3.3,3.5,4.3,7.1,4.3
		c2.7,0,3.5-0.2,5-0.6v-2.7C95,14.9,94.2,15,91.9,15c-2.5,0-3.7-0.6-3.7-1.8V9z M105.7,15c-2.5,0-3.5-0.6-3.5-1.8V9
		c0-1.2,1.4-1.6,3.5-1.6c2.1,0,3.5,0.4,3.5,1.6v4.2C109.2,14.4,108.2,15,105.7,15L105.7,15z M105.7,17.7c3.7,0,7-0.9,7-4.3V9
		c0-3.3-3.3-4.3-7-4.3c-3.7,0-7,0.9-7,4.3v4.5C98.7,16.8,102,17.7,105.7,17.7L105.7,17.7z M123,15h1l3.7-6.2h0
		c0.3,2.3,0.5,5.7,0.6,8.5h3.2c-0.3-4.5-0.8-8.9-1.2-11.7c-0.1-0.4-0.2-0.8-1.2-0.8h-1.8c-0.4,0-0.7,0.2-1,0.6L123,11h0h0l-3.4-5.6
		c-0.2-0.4-0.6-0.6-1-0.6h-1.8c-0.9,0-1.1,0.4-1.2,0.8c-0.4,2.8-0.9,7.2-1.2,11.7h3.2c0.1-2.7,0.3-6.2,0.6-8.5h0L122,15H123z"/>
</g>
</svg>
