<?xml version="1.0" encoding="utf-8"?>
<!-- Generator: Adobe Illustrator 14.0.0, SVG Export Plug-In . SVG Version: 6.00 Build 43363)  -->
<!DOCTYPE svg PUBLIC "-//W3C//DTD SVG 1.1//EN" "http://www.w3.org/Graphics/SVG/1.1/DTD/svg11.dtd">
<svg version="1.1" id="Layer_1" xmlns="http://www.w3.org/2000/svg" xmlns:xlink="http://www.w3.org/1999/xlink" x="0px" y="0px"
	 width="476.22px" height="59.24px" viewBox="0 0 476.22 59.24" enable-background="new 0 0 476.22 59.24" xml:space="preserve">
<g>
	<path opacity="0.2" fill="#010101" enable-background="new    " d="M196.107,39.123c5.458,0.771,8.396,1.226,12.771,1.226
		c15.538,0,25.017-3.918,25.017-11.242v-3.789c0-5.582-0.602-13.612-24.112-13.612c-20.396,0-26.092,6.1-26.092,15.538v18.689
		c0,9.761,12.776,12.777,25.912,12.777c8.336,0,17.335-1.15,22.131-2.566V46.061c-5.158,1.733-13.914,2.889-20.992,2.889
		c-8.341,0-14.634-1.866-14.634-5.842V39.123L196.107,39.123z M196.107,27.5c0-3.461,1.142-6.032,13.675-6.032
		c8.395,0,11.216,0.833,11.216,4.363v1.287c0,3.468-4.137,4.875-11.64,4.875c-4.199,0-8.033-0.447-13.251-1.15V27.5z M105.95,43.94
		c0,3.603-2.755,5.396-13.011,5.396c-8.457,0-10.62-1.227-10.62-4.748v-2.184c0-2.632,1.743-4.048,10.021-4.048
		c6.359,0,8.156,0.581,13.614,1.536L105.95,43.94L105.95,43.94z M151.358,40.736h12.771v3.852c0,3.521-4.196,4.361-12.537,4.361
		c-10.315,0-13.07-1.798-13.07-5.977V27.308c0-4.434,5.155-5.843,12.895-5.843c8.819,0,14.87,1.03,21.647,2.692V13.693
		c-5.338-1.148-11.749-1.988-21.705-1.988c-13.255,0-25.257,3.335-25.257,15.414v15.406c0,10.086,5.103,16.185,25.49,16.185
		c23.516,0,24.899-7.964,24.899-13.614v-8.157c0-3.79-2.224-4.815-5.522-4.815H151.36L151.358,40.736L151.358,40.736z
		 M94.141,11.706c-8.219,0-13.979,1.221-19.254,2.637v9.817c6.297-1.598,9.836-2.693,18.595-2.693
		c8.336,0,12.473,1.928,12.473,5.844v3.79c-4.618-0.771-7.197-1.354-13.675-1.354c-16.613,0-21.655,4.89-21.655,12.274v3.719
		c0,5.654,1.563,12.972,22.195,12.972c20.334,0,25.548-6.099,25.548-15.542V24.48C118.367,14.79,107.278,11.706,94.141,11.706
		L94.141,11.706z M270.236,49.079h3.782l13.315-22.35h0.115c1.03,8.352,1.69,20.493,2.05,30.83h11.636
		c-1.02-16.315-2.755-32.171-4.254-42.125c-0.244-1.604-0.896-3.016-4.327-3.016h-6.533c-1.439,0-2.574,0.701-3.474,2.181
		l-12.244,20.037h-0.06h-0.061l-12.23-20.037c-0.896-1.478-2.035-2.181-3.479-2.181h-6.53c-3.43,0-4.085,1.412-4.32,3.016
		c-1.502,9.956-3.243,25.813-4.263,42.125h11.631c0.364-9.699,1.023-22.479,2.039-30.83h0.131l13.309,22.35H270.236z
		 M320.546,27.314c0-4.434,5.158-5.844,12.895-5.844c8.217,0,11.156,0.386,17.934,2.052V13.7c-5.34-1.148-8.037-1.988-17.993-1.988
		c-13.255,0-25.25,3.335-25.25,15.414v16.177c0,12.076,12.6,15.409,25.85,15.409c9.954,0,12.657-0.831,17.991-1.985v-9.824
		c-6.777,1.667-9.721,2.053-17.938,2.053c-9.232,0-13.488-2.121-13.488-6.542V27.314L320.546,27.314z M383.938,48.949
		c-9.236,0-12.837-2.121-12.837-6.545v-15.09c0-4.434,5.099-5.844,12.837-5.844c7.739,0,12.842,1.41,12.842,5.844v15.09
		C396.78,46.828,393.18,48.949,383.938,48.949L383.938,48.949z M383.938,58.707c13.255,0,25.266-3.334,25.266-15.409V27.122
		c0-12.073-12.006-15.414-25.266-15.414c-13.254,0-25.252,3.337-25.252,15.414v16.176C358.687,55.375,370.685,58.707,383.938,58.707
		L383.938,58.707z M446.726,49.079h3.789l13.309-22.35h0.127c1.023,8.352,1.675,20.493,2.039,30.83h11.631
		c-1.016-16.315-2.755-32.171-4.25-42.125c-0.244-1.604-0.903-3.016-4.329-3.016h-6.535c-1.441,0-2.583,0.701-3.479,2.181
		l-12.235,20.037h-0.058h-0.054l-12.235-20.037c-0.899-1.478-2.03-2.181-3.479-2.181h-6.537c-3.419,0-4.079,1.412-4.318,3.016
		c-1.5,9.956-3.247,25.813-4.254,42.125h11.635c0.36-9.699,1.021-22.479,2.042-30.83h0.12l13.308,22.35H446.726z"/>
	<path opacity="0.2" fill="#010101" enable-background="new    " d="M3.45,42.531c0,0,16.405,4.166,30.065,3.556
		c13.975-0.626,15.813-0.996,20.015-1.544c4.207-0.549,7.791-2.166,7.791-2.166S64.63,55.02,37.448,58.252
		c-15.354,1.826-34.482-2.367-34.482-2.367V42.497L3.45,42.531z"/>
	<g opacity="0.2">
		<g>
			<g>
				<path id="SVGID_1_" fill="#010101" d="M61.383,39.004c0-6.059-4.67-10.094-14.009-12.339l-24.817-5.897
					c-3.459-0.981-5.259-2.489-6.655-5.333C5.59,16.176,3.133,18.014,1.334,18.939c0.514,6.957,6.785,11.854,16.189,14.094
					l19.027,4.58c4.924,1.165,7.396,1.21,8.337,5.426c10.172-0.684,14.46-2.48,16.495-3.473V39.004L61.383,39.004z"/>
			</g>
			<g>
				<defs>
					<path id="SVGID_2_" d="M61.383,39.004c0-6.059-4.67-10.094-14.009-12.339l-24.817-5.897c-3.459-0.981-5.259-2.489-6.655-5.333
						C5.59,16.176,3.133,18.014,1.334,18.939c0.514,6.957,6.785,11.854,16.189,14.094l19.027,4.58
						c4.924,1.165,7.396,1.21,8.337,5.426c10.172-0.684,14.46-2.48,16.495-3.473V39.004L61.383,39.004z"/>
				</defs>
				<clipPath id="SVGID_4_">
					<use xlink:href="#SVGID_2_"  overflow="visible"/>
				</clipPath>
				<path clip-path="url(#SVGID_4_)" fill="#010101" d="M61.383,43.037V15.437V43.037z"/>
			</g>
		</g>
	</g>
	<g opacity="0.2">
		<g>
			<g>
				<path id="SVGID_3_" fill="#010101" d="M32.374,12.988c12.392,0,18.164,1.508,28.002,4.124V3.814
					c-8.107-1.673-11.88-3.253-27.729-3.253c-19.948,0-30.517,5.659-30.517,16.153v0.18C5.845,15.424,14.858,12.988,32.374,12.988z"
					/>
			</g>
			<g>
				<defs>
					<path id="SVGID_5_" d="M32.374,12.988c12.392,0,18.164,1.508,28.002,4.124V3.814c-8.107-1.673-11.88-3.253-27.729-3.253
						c-19.948,0-30.517,5.659-30.517,16.153v0.18C5.845,15.424,14.858,12.988,32.374,12.988z"/>
				</defs>
				<clipPath id="SVGID_6_">
					<use xlink:href="#SVGID_5_"  overflow="visible"/>
				</clipPath>
				<path clip-path="url(#SVGID_6_)" fill="#010101" d="M60.376,17.112V0.558V17.112z"/>
			</g>
		</g>
	</g>
	
		<linearGradient id="SVGID_7_" gradientUnits="userSpaceOnUse" x1="1023.7637" y1="-245.8071" x2="1083.8164" y2="-245.8071" gradientTransform="matrix(1 0 0 -1 -1021.5801 -217.2334)">
		<stop  offset="0" style="stop-color:#717D83"/>
		<stop  offset="1" style="stop-color:#FFFFFF"/>
	</linearGradient>
	<path fill="url(#SVGID_7_)" d="M62.235,38.34c0-6.052-4.667-10.089-14.009-12.339l-24.819-5.895
		c-3.46-0.977-5.259-2.489-6.651-5.336C6.44,15.514,3.985,17.352,2.184,18.281C2.7,25.234,8.972,30.135,18.376,32.378l19.025,4.577
		c4.929,1.161,7.396,1.204,8.336,5.422c10.171-0.684,14.459-2.484,16.496-3.477L62.235,38.34L62.235,38.34z"/>
	
		<radialGradient id="SVGID_8_" cx="997.1963" cy="-248.7139" r="34.3047" gradientTransform="matrix(1.052 0 0 -0.9387 -1003.7181 -207.7436)" gradientUnits="userSpaceOnUse">
		<stop  offset="0" style="stop-color:#FFFFFF"/>
		<stop  offset="0.177" style="stop-color:#EAEBEB"/>
		<stop  offset="0.4231" style="stop-color:#DCDFE0"/>
		<stop  offset="0.4977" style="stop-color:#CDD1D3"/>
		<stop  offset="0.9121" style="stop-color:#838E93"/>
	</radialGradient>
	<path fill="url(#SVGID_8_)" d="M47.597,42.025c-1.185-4.16-4.067-5.042-8.91-6.178l-19.531-4.672
		c-7.219-1.711-15.898-5.271-16.78-12.55c0.034-0.017,0.068-0.036,0.103-0.051c1.705-0.919,4.537-2.446,13.46-3.14
		c1.54,2.855,3.573,4.378,7.104,5.368l25.52,6.023c9.258,2.224,13.763,6.107,13.763,11.877v0.122
		C60.214,39.839,56.651,41.357,47.597,42.025L47.597,42.025z"/>
	
		<linearGradient id="SVGID_9_" gradientUnits="userSpaceOnUse" x1="1023.7148" y1="-224.9214" x2="1081.957" y2="-224.9214" gradientTransform="matrix(1 0 0 -1 -1021.5801 -217.2334)">
		<stop  offset="0" style="stop-color:#717D83"/>
		<stop  offset="1" style="stop-color:#FFFFFF"/>
	</linearGradient>
	<path fill="url(#SVGID_9_)" d="M32.374,11.838c12.394,0,18.164,1.51,28.002,4.127v-13.3C52.269,0.993,48.496-0.59,32.65-0.59
		c-19.949,0-30.516,5.659-30.516,16.157v0.178C5.845,14.276,14.858,11.838,32.374,11.838z"/>
	
		<radialGradient id="SVGID_10_" cx="938.96" cy="-236.0474" r="32.3156" gradientTransform="matrix(1.1082 0 0 -0.9387 -1003.435 -207.7436)" gradientUnits="userSpaceOnUse">
		<stop  offset="0" style="stop-color:#FFFFFF"/>
		<stop  offset="0.3077" style="stop-color:#DCDFE0"/>
		<stop  offset="0.4531" style="stop-color:#D9DBDD"/>
		<stop  offset="0.5392" style="stop-color:#CDD1D3"/>
		<stop  offset="0.6099" style="stop-color:#B8BEC1"/>
		<stop  offset="0.6722" style="stop-color:#9EA6AA"/>
		<stop  offset="0.7284" style="stop-color:#808A90"/>
		<stop  offset="0.7527" style="stop-color:#717D83"/>
		<stop  offset="0.7736" style="stop-color:#879196"/>
		<stop  offset="0.8094" style="stop-color:#ADB3B6"/>
		<stop  offset="0.8475" style="stop-color:#CBD0D1"/>
		<stop  offset="0.8884" style="stop-color:#E4E5E6"/>
		<stop  offset="0.9341" style="stop-color:#F6F6F7"/>
		<stop  offset="0.9945" style="stop-color:#FFFFFF"/>
	</radialGradient>
	<path fill="url(#SVGID_10_)" d="M60.389,14.081c-9.335-2.412-15.398-3.856-27.925-3.856c-16.586,0-25.691,2.018-30.137,3.504
		C3.195,2.476,19.232,0.068,32.744,0.068c13.398,0,18.239,1.054,24.361,2.39c1.047,0.231,2.125,0.467,3.283,0.696V14.081
		L60.389,14.081z"/>
	
		<linearGradient id="SVGID_11_" gradientUnits="userSpaceOnUse" x1="1025.4375" y1="-266.6968" x2="1083.8125" y2="-266.6968" gradientTransform="matrix(1 0 0 -1 -1021.5801 -217.2334)">
		<stop  offset="0" style="stop-color:#717D83"/>
		<stop  offset="1" style="stop-color:#FFFFFF"/>
	</linearGradient>
	<path fill="url(#SVGID_11_)" d="M30.795,45.174c-9.45,0-17.136-1.482-26.938-3.615v13.388c7.859,1.474,12.72,2.542,26.938,2.542
		c18.147,0,32.058-5.509,31.415-16.05C58.285,43.037,51.213,45.174,30.795,45.174z"/>
	
		<radialGradient id="SVGID_12_" cx="960.3984" cy="-268.3579" r="29.5784" gradientTransform="matrix(1.0745 0 0 -0.9387 -1005.1795 -207.7436)" gradientUnits="userSpaceOnUse">
		<stop  offset="0" style="stop-color:#FFFFFF"/>
		<stop  offset="0.3077" style="stop-color:#DCDFE0"/>
		<stop  offset="0.4531" style="stop-color:#D9DBDD"/>
		<stop  offset="0.5392" style="stop-color:#CDD1D3"/>
		<stop  offset="0.6099" style="stop-color:#B8BEC1"/>
		<stop  offset="0.6722" style="stop-color:#9EA6AA"/>
		<stop  offset="0.7284" style="stop-color:#808A90"/>
		<stop  offset="0.7527" style="stop-color:#717D83"/>
		<stop  offset="0.7736" style="stop-color:#879196"/>
		<stop  offset="0.8094" style="stop-color:#ADB3B6"/>
		<stop  offset="0.8475" style="stop-color:#CBD0D1"/>
		<stop  offset="0.8884" style="stop-color:#E4E5E6"/>
		<stop  offset="0.9341" style="stop-color:#F6F6F7"/>
		<stop  offset="0.9945" style="stop-color:#FFFFFF"/>
	</radialGradient>
	<path fill="url(#SVGID_12_)" d="M30.887,56.565c-13.745,0-18.986-0.925-26.239-2.215l-0.56-0.103V43.684
		c9.254,1.874,17.229,3.29,26.799,3.29c18.519,0,26.6-1.615,31.276-3.191C60.354,54.878,41.95,56.565,30.887,56.565L30.887,56.565z"
		/>
	
		<linearGradient id="SVGID_13_" gradientUnits="userSpaceOnUse" x1="673.9033" y1="-227.6401" x2="673.9033" y2="-274.6475" gradientTransform="matrix(1 0 0 -1 -399.7793 -218.0342)">
		<stop  offset="0.2912" style="stop-color:#C5C9CA"/>
		<stop  offset="0.5227" style="stop-color:#C9CDCF"/>
		<stop  offset="0.7084" style="stop-color:#D8DADC"/>
		<stop  offset="0.7912" style="stop-color:#E4E4E6"/>
		<stop  offset="0.9177" style="stop-color:#EFEFEF"/>
		<stop  offset="0.9945" style="stop-color:#FFFFFF"/>
	</linearGradient>
	<path fill="url(#SVGID_13_)" d="M196.107,37.023c5.462,0.771,8.401,1.226,12.775,1.226c15.533,0,25.014-3.917,25.014-11.241v-3.789
		c0-5.582-0.604-13.613-24.11-13.613c-20.398,0-26.094,6.101-26.094,15.539v18.689c0,9.761,12.774,12.777,25.914,12.777
		c8.332,0,17.333-1.15,22.131-2.566V43.962c-5.16,1.733-13.914,2.888-20.993,2.888c-8.339,0-14.637-1.865-14.637-5.842V37.023
		L196.107,37.023z M196.107,25.399c0-3.461,1.144-6.032,13.679-6.032c8.393,0,11.214,0.833,11.214,4.366v1.285
		c0,3.47-4.137,4.875-11.638,4.875c-4.198,0-8.035-0.448-13.255-1.15V25.399z M105.954,41.842c0,3.603-2.757,5.396-13.013,5.396
		c-8.455,0-10.622-1.228-10.622-4.749v-2.183c0-2.633,1.743-4.048,10.024-4.048c6.357,0,8.157,0.58,13.61,1.535V41.842
		L105.954,41.842z M151.36,38.637h12.771v3.852c0,3.521-4.195,4.361-12.539,4.361c-10.315,0-13.066-1.797-13.066-5.977V25.208
		c0-4.434,5.154-5.843,12.891-5.843c8.821,0,14.87,1.03,21.651,2.692V11.594c-5.34-1.148-11.751-1.988-21.707-1.988
		c-13.255,0-25.259,3.335-25.259,15.414v15.406c0,10.086,5.103,16.186,25.495,16.186c23.513,0,24.896-7.965,24.896-13.615V34.84
		c0-3.79-2.226-4.816-5.521-4.816h-19.61L151.36,38.637L151.36,38.637z M94.143,9.606c-8.219,0-13.979,1.221-19.256,2.637v9.817
		c6.302-1.598,9.838-2.693,18.597-2.693c8.337,0,12.471,1.928,12.471,5.844V29c-4.618-0.771-7.193-1.354-13.675-1.354
		c-16.611,0-21.651,4.891-21.651,12.273v3.719c0,5.654,1.562,12.973,22.195,12.973c20.332,0,25.546-6.1,25.546-15.543V22.381
		C118.369,12.69,107.278,9.606,94.143,9.606L94.143,9.606z M270.238,46.98h3.783l13.313-22.35h0.115
		c1.03,8.352,1.69,20.493,2.05,30.831h11.636c-1.02-16.316-2.755-32.171-4.254-42.125c-0.244-1.604-0.896-3.016-4.327-3.016h-6.533
		c-1.439,0-2.574,0.701-3.474,2.181l-12.244,20.037h-0.058h-0.059L257.952,12.5c-0.896-1.478-2.035-2.181-3.479-2.181h-6.53
		c-3.43,0-4.085,1.412-4.32,3.016c-1.502,9.956-3.243,25.813-4.263,42.125h11.631c0.364-9.699,1.023-22.479,2.039-30.831h0.131
		l13.309,22.35H270.238z M320.546,25.215c0-4.434,5.158-5.843,12.895-5.843c8.217,0,11.156,0.386,17.934,2.052v-9.823
		c-5.34-1.148-8.037-1.988-17.993-1.988c-13.255,0-25.25,3.337-25.25,15.414v16.177c0,12.076,12.6,15.41,25.85,15.41
		c9.954,0,12.657-0.832,17.991-1.984v-9.825c-6.777,1.667-9.721,2.052-17.938,2.052c-9.232,0-13.488-2.12-13.488-6.541V25.215
		L320.546,25.215z M383.938,46.85c-9.236,0-12.837-2.121-12.837-6.544V25.215c0-4.434,5.099-5.843,12.837-5.843
		c7.739,0,12.842,1.41,12.842,5.843v15.091C396.78,44.729,393.18,46.85,383.938,46.85L383.938,46.85z M383.938,56.608
		c13.255,0,25.266-3.335,25.266-15.409V25.022c0-12.073-12.006-15.414-25.266-15.414c-13.254,0-25.252,3.337-25.252,15.414v16.177
		C358.687,53.273,370.685,56.608,383.938,56.608L383.938,56.608z M446.726,46.98h3.789l13.309-22.35h0.127
		c1.023,8.352,1.675,20.493,2.039,30.831h11.631c-1.016-16.316-2.755-32.171-4.25-42.125c-0.244-1.604-0.903-3.016-4.329-3.016
		h-6.535c-1.441,0-2.583,0.701-3.479,2.181l-12.235,20.037h-0.058h-0.054L434.445,12.5c-0.899-1.478-2.03-2.181-3.479-2.181h-6.537
		c-3.419,0-4.079,1.412-4.318,3.016c-1.5,9.956-3.247,25.813-4.254,42.125h11.635c0.36-9.699,1.021-22.479,2.042-30.831h0.12
		l13.308,22.35H446.726z"/>
</g>
</svg>
