<?xml version="1.0" encoding="UTF-8" standalone="no"?>
<!-- Generator: Adobe Illustrator 21.1.0, SVG Export Plug-In . SVG Version: 6.00 Build 0)  -->

<svg
   xmlns:dc="http://purl.org/dc/elements/1.1/"
   xmlns:cc="http://creativecommons.org/ns#"
   xmlns:rdf="http://www.w3.org/1999/02/22-rdf-syntax-ns#"
   xmlns:svg="http://www.w3.org/2000/svg"
   xmlns="http://www.w3.org/2000/svg"
   xmlns:sodipodi="http://sodipodi.sourceforge.net/DTD/sodipodi-0.dtd"
   xmlns:inkscape="http://www.inkscape.org/namespaces/inkscape"
   version="1.1"
   id="Layer_1"
   x="0px"
   y="0px"
   viewBox="0 0 160 160"
   style="enable-background:new 0 0 160 160;"
   xml:space="preserve"
   inkscape:version="0.48.4 r9939"
   width="100%"
   height="100%"
   sodipodi:docname="network-map.svg"><metadata
     id="metadata18"><rdf:RDF><cc:Work
         rdf:about=""><dc:format>image/svg+xml</dc:format><dc:type
           rdf:resource="http://purl.org/dc/dcmitype/StillImage" /></cc:Work></rdf:RDF></metadata><defs
     id="defs16" /><sodipodi:namedview
     pagecolor="#ffffff"
     bordercolor="#666666"
     borderopacity="1"
     objecttolerance="10"
     gridtolerance="10"
     guidetolerance="10"
     inkscape:pageopacity="0"
     inkscape:pageshadow="2"
     inkscape:window-width="1920"
     inkscape:window-height="1001"
     id="namedview14"
     showgrid="false"
     inkscape:zoom="4.8628906"
     inkscape:cx="44.115993"
     inkscape:cy="80"
     inkscape:window-x="0"
     inkscape:window-y="25"
     inkscape:window-maximized="1"
     inkscape:current-layer="layer1" /><style
     type="text/css"
     id="style3">
	.st0{fill:#059B41;}
</style><g
     id="layer1"><path
       class="st0"
       d="M78.3,113.4c-14.9-1.4-28.3-8.2-38-19.3C20.5,71.7,21.6,38.2,42.7,17C56.4,3.2,74.8-2.6,93.8,1.1   c22.2,4.2,40.3,22.2,44.9,44.6c1.8,9.1,1.2,19.5-1.7,28.6c-6.3,19.7-24.2,35.2-44.4,38.4C86.9,113.7,82.7,113.9,78.3,113.4z    M86.2,106.7c4.7-2.1,9-9.6,11.9-20.8c0.6-2.3,1.1-4.5,1.1-4.7c0-0.4-5.3-0.5-16.3-0.5c-14.9,0-16.3,0.1-16.3,0.8   c0,2.3,3.3,12.2,5.8,17C76.3,105.9,81.2,109,86.2,106.7z M67.8,102.1c-1.1-2-2.6-5-3.4-6.8c-1.4-3.4-4.1-12.9-4.1-14.4   c0-0.4-0.1-1-0.4-1.1c-0.2-0.1-2.8-0.6-5.8-1c-5.4-0.7-15.8-3.1-17.4-4c-1.5-0.8-1.4,0,0.5,3.9c5.7,11.9,15.6,20.9,27.8,25.5   c2,0.7,3.8,1.3,4.2,1.3C69.6,105.7,69,104.1,67.8,102.1z M102.3,103.7c11.3-4.5,21.7-14.5,26.9-25.8c0.8-1.6,1.3-3.1,1.2-3.2   c-0.1-0.1-1.3,0.2-2.8,0.7c-3.7,1.2-12.1,3.1-17.3,3.7l-4.4,0.6l-0.6,3.1c-1.2,6.5-4.7,15.4-8.2,21.1l-1.2,2l1.3-0.4   C98,105.3,100.3,104.5,102.3,103.7z M98.2,74.2c2.1-0.3,2.4-0.4,2.6-1.8c0.4-2.3,0.9-23.8,0.5-26.6l-0.4-2.6l-1.8,0.3   c-4.3,0.6-21,0.9-27.3,0.4c-3.7-0.3-6.7-0.4-6.8-0.3c-0.7,0.6-1.1,13.6-0.6,20.6c0.6,9.9,0.6,9.7,2.8,10   C70,74.5,95.7,74.5,98.2,74.2z M58.7,70.8c-0.2-1.3-0.4-8.2-0.4-15.3V42.5L56,42.3c-4.2-0.6-11.9-2.5-15.8-3.9   c-2.1-0.8-4-1.4-4-1.4c-0.4,0-2.6,7.7-3.2,10.7c-0.7,3.7-0.9,13.1-0.4,16.8c0.4,2,0.4,2.1,3.3,3.6c4.3,2.1,16.3,5,21.2,5.1l1.8,0.1   L58.7,70.8z M117.5,71.7c8.1-1.6,14.8-4.2,15.5-5.9c0.7-1.8,0.7-13.1,0-17.4c-0.6-3.5-2.7-10.9-3.2-11.4c-0.1-0.1-1.6,0.4-3.3,1.1   c-3.6,1.3-12.9,3.6-16.8,4c-2.6,0.4-2.6,0.4-2.3,1.6c0.4,1.7,0.4,22.1,0,26.1l-0.4,3.4l3.1-0.4C111.7,72.8,115.1,72.2,117.5,71.7z    M96.4,37.6l3.8-0.3l-0.4-1.6C97.6,22,92.3,10.4,87.1,7.4c-4.9-2.9-9.8-0.6-14.1,6.7c-2.5,4.3-5.9,14.8-7,21.5   c-0.3,1.8-0.2,1.9,0.8,2c0.6,0.1,3.8,0.2,7.2,0.4C80.2,38.2,89.1,38.1,96.4,37.6z M60.4,32c1.6-8.2,4.6-16.2,7.9-21.3   C69.2,9.2,70,8,70,8c0-0.4-3.8,1-7.5,2.5c-5,2-11.2,6.3-15.3,10.5c-3.9,3.8-8.2,9.7-7.7,10.5c0.7,1.2,16,5.2,19.2,5   C59.4,36.3,59.7,35.5,60.4,32z M115.1,35.1c4.8-1.1,11.1-3.1,11.4-3.7c0.5-0.8-4.4-7.2-8.4-11c-4.3-4.2-7.4-6.3-12.5-8.9   c-2.6-1.3-9.2-3.9-9.9-3.9c-0.1,0,0.4,0.7,0.9,1.5c1.6,2.1,4.6,8.2,6,12.2c1.4,4,3.6,12.6,3.6,14.1c0,1.1,0.1,1.1,2.4,0.8   C109.9,36.1,112.9,35.5,115.1,35.1z"
       id="path6"
       style="fill:#000000;fill-opacity:1" /></g><path
     class="st0"
     d="M4.9,130.9h36.8v20H4.9V130.9z M44.6,125.6H1.9c-1,0-1.9,0.8-1.9,1.9v27c0,1,0.8,1.9,1.9,1.9h20.5v1.9h-7.4v1.9  h16.7v-1.9h-7.4v-1.9h20.5c1,0,1.9-0.8,1.9-1.9v-27C46.5,126.4,45.7,125.6,44.6,125.6z"
     id="path8"
     style="fill:#000000;fill-opacity:1" /><path
     class="st0"
     d="M61.6,130.9h36.8v20H61.6V130.9z M101.4,125.6H58.6c-1,0-1.9,0.8-1.9,1.9v27c0,1,0.8,1.9,1.9,1.9h20.5v1.9h-7.4  v1.9h16.7v-1.9h-7.4v-1.9h20.5c1,0,1.9-0.8,1.9-1.9v-27C103.3,126.4,102.4,125.6,101.4,125.6z"
     id="path10"
     style="fill:#000000;fill-opacity:1" /><path
     class="st0"
     d="M118.3,130.9h36.8v20h-36.8V130.9z M158.1,125.6h-42.8c-1,0-1.9,0.8-1.9,1.9v27c0,1,0.8,1.9,1.9,1.9h20.5v1.9  h-7.4v1.9h16.7v-1.9h-7.4v-1.9h20.5c1,0,1.9-0.8,1.9-1.9v-27C160,126.4,159.2,125.6,158.1,125.6z"
     id="path12"
     style="fill:#000000;fill-opacity:1" /></svg>