<?xml version="1.0" encoding="utf-8"?>
<!-- Generator: Adobe Illustrator 15.0.0, SVG Export Plug-In . SVG Version: 6.00 Build 0)  -->
<!DOCTYPE svg PUBLIC "-//W3C//DTD SVG 1.1//EN" "http://www.w3.org/Graphics/SVG/1.1/DTD/svg11.dtd">
<svg version="1.1" id="Layer_1" xmlns="http://www.w3.org/2000/svg" xmlns:xlink="http://www.w3.org/1999/xlink" x="0px" y="0px"
	 width="500px" height="508.029px" viewBox="0 0 500 508.029" enable-background="new 0 0 500 508.029" xml:space="preserve">
<path fill="#008000" d="M473.855,387.302L333.335,237.197v-26.041c0-14.373-11.671-26.041-26.043-26.041
	c-14.374,0-26.041,11.669-26.041,26.041v26.041h-62.5v-26.041c0-14.373-11.668-26.041-26.041-26.041s-26.041,11.669-26.041,26.041
	v26.041L26.142,387.302c-9.684,9.48-15.727,22.707-15.727,37.294v41.771c0,23.021,18.646,41.664,41.667,41.664h395.835
	c23.021,0,41.665-18.644,41.665-41.664v-41.771C489.582,410.008,483.54,396.781,473.855,387.302z"/>
<path fill="#008000" d="M204.269,38.455c-83.12,31.983-160.715,78.92-179.538,120.203c-15.617,34.25-7.258,80.923,0.511,109.52
	c0,0,0.658,2.869,1.108,4.039c4.151,10.789,16.229,16.076,26.923,11.961c1.264-0.486,46.566-22.271,73.861-35.452
	c0.64-0.36,1.288-0.719,1.891-1.174c10.389-4.331,15.556-16.143,11.479-26.738l-14.645-38.341
	c-4.564-11.86,1.397-25.094,13.259-29.658l190.153-73.169c11.862-4.563,25.158,1.258,29.725,13.119l14.832,38.271
	c4.076,10.595,15.829,15.896,26.439,12.146c0.75-0.064,1.469-0.232,2.193-0.397c29.091-8.518,77.313-22.718,78.57-23.201
	c10.69-4.114,16.114-16.137,11.965-26.925c-0.451-1.171-1.885-3.739-1.885-3.739c-13.408-26.428-38.48-66.669-73.03-81.616
	C376.432-10.712,287.391,6.472,204.269,38.455z"/>
<g>
	<polygon fill="#FFFFFF" points="214.474,298.42 162.337,298.42 179.794,277.584 221.47,277.584 	"/>
	<polygon fill="#FFFFFF" points="276.386,298.42 224.25,298.42 229.284,277.584 270.96,277.584 	"/>
	<polygon fill="#FFFFFF" points="338.299,298.42 286.162,298.42 278.773,277.584 320.448,277.584 	"/>
	<polygon fill="#FFFFFF" points="204.875,327.011 138.386,327.011 155.842,306.174 211.871,306.174 	"/>
	<polygon fill="#FFFFFF" points="283.832,327.011 217.342,327.011 222.376,306.174 278.404,306.174 	"/>
	<polygon fill="#FFFFFF" points="362.789,327.011 296.299,327.011 288.91,306.174 344.939,306.174 	"/>
	<polygon fill="#FFFFFF" points="195.256,355.662 114.382,355.662 131.839,334.824 202.252,334.824 	"/>
	<polygon fill="#FFFFFF" points="291.294,355.662 210.42,355.662 215.455,334.824 285.866,334.824 	"/>
	<polygon fill="#FFFFFF" points="387.331,355.662 306.458,355.662 299.068,334.824 369.48,334.824 	"/>
	<polygon fill="#FFFFFF" points="185.636,384.315 90.378,384.315 107.836,363.478 192.632,363.478 	"/>
	<polygon fill="#FFFFFF" points="298.756,384.315 203.498,384.315 208.532,363.478 293.329,363.478 	"/>
	<polygon fill="#FFFFFF" points="411.874,384.315 316.616,384.315 309.229,363.478 394.025,363.478 	"/>
</g>
</svg>
