<?xml version="1.0" encoding="utf-8"?>
<!-- Generator: Adobe Illustrator 15.0.0, SVG Export Plug-In . SVG Version: 6.00 Build 0)  -->
<!DOCTYPE svg PUBLIC "-//W3C//DTD SVG 1.1//EN" "http://www.w3.org/Graphics/SVG/1.1/DTD/svg11.dtd">
<svg version="1.1" id="Layer_1" xmlns="http://www.w3.org/2000/svg" xmlns:xlink="http://www.w3.org/1999/xlink" x="0px" y="0px"
	 width="500px" height="508.03px" viewBox="0 0 500 508.03" enable-background="new 0 0 500 508.03" xml:space="preserve">
<g>
	<path fill="#3E3E3E" d="M473.855,351.995L333.335,201.89v-26.04c0-14.374-11.671-26.041-26.043-26.041
		c-14.374,0-26.041,11.668-26.041,26.041v26.04h-62.5v-26.04c0-14.374-11.668-26.041-26.041-26.041s-26.041,11.668-26.041,26.041
		v26.04L26.142,351.995c-9.684,9.481-15.727,22.707-15.727,37.294v41.771c0,23.021,18.646,41.664,41.667,41.664h395.835
		c23.021,0,41.665-18.644,41.665-41.664v-41.771C489.582,374.701,483.54,361.476,473.855,351.995z"/>
	<path fill="#3E3E3E" d="M249.689,35.308c-89.061,0.179-178.303,16.296-210.632,48.13c-26.822,26.411-35.689,72.99-38.649,102.476
		c0,0-0.41,2.915-0.408,4.168c0.023,11.561,9.415,20.813,20.874,20.79c1.354-0.002,51.45-4.166,81.652-6.726
		c0.727-0.108,1.459-0.212,2.186-0.421c11.25-0.334,20.297-9.521,20.274-20.872l0.019-41.044
		c-0.026-12.707,10.27-22.938,22.979-22.964l203.745-0.408c12.711-0.025,23.049,10.163,23.076,22.872l0.182,41.043
		c0.022,11.353,9.105,20.502,20.355,20.791c0.723,0.207,1.455,0.308,2.191,0.412c30.213,2.438,80.326,6.402,81.674,6.398
		c11.455-0.022,20.816-9.313,20.794-20.873c-0.004-1.254-0.425-4.165-0.425-4.165c-3.082-29.475-12.123-76.018-39.053-102.321
		C428.056,50.89,338.75,35.13,249.689,35.308z"/>
	<g>
		<polygon fill="#FFFFFF" points="214.474,263.114 162.337,263.114 179.794,242.278 221.47,242.278 		"/>
		<polygon fill="#FFFFFF" points="276.386,263.114 224.25,263.114 229.284,242.278 270.96,242.278 		"/>
		<polygon fill="#FFFFFF" points="338.299,263.114 286.162,263.114 278.773,242.278 320.448,242.278 		"/>
		<polygon fill="#FFFFFF" points="204.875,291.704 138.386,291.704 155.842,270.867 211.871,270.867 		"/>
		<polygon fill="#FFFFFF" points="283.832,291.704 217.342,291.704 222.376,270.867 278.404,270.867 		"/>
		<polygon fill="#FFFFFF" points="362.789,291.704 296.299,291.704 288.91,270.867 344.94,270.867 		"/>
		<polygon fill="#FFFFFF" points="195.256,320.357 114.382,320.357 131.839,299.519 202.252,299.519 		"/>
		<polygon fill="#FFFFFF" points="291.294,320.357 210.42,320.357 215.455,299.519 285.866,299.519 		"/>
		<polygon fill="#FFFFFF" points="387.331,320.357 306.458,320.357 299.069,299.519 369.481,299.519 		"/>
		<polygon fill="#FFFFFF" points="185.636,349.008 90.378,349.008 107.836,328.171 192.632,328.171 		"/>
		<polygon fill="#FFFFFF" points="298.756,349.008 203.498,349.008 208.532,328.171 293.329,328.171 		"/>
		<polygon fill="#FFFFFF" points="411.874,349.008 316.616,349.008 309.229,328.171 394.025,328.171 		"/>
	</g>
</g>
</svg>
