<svg id="spectrum_light" xmlns="http://www.w3.org/2000/svg" viewBox="0 0 263 69">
    <g id="charter">
        <path id="letter_c" fill="#1c5989" d="M51.514,15.466c-1.245,1.047-2.471,1.515-3.978,1.515 c-3.358,0-5.99-3.153-5.99-7.18c0-4.065,2.576-7.129,5.99-7.129c1.443,0,2.622,0.432,3.824,1.401l0.401,0.324l1.733-1.756 l-0.478-0.408c-0.982-0.839-2.617-1.954-5.456-1.954c-4.798,0-8.415,4.116-8.415,9.574c0,5.427,3.588,9.52,8.347,9.52 c2.899,0,4.589-1.248,5.61-2.185l0.447-0.411l-1.631-1.65L51.514,15.466" />
        <path id="letter_h" fill="#1c5989" d="M60.664,4.957c-1.574,0-2.904,0.533-3.931,1.54V0h-2.347 v19.062h2.347v-7.895c0-2.278,1.581-3.931,3.758-3.931c2.125,0,3.393,1.395,3.393,3.733v8.093h2.347v-8.316 C66.23,7.283,63.992,4.957,60.664,4.957" />
        <path id="letter_a" fill="#1c5989" d="M69.649,14.688c0-1.485,1.322-2.369,3.538-2.369 c1.507,0,2.715,0.221,3.661,0.448v0.978c0,1.888-1.785,3.311-4.15,3.311c-1.516,0-3.049-0.796-3.049-2.319V14.688L69.649,14.688z M73.359,5.055c-1.972,0-3.469,0.58-4.672,1.145l-0.501,0.236l0.892,2.162l0.552-0.286c1.256-0.65,2.418-0.953,3.656-0.953 c1.572,0,3.435,0.547,3.529,3.089c-0.938-0.215-2.046-0.385-3.554-0.385c-3.666,0-6.032,1.844-6.032,4.699v0.05 c0,2.954,2.779,4.547,5.395,4.547c1.946,0,3.3-0.73,4.2-1.511v1.214h2.323v-8.466C79.147,7.126,76.983,5.055,73.359,5.055 L73.359,5.055z" />
        <path id="letter_r" fill="#1c5989" d="M82.85,7.404v-2.15h-2.347v13.808h2.347v-5.763 c0-3.966,2.43-5.742,4.837-5.742h0.696V5.059h-0.55C85.938,5.059,84.12,5.866,82.85,7.404" />
        <path id="letter_t" fill="#1c5989" d="M94.998,16.981c-1.329,0-1.923-0.577-1.923-1.872V7.558 h4.381V5.059h-4.381V1.214h-2.347v3.846h-1.583v2.499h1.583v7.675c0,2.499,1.561,4.052,4.074,4.052 c0.832,0,1.533-0.153,2.272-0.499l0.334-0.156v-2.412l-0.808,0.369C95.963,16.875,95.53,16.981,94.998,16.981" />
        <path id="letter_e" fill="#1c5989" d="M103.753,7.235c2.404,0,3.53,1.836,3.834,3.746h-7.766 C100.23,8.781,101.799,7.235,103.753,7.235L103.753,7.235z M103.802,4.957c-3.644,0-6.498,3.153-6.498,7.177v0.049 c0,4.09,2.878,7.176,6.694,7.176c2.865,0,4.491-1.372,5.587-2.566l0.4-0.437l-1.691-1.511l-0.381,0.412 c-1.133,1.227-2.359,1.798-3.865,1.798c-1.796,0-3.799-1.202-4.246-3.821h10.249l0.026-0.51l0.027-0.518v-0.05 C110.102,7.918,107.511,4.957,103.802,4.957L103.802,4.957z" />
        <path id="letter_r_1_" fill="#1c5989" d="M118.675,5.055c-1.906-0.075-3.713,0.812-4.982,2.349 v-2.15h-2.347v13.808h2.347v-5.763c0-3.966,2.428-5.742,4.837-5.742h0.696V5.078L118.675,5.055" />
    </g>

    <g id="spectrum">
        <path id="letter_s" fill="#898a89" d="M4.821,54.002c2.731,2.361,6.829,3.539,12.295,3.539 c5.304,0,9.403-1.137,12.295-3.417c2.893-2.442,4.338-5.86,4.338-10.254c0-2.034-0.392-3.91-1.324-5.617 c-0.854-1.563-2.304-3.037-4.059-3.926c-1.111-0.563-1.789-0.808-3.157-1.233c-1.477-0.46-8.83-2.492-9.573-2.69 c-4.097-1.011-6.699-2.393-6.717-4.847c0.212-4.748,4.581-5.128,6.991-5.128c2.49,0,4.461,0.53,5.906,1.587 c2.595,2.045,2.306,4.644,2.306,4.644h8.18c-0.161-4.069-1.608-7.37-4.339-9.893c-2.651-2.279-6.43-3.419-11.331-3.419 c-5.224,0-9.201,1.099-11.933,3.295c-2.732,2.282-4.097,5.415-4.097,9.401c0.012,5.123,2.409,8.144,4.579,9.522 c1.32,0.8,4.317,2.027,8.196,2.809l3.26,0.718c5.651,1.394,8.896,3.163,8.794,5.995c-0.06,1.709-0.642,3.015-1.928,3.908 c-1.178,0.814-3.175,1.342-5.665,1.342c-2.814,0-5.023-0.569-6.629-1.71c-1.528-0.975-2.452-2.685-2.772-5.126H0 C0.241,48.142,1.848,51.642,4.821,54.002" />
        <path id="letter_p" fill="#898a89" d="M43.711,64.828c0,2.184-1.677,4.172-4.12,4.172h-4.118 V38.448c0.479-8.127,3.397-14.606,15.587-15.047c5.272,0.067,9.097,2.192,11.359,4.868c2.424,3.19,3.461,7.155,3.461,12.143 c0,5.153-1.211,9.324-3.636,12.516c-2.421,3.107-5.531,4.661-9.326,4.661c-5.695,0-8.46-2.401-9.211-2.85 C43.707,55.018,43.711,64.828,43.711,64.828L43.711,64.828z M57.52,40.78c0-3.19-0.578-9.939-7.025-9.939 c-6.122,0-6.784,6.585-6.784,9.939c0,8.491,4.764,9.571,7.026,9.571C56.592,50.351,57.52,44.06,57.52,40.78L57.52,40.78z" />
        <path id="letter_e_1_" fill="#898a89" d="M82.505,30.603c5.18-0.071,5.985,4.396,6.146,6.594 H76.357C76.357,37.196,76.254,30.72,82.505,30.603L82.505,30.603z M82.866,50.258c-2.087-0.106-6.064-0.521-6.428-7.568 l20.887,0.004c0.003-0.214,0-2.535,0.006-2.539c-0.145-5.31-1.402-9.268-3.858-12.238c-2.652-2.931-6.389-4.395-11.21-4.395 c-4.579,0-8.155,1.507-10.726,4.516c-2.492,2.931-3.738,7.002-3.738,12.209c0,5.453,1.285,9.645,3.858,12.574 c2.572,3.012,6.148,4.518,10.726,4.518c3.778,0,6.91-0.935,9.403-2.809c2.49-1.789,4.191-4.402,5.075-7.82l-7.26,0.001 C88.533,49.776,85.803,50.409,82.866,50.258L82.866,50.258z" />
        <path id="letter_c_1_" fill="#898a89" d="M120.359,46.72h7.924c0,0-2.15,10.619-14.119,10.619 c-11.968,0-14.915-9.728-14.915-16.119c0-6.392,1.121-17.312,14.449-17.695c12.314-0.186,14.345,10.621,14.345,10.621h-8.437 c0,0-0.818-3.655-5.839-3.54c-5.022,0.116-6.334,4.894-6.334,9.433c0,4.54,1.114,10.219,6.689,10.219 C119.424,50.423,119.891,47.52,120.359,46.72" />
        <path id="letter_t_1_" fill="#898a89" d="M138.507,32.933h4.956l-0.004-8.555h-4.941v-5.494 c0-1.508-0.828-4.151-3.978-4.151h-4.339v35.892c0,3.744,1.435,5.981,4.539,5.981c0.035,0,3.639,0.004,3.77,0.004L138.507,32.933" />
        <path id="letter_r_2_" fill="#898a89" d="M152.292,56.668V39.944c0-2.441,0.56-4.23,1.687-5.371 c1.125-1.139,2.851-1.709,5.183-1.709h2.772v-8.668c0,0-4.365-0.108-7.533,0.855c-2.035,0.618-3.838,1.464-5.364,2.684 c-1.609,1.303-2.875,3.034-3.797,5.19c-0.924,2.157-1.387,4.822-1.387,7.996v15.747L152.292,56.668" />
        <path id="letter_u" fill="#898a89" d="M164.321,24.248h8.437v20.753c0,0-0.304,5.613,5.547,5.617 c5.517,0.002,5.657-5.023,5.661-5.377V28.275c0,0,0.286-4.027,3.944-4.027h4.376c0,0-0.004,19.092,0,19.275 c-0.059,1.051,1.105,13.817-13.982,13.765c-14.946,0-13.887-12.916-13.984-13.676V24.248" />
        <path id="letter_m" fill="#898a89" d="M222.752,56.774h-8.357V35.917 c0-2.406-0.978-5.645-5.695-5.645c-4.629,0-5.571,3.681-5.571,5.645v20.857h-8.482V37.633c0-5.56,1.627-8.958,4.302-11.165 c2.646-2.183,6.034-2.901,9.508-3.066c1.857,0,3.676,0.204,5.451,0.612c1.777,0.411,3.392,1.227,4.846,2.453 c1.213-1.061,2.645-1.819,4.302-2.269c1.654-0.449,3.368-0.788,5.147-0.797c10.344-0.056,14.494,4.74,14.838,6.28 c0,0.022,0.004,27.092,0.004,27.092h-4.788c-1.21,0-4.119-0.833-4.119-4.171V35.917c0.023-2.366-0.796-5.645-5.694-5.645 c-4.848,0-5.694,3.681-5.694,5.645V56.774" />
    </g>

    <path id="arrow" fill="#1c5989" d="M245.394,29.667v27.067L263,43.204L245.394,29.667" />
</svg>