<?xml version="1.0" encoding="utf-8"?>
<!-- Generator: Adobe Illustrator 16.0.0, SVG Export Plug-In . SVG Version: 6.00 Build 0)  -->
<!DOCTYPE svg PUBLIC "-//W3C//DTD SVG 1.1//EN" "http://www.w3.org/Graphics/SVG/1.1/DTD/svg11.dtd">
<svg version="1.1" id="Layer_1" xmlns="http://www.w3.org/2000/svg" xmlns:xlink="http://www.w3.org/1999/xlink" x="0px" y="0px"
	 width="258px" height="624.75px" viewBox="0 0 258 624.75" enable-background="new 0 0 258 624.75" xml:space="preserve">
<path opacity="0.2" d="M96.279,613.497c2.489,0.352,3.829,0.559,5.823,0.559c7.083,0,11.405-1.786,11.405-5.125v-1.728
	c0-2.545-0.275-6.206-10.993-6.206c-9.299,0-11.896,2.781-11.896,7.084v8.521c0,4.45,5.825,5.825,11.814,5.825
	c3.8,0,7.903-0.525,10.09-1.17v-4.597c-2.352,0.79-6.344,1.317-9.571,1.317c-3.802,0-6.672-0.851-6.672-2.664L96.279,613.497
	L96.279,613.497z M96.279,608.198c0-1.578,0.521-2.75,6.235-2.75c3.827,0,5.113,0.38,5.113,1.99v0.586
	c0,1.582-1.886,2.223-5.306,2.223c-1.914,0-3.663-0.204-6.042-0.524V608.198z M55.176,615.693c0,1.643-1.256,2.46-5.932,2.46
	c-3.855,0-4.842-0.559-4.842-2.165v-0.995c0-1.2,0.795-1.846,4.569-1.846c2.899,0,3.719,0.265,6.206,0.701L55.176,615.693
	L55.176,615.693z M75.878,614.232h5.822v1.756c0,1.606-1.913,1.989-5.716,1.989c-4.703,0-5.958-0.82-5.958-2.725v-7.142
	c0-2.021,2.35-2.664,5.878-2.664c4.021,0,6.779,0.47,9.87,1.228v-4.771c-2.434-0.523-5.357-0.906-9.896-0.906
	c-6.043,0-11.515,1.521-11.515,7.027v7.024c0,4.598,2.326,7.379,11.622,7.379c10.72,0,11.351-3.631,11.351-6.207v-3.719
	c0-1.728-1.014-2.195-2.517-2.195h-8.94L75.878,614.232L75.878,614.232z M49.792,600.997c-3.747,0-6.373,0.557-8.779,1.202v4.476
	c2.872-0.729,4.485-1.228,8.478-1.228c3.801,0,5.686,0.879,5.686,2.664v1.728c-2.105-0.352-3.28-0.617-6.234-0.617
	c-7.574,0-9.872,2.229-9.872,5.595v1.696c0,2.578,0.712,5.914,10.119,5.914c9.27,0,11.647-2.78,11.647-7.086v-8.52
	C60.837,602.403,55.781,600.997,49.792,600.997L49.792,600.997z M130.075,618.036h1.725l6.07-10.189h0.053
	c0.469,3.807,0.77,9.342,0.934,14.055h5.305c-0.465-7.438-1.256-14.667-1.939-19.205c-0.111-0.731-0.408-1.375-1.973-1.375h-2.979
	c-0.656,0-1.174,0.32-1.584,0.994l-5.582,9.135h-0.027h-0.027l-5.576-9.135c-0.409-0.673-0.928-0.994-1.587-0.994h-2.977
	c-1.563,0-1.862,0.644-1.969,1.375c-0.685,4.539-1.479,11.769-1.944,19.205h5.303c0.166-4.421,0.467-10.248,0.93-14.055h0.059
	l6.068,10.189H130.075z M153.011,608.113c0-2.021,2.352-2.664,5.879-2.664c3.746,0,5.086,0.176,8.176,0.936v-4.479
	c-2.434-0.523-3.664-0.906-8.203-0.906c-6.043,0-11.512,1.521-11.512,7.027v7.375c0,5.506,5.744,7.026,11.785,7.026
	c4.539,0,5.771-0.379,8.203-0.905v-4.479c-3.09,0.76-4.432,0.936-8.178,0.936c-4.209,0-6.15-0.967-6.15-2.983V608.113
	L153.011,608.113z M181.913,617.977c-4.211,0-5.852-0.967-5.852-2.984v-6.88c0-2.021,2.324-2.664,5.852-2.664
	c3.529,0,5.855,0.643,5.855,2.664v6.88C187.767,617.01,186.126,617.977,181.913,617.977L181.913,617.977z M181.913,622.426
	c6.043,0,11.518-1.521,11.518-7.026v-7.375c0-5.504-5.473-7.027-11.518-7.027c-6.043,0-11.512,1.521-11.512,7.027v7.375
	C170.401,620.906,175.87,622.426,181.913,622.426L181.913,622.426z M210.538,618.036h1.727l6.068-10.189h0.057
	c0.467,3.807,0.764,9.342,0.93,14.055h5.303c-0.463-7.438-1.256-14.667-1.938-19.205c-0.111-0.731-0.412-1.375-1.973-1.375h-2.979
	c-0.658,0-1.178,0.32-1.586,0.994l-5.578,9.135h-0.027h-0.025l-5.578-9.135c-0.41-0.673-0.926-0.994-1.586-0.994h-2.98
	c-1.559,0-1.859,0.644-1.969,1.375c-0.684,4.539-1.48,11.769-1.939,19.205h5.305c0.164-4.421,0.465-10.248,0.93-14.055h0.055
	l6.068,10.189H210.538z"/>
<path opacity="0.2" d="M8.445,615.051c0,0,7.48,1.899,13.708,1.621c6.371-0.285,7.208-0.454,9.125-0.704s3.551-0.988,3.551-0.988
	s1.509,5.764-10.884,7.238c-7,0.833-15.72-1.079-15.72-1.079v-6.104L8.445,615.051z"/>
<g opacity="0.2">
	<g>
		<defs>
			<path id="SVGID_1_" d="M34.857,613.442c0-2.761-2.129-4.601-6.386-5.625l-11.315-2.688c-1.577-0.447-2.397-1.135-3.034-2.432
				c-4.701,0.338-5.821,1.176-6.642,1.598c0.235,3.172,3.094,5.404,7.382,6.426l8.674,2.088c2.246,0.531,3.372,0.551,3.801,2.473
				c4.638-0.311,6.593-1.131,7.521-1.583L34.857,613.442L34.857,613.442z"/>
		</defs>
		<use xlink:href="#SVGID_1_"  overflow="visible"/>
		<clipPath id="SVGID_2_">
			<use xlink:href="#SVGID_1_"  overflow="visible"/>
		</clipPath>
		<path clip-path="url(#SVGID_2_)" d="M34.857,615.281v-12.583V615.281z"/>
	</g>
</g>
<g opacity="0.2">
	<g>
		<defs>
			<path id="SVGID_3_" d="M21.632,601.582c5.649,0,8.281,0.688,12.767,1.88v-6.063c-3.697-0.762-5.417-1.483-12.642-1.483
				c-9.095,0-13.913,2.58-13.913,7.364v0.082C9.537,602.692,13.646,601.582,21.632,601.582z"/>
		</defs>
		<use xlink:href="#SVGID_3_"  overflow="visible"/>
		<clipPath id="SVGID_4_">
			<use xlink:href="#SVGID_3_"  overflow="visible"/>
		</clipPath>
		<path clip-path="url(#SVGID_4_)" d="M34.399,603.462v-7.547V603.462z"/>
	</g>
</g>
<path opacity="0.15" enable-background="new    " d="M229,175.614l-2.277-0.572c0,0-0.373,5.257-6.008,8.25
	c-5.662,3.009-12.613,1.054-15.564-4.432c-2.948-5.48-0.769-12.389,4.877-15.427c3.32-1.788,7.094-1.811,10.236-0.429l-1.188,2.667
	l6.213-1.646l-2.994-5.562l-1.063,2.375c-3.689-1.709-7.891-1.771-12.277,0.592c-6.781,3.649-9.406,11.947-5.861,18.536
	c3.547,6.588,11.917,8.968,18.697,5.322C228.368,181.748,229,175.614,229,175.614z"/>
<path opacity="0.15" enable-background="new    " d="M223.664,213.438c0.706,0,1.281-0.578,1.281-1.291v-8.421
	c0-0.717-0.571-1.291-1.281-1.291h-11.955c-0.708,0-1.281,0.574-1.281,1.291v8.421c0,0.713,0.573,1.291,1.281,1.291h4.965v2.561
	h-17.563v-2.561h5.125c0.707,0,1.281-0.578,1.281-1.291v-8.421c0-0.717-0.574-1.291-1.281-1.291h-11.957
	c-0.705,0-1.279,0.574-1.279,1.291v8.421c0,0.713,0.57,1.291,1.279,1.291h4.806v2.561H191v1.396h15.961v2.479h-5.188
	c-0.709,0-1.281,0.578-1.281,1.291v8.42c0,0.717,0.57,1.292,1.281,1.292h11.955c0.707,0,1.278-0.575,1.278-1.292v-8.42
	c0-0.713-0.571-1.291-1.278-1.291h-4.74v-2.479h15.959v-1.396h-6.245v-2.561H223.664z M193.491,211.933
	c-0.515,0-0.933-0.42-0.933-0.938v-6.117c0-0.517,0.418-0.941,0.933-0.941h9.608c0.514,0,0.93,0.428,0.93,0.941v6.117
	c0,0.52-0.416,0.938-0.93,0.938H193.491z M213.521,222.313v6.117c0,0.521-0.414,0.938-0.931,0.938h-9.61
	c-0.517,0-0.933-0.417-0.933-0.938v-6.117c0-0.515,0.416-0.937,0.933-0.937h9.61C213.107,221.377,213.521,221.799,213.521,222.313z
	 M212.917,211.933c-0.513,0-0.931-0.42-0.931-0.938v-6.117c0-0.517,0.418-0.941,0.931-0.941h9.612c0.514,0,0.93,0.428,0.93,0.941
	v6.117c0,0.52-0.416,0.938-0.93,0.938H212.917z"/>
<g opacity="0.15">
	<g>
		<path d="M170.534,213.221c0-1.336-1.116-2.419-2.495-2.419s-2.498,1.083-2.498,2.419c0,1.019,0.652,1.887,1.57,2.244h-0.014
			L165.92,230h4.255l-1.194-14.535h-0.016C169.884,215.107,170.534,214.239,170.534,213.221z M160.137,213.221
			c-0.002,1.987,0.775,3.795,2.055,5.153l1.979-1.92c-0.771-0.867-1.237-1.993-1.237-3.233c0-1.325,0.539-2.527,1.412-3.414v-0.005
			l-2.029-1.854C160.967,209.321,160.137,211.176,160.137,213.221z M171.741,209.802v0.005c0.872,0.887,1.413,2.089,1.413,3.414
			c0,1.24-0.471,2.366-1.241,3.233l1.978,1.92c1.276-1.358,2.057-3.166,2.057-5.153c0-2.045-0.826-3.899-2.176-5.271
			L171.741,209.802z M160.207,205.73l-2.239-1.876c-2.405,2.433-3.888,5.731-3.888,9.366c0,3.577,1.428,6.827,3.768,9.246
			l2.237-1.876c-1.888-1.917-3.05-4.51-3.05-7.367C157.035,210.303,158.248,207.655,160.207,205.73z M178.038,203.778l-2.091,2.028
			c1.912,1.92,3.098,4.532,3.098,7.414c0,2.759-1.081,5.271-2.852,7.165l2.092,2.026c2.303-2.413,3.715-5.645,3.715-9.191
			C181.998,209.551,180.488,206.219,178.038,203.778z"/>
	</g>
</g>
<g opacity="0.15">
	<g>
		<path d="M134.475,213.615c0-1.307-1.074-2.363-2.396-2.363c-1.323,0-2.396,1.06-2.396,2.363c0,0.988,0.619,1.837,1.498,2.188
			h-0.006L130.044,230h4.084l-1.147-14.197h-0.006C133.852,215.452,134.475,214.606,134.475,213.615z M127.868,214.05
			c0.023-0.304,0.042-0.681,0.035-1.051c0.13-0.854,0.516-1.632,1.115-2.259l0.188-0.195v-0.554l-6.811-6.479l-0.474,0.485
			c-2.528,2.603-3.922,6.021-3.922,9.614c0,3.536,1.349,6.899,3.798,9.488l0.475,0.499l4.122-3.98l0.026,0.023l2.864-2.846
			l-0.405-0.465C128.288,215.658,127.938,214.832,127.868,214.05z M127.462,216.713l-1.079,1.072l-0.021-0.021l-4.033,3.9
			c-1.919-2.258-2.968-5.09-2.968-8.056c0-3.021,1.09-5.906,3.086-8.188l5.154,4.9c-0.547,0.729-0.905,1.584-1.051,2.565
			c0,0.435-0.016,0.771-0.037,1.153C126.589,215.014,126.916,215.924,127.462,216.713z M142.361,204.005l-0.475-0.502l-4.17,4.031
			l-0.023-0.023l-2.826,2.784l0.414,0.479c0.589,0.677,0.939,1.503,1.011,2.284c-0.024,0.304-0.041,0.678-0.037,1.062
			c-0.129,0.85-0.513,1.625-1.114,2.242l-0.328,0.351l0.215,0.421l6.738,6.462l0.473-0.485c2.527-2.599,3.922-6.017,3.922-9.61
			C146.157,209.961,144.813,206.595,142.361,204.005z M141.715,221.682l-5.152-4.901c0.547-0.725,0.901-1.584,1.045-2.562
			c0.004-0.432,0.021-0.775,0.041-1.16c-0.078-0.963-0.402-1.873-0.946-2.666l0.896-0.883l0.012,0.017l4.228-4.092
			c1.918,2.268,2.97,5.096,2.97,8.063C144.8,216.518,143.709,219.403,141.715,221.682z"/>
	</g>
</g>
<path opacity="0.15" enable-background="new    " d="M75.087,222.388c-1.765-1.744-2.13-3.526-2.652-5.514
	c-0.325-1.235-1.5-4.53,0.056-6.146c0.556-0.576,2.23-0.159,2.888-0.933c0.645-0.76,0.474-2.802,0.365-3.771
	c-0.129-1.149-0.596-3.268-1.523-3.808c-0.504-0.289-1.378-0.245-1.913-0.128c-1.34,0.293-3.493,1.471-4.238,2.752
	c-0.489,0.838-0.368,2.337-0.37,3.361c-0.007,6.415,1.472,12.505,4.667,18.141c0.504,0.886,1.144,2.293,1.823,2.759
	c1.354,0.933,4.992,0.994,6.097,0.355c0.486-0.282,1.343-1.229,1.618-1.993c0.368-1.026-0.409-2.437-0.981-3.33
	c-0.716-1.121-1.36-2.342-2.755-2.729C77.01,221.081,76.287,222.137,75.087,222.388z"/>
<path opacity="0.15" enable-background="new    " d="M7.389,216.343c0.697-2.906,2.788-5.284,6.14-5.307
	c2.97-0.023,5.299,1.877,6.143,4.812c2.1,0.439,2.516-1.351,3.367-2.455c2.016-2.618,4.106-5.328,5.944-7.563h4.654
	c0.923-1.561,1.794-2.804,3.664-3.047c5.756-0.755,6.868,7.471,1.98,8.744c-2.891,0.752-4.773-1.021-5.546-2.945h-3.374
	c-1.953,2.313-3.795,4.746-5.545,7.265h22.089v-3.335c3.886,1.351,7.309,3.169,11.095,4.618c-3.558,1.743-7.304,3.3-11.095,4.813
	v-3.241c-5.248-0.229-10.927-0.031-16.343-0.097c1.121,2.131,2.911,4.447,4.457,6.482h2.673c0.234-0.494,0.036-1.405,0.099-2.063
	h7.035V230h-7.035v-2.068c-1.195-0.222-2.803-0.035-4.158-0.094c-2.455-2.869-4.333-6.314-6.737-9.236h-7.229
	c-0.823,2.367-2.399,4.355-5.054,4.72c-4.063,0.558-6.496-2.091-7.232-5.308v-1.671H7.389L7.389,216.343z"/>
<path fill="#231F20" fill-opacity="0.2" d="M38.013,146.731c-6.723,0-13.453,0.022-20.169-0.004
	c-4.724-0.021-6.639-1.979-6.695-6.731c-0.006-0.895,0.084-1.799-0.018-2.686c-1.046-9.88,5.83-14.453,12.265-16.619
	c2.05-0.685,4.296-0.76,6.349-1.438c1.276-0.424,2.868-1.23,3.369-2.311c0.386-0.854-0.342-2.732-1.166-3.554
	c-4.144-4.099-6.968-8.838-8.047-14.63c-1.689-9.046,2.922-16.681,11.212-18.485c9.328-2.023,17.944,5.506,17.357,15.229
	c-0.368,6.284-2.534,11.813-7.034,16.309c-0.563,0.56-1.093,1.161-1.58,1.775c-2.194,2.718-1.257,5.041,2.238,5.699
	c2.421,0.459,4.882,0.836,7.211,1.599c9.641,3.165,14.228,12.003,11.374,21.818c-0.84,2.878-3.03,4.023-5.898,4.027
	C51.858,146.731,44.936,146.728,38.013,146.731z"/>
<g>
	<g opacity="0.2">
		<path fill="#231F20" d="M150.131,42.316c0.066-0.845,0.1-1.692,0.1-2.548c0-0.854-0.026-1.706-0.1-2.551l-11.951-2.641
			c-0.291-1.223-0.688-2.411-1.17-3.541l8.104-9.072c-0.907-1.45-1.922-2.825-3.029-4.115l-11.241,4.799
			c-0.952-0.803-1.974-1.543-3.053-2.188l1.154-12.046c-1.58-0.645-3.217-1.171-4.896-1.577l-6.24,10.417
			c-0.624-0.05-1.245-0.075-1.885-0.075c-0.639,0-1.264,0.024-1.892,0.075l-6.236-10.417c-1.684,0.406-3.324,0.935-4.9,1.577
			l1.163,12.046c-1.083,0.646-2.105,1.386-3.061,2.188l-11.24-4.799c-1.109,1.29-2.123,2.665-3.033,4.115l8.103,9.072
			c-0.479,1.135-0.877,2.317-1.166,3.541l-11.955,2.641c-0.061,0.845-0.099,1.696-0.099,2.551c0,0.855,0.028,1.704,0.099,2.548
			l11.955,2.64c0.289,1.224,0.687,2.406,1.166,3.545l-8.103,9.064c0.91,1.449,1.924,2.825,3.033,4.115l11.24-4.8
			c0.955,0.81,1.978,1.544,3.061,2.188l-1.163,12.053c1.584,0.643,3.217,1.167,4.9,1.568l6.236-10.416
			c0.628,0.052,1.253,0.079,1.892,0.079c0.64,0,1.261-0.027,1.885-0.079l6.24,10.416c1.679-0.401,3.329-0.929,4.896-1.568
			l-1.154-12.053c1.079-0.646,2.101-1.38,3.053-2.188l11.241,4.8c1.107-1.29,2.122-2.666,3.029-4.115L137.01,48.5
			c0.481-1.143,0.879-2.321,1.17-3.545L150.131,42.316z M115.901,51.63c-6.63,0-12.009-5.313-12.009-11.857
			c0-6.552,5.379-11.859,12.009-11.859c6.633,0,12.013,5.31,12.013,11.859C127.918,46.319,122.542,51.63,115.901,51.63z
			 M115.901,36.381c-1.897,0-3.434,1.516-3.434,3.392c0,1.87,1.536,3.392,3.434,3.392c1.892,0,3.433-1.521,3.433-3.392
			C119.334,37.897,117.793,36.381,115.901,36.381z"/>
	</g>
</g>
<g>
	<g opacity="0.2">
		<path d="M73.155,21.471c-0.129-0.433-0.282-0.729-1.265-1.229L42.164,5.062c-0.88-0.449-2.047-0.674-3.208-0.674
			c-1.17,0-2.336,0.225-3.217,0.674L6.013,20.241c-0.987,0.5-1.18,0.763-1.3,1.12c-0.132,0.396-0.108,0.974-0.108,1.491V51.92
			c0,2.332,1.714,5.097,3.807,6.154l28.54,14.382c0.559,0.289,1.575,0.546,2.004,0.546c0.396,0,1.442-0.257,1.998-0.546
			l28.542-14.382c2.095-1.055,3.803-3.822,3.803-6.154V22.85C73.292,22.333,73.276,21.867,73.155,21.471z M67.548,54.295
			L41.407,67.468v-7.55h-4.924v7.55L10.339,54.295c-0.661-0.334-1.471-1.646-1.471-2.379V25.519l6.477,3.27l2.321-3.582l-6.587-3.32
			L37.381,8.252c0.25-0.127,0.808-0.277,1.557-0.277c0.748,0,1.308,0.15,1.561,0.277l26.298,13.631l-6.418,3.233l2.326,3.583
			l6.313-3.179l0.002,26.395C69.021,52.654,68.211,53.961,67.548,54.295z M48.459,36.717l-14.76-3.475
			c-2.047-0.575-3.115-1.472-3.944-3.146c-6.132,0.438-7.592,1.522-8.66,2.063c0.303,4.104,4.028,7,9.618,8.313l11.315,2.702
			c2.925,0.688,4.391,0.708,4.952,3.198c6.043-0.402,8.591-1.47,9.805-2.055v-0.017c0.008-0.009,0.034-0.017,0.051-0.025V44.21
			c0-0.474-0.061-0.916-0.155-1.344C56.138,39.926,53.394,37.903,48.459,36.717z M55.483,30.794v-7.841
			c-4.766-0.979-7.029-1.916-16.39-1.916c-8.536,0-14.15,1.74-16.612,5.06c-0.52,0.662-0.898,1.409-1.119,2.258
			c-0.2,0.692-0.303,1.426-0.303,2.216v0.104c2.202-0.868,7.513-2.313,17.87-2.313C46.25,28.364,49.693,29.252,55.483,30.794z
			 M56.764,45.818c-2.33,0.95-6.534,2.218-18.677,2.218c-5.618,0-10.197-0.886-16.021-2.137v7.893
			c4.677,0.876,7.564,1.502,16.021,1.502c7.905,0,14.462-1.752,17.242-5.139c0.722-0.821,1.222-1.794,1.401-2.943
			c-0.009,0.008-0.026,0.008-0.038,0.008C56.764,46.771,56.792,46.307,56.764,45.818z"/>
	</g>
</g>
<g>
	<g>
		<path fill="#464646" d="M72.695,21.214c-0.127-0.426-0.278-0.718-1.243-1.211L42.221,5.052c-0.867-0.443-2.013-0.665-3.156-0.665
			c-1.15,0-2.296,0.222-3.164,0.665L6.673,20.003c-0.971,0.493-1.161,0.751-1.279,1.104c-0.13,0.391-0.106,0.956-0.106,1.472v28.63
			c0,2.297,1.686,5.021,3.743,6.062l28.064,14.166c0.549,0.284,1.549,0.538,1.97,0.538c0.391,0,1.418-0.254,1.964-0.538
			L69.096,57.27c2.06-1.037,3.74-3.765,3.74-6.062V22.574C72.83,22.063,72.813,21.604,72.695,21.214z M67.181,53.546L41.476,66.521
			v-7.437h-4.842v7.437L10.926,53.546c-0.649-0.33-1.447-1.62-1.447-2.344V25.201l6.369,3.218l2.282-3.529l-6.478-3.27L37.518,8.194
			c0.245-0.125,0.794-0.271,1.53-0.271c0.736,0,1.287,0.146,1.536,0.271l25.86,13.43l-6.313,3.184l2.288,3.53l6.207-3.128
			l0.003,25.996C68.63,51.93,67.832,53.217,67.181,53.546z M48.411,36.232L33.897,32.81c-2.015-0.563-3.063-1.447-3.879-3.097
			c-6.029,0.432-7.465,1.499-8.515,2.031c0.297,4.044,3.961,6.896,9.458,8.188l11.126,2.661c2.876,0.68,4.318,0.697,4.869,3.15
			c5.943-0.396,8.448-1.446,9.641-2.021v-0.017c0.008-0.011,0.033-0.02,0.05-0.025v-0.067c0-0.465-0.059-0.899-0.153-1.321
			C55.961,39.393,53.263,37.4,48.411,36.232z M55.317,30.398v-7.724c-4.686-0.965-6.912-1.887-16.116-1.887
			c-8.393,0-13.914,1.717-16.335,4.981c-0.51,0.651-0.884,1.39-1.1,2.227c-0.197,0.682-0.297,1.402-0.297,2.183v0.103
			c2.164-0.854,7.386-2.274,17.571-2.274C46.239,28.004,49.624,28.879,55.317,30.398z M56.578,45.196
			c-2.292,0.938-6.425,2.185-18.367,2.185c-5.524,0-10.025-0.87-15.753-2.104v7.771c4.598,0.863,7.437,1.479,15.753,1.479
			c7.774,0,14.221-1.726,16.955-5.059c0.711-0.813,1.201-1.767,1.378-2.901c-0.009,0.011-0.025,0.011-0.037,0.011
			C56.578,46.135,56.604,45.678,56.578,45.196z"/>
	</g>
</g>
<g>
	<g>
		<path fill="#464646" d="M149.352,41.843c0.065-0.84,0.1-1.688,0.1-2.535c0-0.851-0.028-1.697-0.1-2.538l-11.674-2.628
			c-0.285-1.214-0.673-2.396-1.143-3.521l7.915-9.025c-0.89-1.442-1.878-2.811-2.962-4.094l-10.979,4.772
			c-0.933-0.799-1.929-1.536-2.982-2.178l1.127-11.985c-1.543-0.638-3.143-1.165-4.782-1.566l-6.095,10.365
			c-0.609-0.053-1.217-0.075-1.842-0.075c-0.623,0-1.234,0.021-1.848,0.075l-6.091-10.365c-1.645,0.401-3.248,0.931-4.787,1.566
			l1.136,11.985c-1.058,0.643-2.057,1.379-2.99,2.178L90.375,17.5c-1.083,1.283-2.073,2.649-2.963,4.094l7.915,9.025
			c-0.468,1.13-0.856,2.309-1.139,3.521l-11.677,2.63c-0.059,0.841-0.097,1.688-0.097,2.538c0,0.849,0.028,1.695,0.097,2.535
			l11.678,2.624c0.282,1.218,0.671,2.396,1.139,3.527l-7.915,9.021c0.89,1.442,1.88,2.813,2.963,4.094l10.979-4.773
			c0.934,0.806,1.933,1.537,2.99,2.179l-1.136,11.989c1.547,0.639,3.143,1.161,4.787,1.563l6.091-10.36
			c0.613,0.049,1.225,0.077,1.848,0.077c0.625,0,1.232-0.028,1.842-0.077l6.095,10.36c1.64-0.399,3.253-0.924,4.782-1.563
			l-1.127-11.989c1.054-0.642,2.05-1.373,2.982-2.179l10.979,4.773c1.084-1.281,2.072-2.649,2.962-4.094l-7.915-9.021
			c0.47-1.137,0.857-2.313,1.143-3.527L149.352,41.843z M115.916,51.109c-6.477,0-11.73-5.28-11.73-11.797
			c0-6.519,5.254-11.802,11.73-11.802c6.479,0,11.733,5.283,11.733,11.802C127.653,45.826,122.402,51.109,115.916,51.109z
			 M115.916,35.938c-1.854,0-3.354,1.508-3.354,3.375c0,1.86,1.501,3.372,3.354,3.372c1.848,0,3.353-1.512,3.353-3.372
			C119.269,37.446,117.764,35.938,115.916,35.938z"/>
	</g>
</g>
<g>
	<g>
		<path fill="#464646" d="M216.021,38.334c-0.238-6.548-0.133-13.121,0.008-19.681c0.052-2.438-0.854-3.805-2.896-4.972
			c-5.477-3.128-11.371-4.813-17.473-5.947h-6.43c-5.731,1.206-11.324,2.792-16.553,5.638c-2.47,1.342-3.604,3.042-3.523,5.942
			c0.179,6.813,0.195,13.624,0.166,20.438c-0.031,5.104,1.229,9.83,3.787,14.167c4.396,7.461,10.658,12.938,17.933,17.316
			c1.315,0.792,2.472,0.499,3.711-0.203c4.119-2.355,7.854-5.256,11.177-8.656C212.398,55.742,216.367,48.045,216.021,38.334z
			 M211.416,42.171c-0.139,5.059-2.504,9.384-5.527,13.227c-3.101,3.941-6.77,7.323-10.9,10.164c-1.639,1.128-3.053,1.227-4.713,0
			c-4.018-2.966-7.84-6.14-10.896-10.161c-3.579-4.704-5.819-9.913-5.664-16.02c0.073-2.607,0.015-5.211,0.015-7.817h-0.152
			c0-3.44,0.072-6.887-0.023-10.329c-0.056-1.975,0.563-3.299,2.32-4.287c11.245-6.317,22.426-6.31,33.623,0.107
			c1.376,0.785,2.016,1.813,2.004,3.431C211.46,27.714,211.616,34.948,211.416,42.171z M206.254,20.096
			c-9.177-5.232-18.326-5.264-27.482,0.075c-1.215,0.709-1.686,1.679-1.653,3.093c0.062,3.021,0.021,6.049,0.021,9.074h0.098
			c0,1.514,0.115,3.036-0.021,4.537c-0.813,9.332,3.646,15.898,10.578,21.167c4.827,3.665,4.86,3.646,9.722-0.057
			c5.53-4.218,9.901-9.362,10.402-16.681c0.407-6.025,0.068-12.1,0.107-18.155C208.032,21.722,207.441,20.775,206.254,20.096z"/>
	</g>
</g>
<g>
	<g opacity="0.2">
		<path fill="#231F20" d="M216.021,38.834c-0.238-6.646-0.133-13.316,0.008-19.973c0.052-2.475-0.854-3.858-2.896-5.045
			c-5.477-3.174-11.371-4.887-17.473-6.032h-6.43c-5.731,1.224-11.324,2.833-16.553,5.718c-2.47,1.359-3.604,3.087-3.523,6.033
			c0.179,6.909,0.195,13.823,0.166,20.736c-0.031,5.184,1.229,9.978,3.787,14.377c4.396,7.571,10.658,13.135,17.933,17.575
			c1.315,0.804,2.472,0.506,3.711-0.208c4.119-2.391,7.854-5.331,11.177-8.785C212.398,56.5,216.367,48.689,216.021,38.834z
			 M211.416,42.728c-0.139,5.134-2.504,9.523-5.527,13.422c-3.101,4-6.77,7.435-10.9,10.314c-1.639,1.145-3.053,1.242-4.713,0
			c-4.018-3.01-7.84-6.231-10.896-10.313c-3.579-4.771-5.819-10.06-5.664-16.257c0.073-2.646,0.015-5.289,0.015-7.933h-0.152
			c0-3.494,0.072-6.989-0.023-10.482c-0.056-2.004,0.563-3.349,2.32-4.351c11.245-6.414,22.426-6.403,33.623,0.106
			c1.376,0.8,2.016,1.843,2.004,3.482C211.46,28.057,211.616,35.398,211.416,42.728z M206.254,20.326
			c-9.177-5.313-18.326-5.345-27.482,0.073c-1.215,0.723-1.686,1.704-1.653,3.142c0.062,3.063,0.021,6.139,0.021,9.208h0.098
			c0,1.537,0.115,3.081-0.021,4.604c-0.813,9.47,3.646,16.137,10.578,21.48c4.827,3.719,4.86,3.701,9.722-0.058
			c5.53-4.278,9.901-9.503,10.402-16.928c0.407-6.115,0.068-12.279,0.107-18.424C208.032,21.976,207.441,21.016,206.254,20.326z"/>
	</g>
</g>
<path fill="#464646" d="M38.013,145.865c-6.723,0-13.453,0.021-20.169-0.007c-4.724-0.021-6.639-1.979-6.695-6.731
	c-0.006-0.895,0.084-1.796-0.018-2.686c-1.046-9.88,5.83-14.45,12.265-16.616c2.05-0.688,4.296-0.763,6.349-1.44
	c1.276-0.424,2.868-1.23,3.369-2.308c0.386-0.857-0.342-2.735-1.166-3.557c-4.144-4.099-6.968-8.838-8.047-14.63
	c-1.689-9.046,2.922-16.681,11.212-18.482c9.328-2.026,17.944,5.506,17.357,15.227c-0.368,6.284-2.534,11.815-7.034,16.309
	c-0.563,0.56-1.093,1.161-1.58,1.775c-2.194,2.718-1.257,5.041,2.238,5.699c2.421,0.459,4.882,0.836,7.211,1.599
	c9.641,3.165,14.228,12.003,11.374,21.818c-0.84,2.878-3.03,4.023-5.898,4.028C51.858,145.865,44.936,145.861,38.013,145.865z"/>
<path fill="#464646" d="M143.479,85.583H87.521c-2.417,0-4.372,1.929-4.372,4.309v47.99c0,2.381,1.955,4.311,4.372,4.311h55.958
	c2.42,0,4.373-1.93,4.373-4.311v-47.99C147.852,87.512,145.898,85.583,143.479,85.583z M99.926,129.877l0.065-31.98l31.081,16.055
	L99.926,129.877z"/>
<path fill="#231F20" fill-opacity="0.2" d="M143.479,86.375H87.521c-2.417,0-4.372,1.949-4.372,4.352v48.477
	c0,2.401,1.955,4.354,4.372,4.354h55.958c2.42,0,4.373-1.949,4.373-4.354V90.727C147.852,88.324,145.898,86.375,143.479,86.375z
	 M99.926,131.115l0.065-32.305l31.081,16.214L99.926,131.115z"/>
<g>
	<g opacity="0.2">
		<path fill="#231F20" d="M179.498,82.381h-20.561v19.474h20.561V82.381z M175.749,98.308h-13.063V85.931h13.063V98.308z
			 M172.991,88.544h-7.548v7.148h7.548V88.544z M207.293,82.381v19.474h20.563V82.381H207.293z M224.105,98.308h-13.067V85.931
			h13.067V98.308z M221.35,88.544h-7.55v7.148h7.55V88.544z M158.938,146.701H179.5V127.23h-20.563V146.701L158.938,146.701z
			 M162.686,130.777h13.063v12.377h-13.063V130.777z M165.443,140.542h7.548v-7.152h-7.548V140.542z M216.959,108.525h4.613v-4.328
			h-4.613V108.525z M165.579,110.553v-4.333h-4.501v4.333H165.579z M200.077,95.753h-4.16v9.785h4.16V95.753z M182.111,136.054
			h3.814v-8.983h-3.814V136.054z M186.645,146.468h3.818v-8.979h-3.818V146.468z M190.238,94.57h4.164v-4.667h-4.164V94.57z
			 M191.281,83.165h-4.422v4.146h4.422V83.165z M202.723,89.385h-4.422v4.148h4.422V89.385z M213.089,121.986h0.142v-4.326h-5.969
			v-4.327h-4.885v4.327h-2.3v-6.976h-4.16v3.479h-4.569v-3.739h4.182v-4.87h-4.346v4.734h-5.185v-3.992h-10.245v4.329h5.348v3.539
			H165.21v3.495h-5.716v4.326h41.841v3.691h3.407v-3.691h4.188v8.56h-0.047v4.329h7.945v-4.329h-3.739V121.986L213.089,121.986z
			 M206.896,135.647h-4.16v4.896h4.16V135.647z M206.742,145.505h4.158v-4.896h-4.158V145.505z M207.406,103.795v9.787h4.158v-9.787
			H207.406z M186.359,96.796h-4.16v9.261h4.16V96.796z M197.066,135.404h4.16v-9.784h-4.16V135.404z M192.473,126.991h-3.678v4.278
			h3.678v0.688h4.16v-9.787h-4.16V126.991z M216.52,130.202h4.16v-4.896h-4.16V130.202z"/>
	</g>
</g>
<g>
	<g>
		<path fill="#464646" d="M179.458,81.17h-20.562v19.473h20.562V81.17z M175.709,97.096h-13.063V84.719h13.063V97.096z
			 M172.951,87.333h-7.549v7.148h7.549V87.333z M207.253,81.17v19.473h20.562V81.17H207.253z M224.064,97.096h-13.066V84.719h13.066
			V97.096z M221.309,87.333h-7.549v7.148h7.549V87.333z M158.896,145.49h20.562V126.02h-20.562V145.49z M162.646,129.566h13.063
			v12.377h-13.063V129.566z M165.402,139.33h7.549v-7.152h-7.549V139.33z M216.919,107.313h4.613v-4.328h-4.613V107.313z
			 M165.539,109.342v-4.334h-4.501v4.334H165.539z M200.037,94.542h-4.16v9.785h4.16V94.542z M182.07,134.842h3.818v-8.982h-3.818
			V134.842z M186.604,145.256h3.819v-8.979h-3.819V145.256z M190.197,93.359h4.164v-4.667h-4.164V93.359z M191.241,81.954h-4.423
			V86.1h4.423V81.954z M202.684,88.174h-4.422v4.146h4.422V88.174z M213.049,120.775h0.141v-4.33h-5.969v-4.323h-4.884v4.323h-2.3
			v-6.972h-4.16v3.479h-4.57v-3.74h4.186v-4.87h-4.35v4.734h-5.184v-3.992h-10.245v4.329h5.349v3.539H165.17v3.491h-5.716v4.33
			h41.841v3.691h3.407v-3.691h4.188v8.56h-0.05v4.328h7.945v-4.328h-3.739L213.049,120.775L213.049,120.775z M206.855,134.436h-4.16
			v4.896h4.16V134.436z M206.702,144.293h4.159V139.4h-4.159V144.293z M207.366,102.583v9.788h4.159v-9.788H207.366z
			 M186.318,95.584h-4.159v9.262h4.159V95.584z M197.027,134.193h4.158v-9.787h-4.158V134.193z M192.434,125.779h-3.679v4.281h3.679
			v0.688h4.159v-9.787h-4.159V125.779z M216.479,128.99h4.16v-4.896h-4.16V128.99z"/>
	</g>
</g>
<g>
	<g opacity="0.2">
		<path d="M49.977,162.045c-0.075-0.255-0.167-0.429-0.744-0.728l-17.478-8.923c-0.518-0.265-1.204-0.396-1.887-0.396
			c-0.688,0-1.374,0.133-1.892,0.396L10.5,161.32c-0.58,0.299-0.694,0.45-0.764,0.66c-0.078,0.232-0.063,0.572-0.063,0.877v17.094
			c0,1.367,1.008,2.993,2.238,3.614l16.779,8.456c0.329,0.169,0.927,0.321,1.179,0.321c0.233,0,0.849-0.152,1.174-0.321
			l16.782-8.456c1.231-0.614,2.236-2.247,2.236-3.614v-17.096C50.057,162.551,50.048,162.277,49.977,162.045z M46.68,181.343
			l-15.37,7.745v-4.438h-2.896v4.438l-15.371-7.745c-0.389-0.195-0.865-0.966-0.865-1.398v-15.52l3.808,1.921l1.365-2.104
			l-3.873-1.952l15.464-8.017c0.148-0.072,0.475-0.164,0.916-0.164c0.44,0,0.77,0.092,0.918,0.164l15.462,8.017l-3.773,1.898
			l1.367,2.105l3.712-1.866l0.001,15.517C47.545,180.379,47.069,181.147,46.68,181.343z M35.457,171.009l-8.679-2.044
			c-1.203-0.337-1.831-0.863-2.318-1.848c-3.605,0.258-4.464,0.895-5.092,1.213c0.178,2.414,2.368,4.113,5.655,4.888l6.653,1.589
			c1.719,0.405,2.582,0.416,2.912,1.881c3.552-0.234,5.05-0.861,5.764-1.207v-0.009c0.005-0.007,0.02-0.011,0.03-0.017v-0.039
			c0-0.279-0.036-0.539-0.092-0.79C39.971,172.895,38.357,171.705,35.457,171.009z M39.587,167.526v-4.607
			c-2.802-0.575-4.133-1.126-9.637-1.126c-5.018,0-8.32,1.022-9.767,2.976c-0.305,0.388-0.528,0.827-0.658,1.327
			c-0.118,0.407-0.178,0.838-0.178,1.302v0.063c1.294-0.514,4.417-1.359,10.506-1.359C34.158,166.097,36.182,166.619,39.587,167.526
			z M29.358,177.662c-3.302,0-5.995-0.521-9.419-1.255v4.639c2.75,0.516,4.447,0.884,9.419,0.884c4.649,0,8.503-1.031,10.137-3.02
			c0.425-0.485,0.719-1.059,0.824-1.733c-0.005,0.006-0.016,0.006-0.022,0.006c0.042-0.263,0.059-0.535,0.042-0.823
			C38.97,176.918,36.498,177.662,29.358,177.662z"/>
	</g>
</g>
<g>
	<g>
		<path fill="#464646" d="M49.707,161.894c-0.075-0.251-0.164-0.421-0.731-0.711l-17.187-8.791C31.28,152.131,30.606,152,29.935,152
			c-0.677,0-1.351,0.131-1.861,0.392l-17.185,8.791c-0.57,0.29-0.683,0.441-0.752,0.649c-0.076,0.228-0.062,0.563-0.062,0.859
			v16.834c0,1.354,0.991,2.951,2.2,3.563l16.5,8.329c0.323,0.166,0.911,0.313,1.159,0.313c0.229,0,0.833-0.147,1.154-0.313
			l16.502-8.329c1.211-0.609,2.199-2.213,2.199-3.563v-16.835C49.786,162.393,49.775,162.123,49.707,161.894z M46.463,180.904
			l-15.113,7.627v-4.37h-2.847v4.37l-15.114-7.627c-0.382-0.192-0.851-0.95-0.851-1.379v-15.287l3.745,1.896l1.342-2.075
			l-3.809-1.923l15.208-7.896c0.144-0.069,0.467-0.156,0.899-0.156c0.433,0,0.757,0.087,0.903,0.156l15.204,7.896l-3.711,1.872
			l1.345,2.076l3.65-1.84l0.001,15.281C47.316,179.952,46.847,180.709,46.463,180.904z M35.428,170.723l-8.533-2.012
			c-1.185-0.332-1.802-0.854-2.282-1.821c-3.544,0.254-4.388,0.882-5.006,1.195c0.175,2.378,2.329,4.054,5.561,4.813l6.542,1.564
			c1.69,0.396,2.539,0.409,2.863,1.852c3.494-0.23,4.966-0.851,5.668-1.188v-0.01c0.004-0.008,0.02-0.014,0.029-0.018v-0.039
			c0-0.271-0.035-0.528-0.09-0.775C39.868,172.582,38.281,171.41,35.428,170.723z M39.489,167.294v-4.541
			c-2.754-0.568-4.064-1.11-9.475-1.11c-4.935,0-8.181,1.011-9.604,2.934c-0.3,0.383-0.52,0.813-0.647,1.308
			c-0.115,0.401-0.174,0.825-0.174,1.283v0.061c1.272-0.502,4.343-1.338,10.331-1.338C34.151,165.887,36.142,166.4,39.489,167.294z
			 M29.432,177.276c-3.249,0-5.895-0.512-9.262-1.233v4.567c2.704,0.51,4.372,0.869,9.262,0.869c4.57,0,8.361-1.015,9.968-2.974
			c0.418-0.479,0.707-1.039,0.81-1.706c-0.005,0.004-0.015,0.004-0.022,0.004c0.042-0.259,0.058-0.527,0.042-0.811
			C38.883,176.544,36.453,177.276,29.432,177.276z"/>
	</g>
</g>
<g>
	<g opacity="0.2">
		<path fill="#231F20" d="M80.897,167.865c0-1.805-1.418-3.268-3.17-3.268c-1.746,0-3.164,1.463-3.164,3.268
			c0,1.375,0.824,2.546,1.987,3.025h-0.012l-1.498,19.614h5.398l-1.518-19.614h-0.013C80.073,170.411,80.897,169.241,80.897,167.865
			z M70.469,160.746c-1.706,1.854-2.755,4.361-2.755,7.119c-0.003,2.681,0.982,5.118,2.6,6.954l2.508-2.592h0.003
			c-0.982-1.174-1.572-2.69-1.572-4.362c0-1.787,0.68-3.408,1.79-4.609L70.469,160.746z M82.425,163.256h-0.004
			c1.108,1.201,1.791,2.822,1.791,4.606c0,1.675-0.59,3.191-1.572,4.365l2.512,2.592c1.617-1.836,2.602-4.273,2.602-6.957
			c0-2.755-1.052-5.266-2.758-7.116L82.425,163.256z M67.804,157.755l-2.84-2.532c-3.055,3.282-4.93,7.736-4.93,12.646
			c0,4.824,1.813,9.214,4.778,12.478l2.836-2.53c-2.393-2.584-3.865-6.086-3.865-9.941
			C63.782,163.926,65.313,160.351,67.804,157.755z M90.404,155.126l-2.647,2.73c2.423,2.595,3.922,6.117,3.922,10.009
			c0,3.723-1.367,7.108-3.611,9.667l2.651,2.737c2.917-3.257,4.712-7.611,4.712-12.404
			C95.423,162.909,93.511,158.415,90.404,155.126z"/>
	</g>
</g>
<g>
	<g>
		<path fill="#464646" d="M80.913,167.49c0-1.805-1.418-3.268-3.17-3.268c-1.746,0-3.164,1.463-3.164,3.268
			c0,1.375,0.824,2.546,1.987,3.025h-0.012l-1.498,19.614h5.398l-1.518-19.614h-0.013C80.089,170.036,80.913,168.866,80.913,167.49z
			 M70.484,160.371c-1.706,1.854-2.755,4.361-2.755,7.119c-0.003,2.681,0.982,5.118,2.6,6.954l2.508-2.592h0.003
			c-0.982-1.174-1.572-2.69-1.572-4.362c0-1.787,0.68-3.408,1.79-4.609L70.484,160.371z M82.44,162.881h-0.004
			c1.108,1.201,1.791,2.822,1.791,4.606c0,1.675-0.59,3.191-1.572,4.365l2.512,2.592c1.617-1.836,2.602-4.273,2.602-6.957
			c0-2.755-1.052-5.266-2.758-7.116L82.44,162.881z M67.819,157.38l-2.84-2.532c-3.055,3.282-4.93,7.736-4.93,12.646
			c0,4.824,1.813,9.214,4.778,12.478l2.836-2.53c-2.393-2.584-3.865-6.086-3.865-9.941C63.798,163.551,65.329,159.976,67.819,157.38
			z M90.42,154.751l-2.647,2.73c2.423,2.595,3.922,6.117,3.922,10.009c0,3.723-1.367,7.108-3.611,9.667l2.651,2.737
			c2.917-3.257,4.712-7.611,4.712-12.404C95.438,162.534,93.526,158.04,90.42,154.751z"/>
	</g>
</g>
<g>
	<g opacity="0.2">
		<path fill="#231F20" d="M136.5,172.651l9.906-2.558l0.9-8.003l-2.033-2.037l-1.479,6.079l-5.563,0.8l-3.125-3.136l0.99-5.318
			l6.051-1.559l-2.032-2.037l-8.097,0.786l-2.711,9.773l1.224,1.228l-4.41,4.309l-8.109-8.396l1.693-1.581l2.027-0.254l1.236-1.151
			l-5.313-5.571l-1.236,1.156l-0.369,1.987l-5.802,5.425l-3.578,0.875l-1.675,1.565l6.14,6.438l1.678-1.563l1.092-3.489l1.554-1.452
			l8.162,8.454l-12.521,12.235l0.013,0.013c-1.123,1.349-1.057,3.34,0.208,4.604c1.35,1.354,3.552,1.369,4.919,0.032
			c0.07-0.064,5.788-5.654,10.962-10.71l9.99,10.473l0.013-0.012c1.334,1.14,3.351,1.117,4.659-0.103
			c1.396-1.311,1.459-3.483,0.141-4.869c-0.109-0.112-7.633-7.999-9.854-10.327c1.943-1.899,3.267-3.192,3.267-3.192L136.5,172.651z
			"/>
	</g>
</g>
<g>
	<g>
		<path fill="#464646" d="M136.5,171.794l9.906-2.561l0.9-8.002l-2.033-2.037l-1.479,6.078l-5.563,0.803l-3.125-3.139l0.99-5.315
			l6.051-1.562l-2.032-2.037l-8.097,0.786l-2.711,9.776l1.224,1.225l-4.41,4.313l-8.109-8.396l1.693-1.581l2.027-0.254l1.236-1.148
			l-5.313-5.571l-1.236,1.156l-0.369,1.984l-5.802,5.425l-3.578,0.876l-1.675,1.564l6.14,6.44l1.678-1.564l1.092-3.489l1.554-1.452
			l8.162,8.454L111.101,184.8l0.013,0.013c-1.123,1.352-1.057,3.34,0.208,4.606c1.35,1.354,3.552,1.37,4.919,0.033
			c0.07-0.068,5.788-5.655,10.962-10.711l9.99,10.473l0.013-0.012c1.334,1.139,3.351,1.114,4.659-0.104
			c1.396-1.308,1.459-3.48,0.141-4.869c-0.109-0.109-7.634-7.999-9.854-10.327c1.943-1.896,3.267-3.189,3.267-3.189L136.5,171.794z"
			/>
	</g>
</g>
<g>
	<g>
		<path fill="#464646" d="M167.734,156.925h-9.082v8.602h9.082V156.925z M166.079,163.961h-5.771v-5.469h5.771V163.961z
			 M164.861,159.646h-3.336v3.16h3.336V159.646z M180.014,156.925v8.602h9.086v-8.602H180.014z M187.441,163.961h-5.773v-5.469
			h5.773V163.961z M186.225,159.646h-3.336v3.16h3.336V159.646z M158.652,185.341h9.082v-8.604h-9.082V185.341z M160.309,178.306
			h5.771v5.468h-5.771V178.306z M161.525,182.619h3.336v-3.161h-3.336V182.619z M184.285,168.474h2.039v-1.912h-2.039V168.474z
			 M161.586,169.37v-1.914h-1.988v1.914H161.586z M176.827,162.832h-1.839v4.319h1.839V162.832z M168.891,180.636h1.688v-3.967
			h-1.688V180.636z M170.891,185.237h1.688v-3.966h-1.688V185.237z M172.479,162.311h1.84v-2.062h-1.84V162.311z M172.941,157.271
			h-1.955v1.832h1.955V157.271z M177.995,160.019h-1.953v1.833h1.953V160.019z M182.574,174.421h0.063v-1.913H180v-1.91h-2.157v1.91
			h-1.016v-3.079h-1.839v1.536h-2.021v-1.651h1.85v-2.148h-1.92v2.092h-2.289v-1.769h-4.525v1.913h2.361v1.563h-7.021v1.543h-2.523
			v1.913h18.483v1.632h1.505v-1.632h1.852v3.781h-0.02v1.91h3.512v-1.91h-1.652L182.574,174.421L182.574,174.421z M179.839,180.457
			h-1.838v2.162h1.838V180.457z M179.771,184.811h1.836v-2.16h-1.836V184.811z M180.064,166.386v4.324h1.836v-4.324H180.064z
			 M170.768,163.294h-1.84v4.092h1.84V163.294z M175.496,180.35h1.838v-4.324h-1.838V180.35z M173.467,176.633h-1.625v1.892h1.625
			v0.307h1.84v-4.324h-1.84V176.633z M184.091,178.051h1.839v-2.16h-1.839V178.051z"/>
	</g>
</g>
<g>
	<path fill="#464646" d="M45.795,238.199c21.972,0,39.78,17.807,39.78,39.774c0,21.973-17.809,39.781-39.78,39.781
		c-21.969,0-39.779-17.812-39.779-39.781C6.016,256.006,23.826,238.199,45.795,238.199z"/>
	<path fill="#FFFFFF" d="M72.056,255.791H19.532c-0.765,0-1.382,0.619-1.382,1.385v38.693c0,0.766,0.622,1.384,1.382,1.384h19.905
		l-0.558,5.524H36.12v1.386h19.347v-1.386h-2.764l-0.548-5.524h19.899c0.76,0,1.385-0.618,1.385-1.384v-38.693
		C73.44,256.41,72.815,255.791,72.056,255.791 M45.792,294.835c-1.333,0-2.418-1.085-2.418-2.417c0-1.333,1.085-2.418,2.418-2.418
		c1.338,0,2.423,1.085,2.423,2.418C48.209,293.75,47.129,294.835,45.792,294.835 M71.597,287.582H19.992v-28.795h51.604
		L71.597,287.582L71.597,287.582z"/>
</g>
<g>
	<path fill="#464646" d="M129.514,238.199c21.973,0,39.781,17.807,39.781,39.774c0,21.973-17.811,39.781-39.781,39.781
		c-21.968,0-39.778-17.812-39.778-39.781C89.736,256.006,107.545,238.199,129.514,238.199z"/>
	<path fill="#FFFFFF" d="M156.764,293.252v-33.458c0-0.799-0.641-1.453-1.43-1.453h-51.642c-0.79,0-1.434,0.654-1.434,1.453v33.458
		h-4.303v2.912c0,0.799,0.645,1.453,1.432,1.453h60.253c0.782,0,1.435-0.654,1.435-1.453v-2.912H156.764z M132.379,293.252h-5.736
		v-1.453h5.736V293.252z M154.758,289.909c0,0.239-0.193,0.437-0.428,0.437h-49.636c-0.236,0-0.431-0.194-0.431-0.437v-29.096
		c0-0.239,0.194-0.438,0.431-0.438h49.636c0.232,0,0.428,0.199,0.428,0.438V289.909z"/>
</g>
<g>
	<path fill="#464646" d="M45.795,321.555c21.972,0,39.78,17.807,39.78,39.774c0,21.976-17.809,39.781-39.78,39.781
		c-21.969,0-39.779-17.809-39.779-39.781C6.016,339.361,23.826,321.555,45.795,321.555z"/>
	<g>
		<g>
			<path fill="#FFFFFF" d="M54.311,340H37.284c-1.559,0-2.833,1.316-2.833,2.93v36.81c0,1.61,1.278,2.933,2.833,2.933h17.027
				c1.559,0,2.83-1.319,2.83-2.933v-36.81C57.141,341.319,55.87,340,54.311,340z M45.8,381.069c-0.717,0-1.293-0.599-1.293-1.333
				c0-0.739,0.576-1.335,1.293-1.335c0.709,0,1.285,0.596,1.285,1.335C47.089,380.471,46.509,381.069,45.8,381.069z M56.113,374.194
				c0,1.609-1.274,2.929-2.829,2.929H38.315c-1.559,0-2.83-1.318-2.83-2.929V348.26c0-1.61,1.271-2.933,2.83-2.933h14.969
				c1.555,0,2.829,1.319,2.829,2.933V374.194z M47.587,359.758c0-0.695-0.546-1.271-1.226-1.271c-0.672,0-1.227,0.572-1.227,1.271
				c0,0.539,0.332,0.995,0.791,1.179h-0.022l-0.58,7.612h2.091l-0.587-7.612H46.8C47.26,360.753,47.587,360.297,47.587,359.758z
				 M43.55,356.995c-0.661,0.719-1.068,1.688-1.068,2.763c0,1.042,0.384,1.987,1.013,2.697l0.967-1.002
				c-0.376-0.457-0.609-1.05-0.609-1.695c0-0.691,0.261-1.319,0.69-1.789L43.55,356.995z M48.187,357.969
				c0.428,0.47,0.69,1.098,0.69,1.789c0,0.646-0.229,1.238-0.609,1.695l0.971,1.002c0.624-0.71,1.008-1.655,1.012-2.697
				c0-1.072-0.41-2.044-1.067-2.763L48.187,357.969z M42.52,355.838v-0.004l-1.102-0.982c-1.182,1.273-1.91,3.002-1.91,4.906
				c0,1.872,0.706,3.576,1.851,4.843l1.102-0.983c-0.931-1.001-1.5-2.357-1.5-3.856C40.959,358.231,41.551,356.846,42.52,355.838z
				 M50.247,355.878c0.942,1.005,1.522,2.368,1.522,3.883c0,1.441-0.532,2.76-1.4,3.754l1.023,1.06
				c1.094-1.219,1.781-2.833,1.825-4.617v-0.385c-0.048-1.851-0.783-3.521-1.944-4.758L50.247,355.878z"/>
		</g>
	</g>
</g>
<g>
	<path fill="#464646" d="M129.516,321.555c21.971,0,39.779,17.807,39.779,39.774c0,21.976-17.809,39.781-39.779,39.781
		c-21.97,0-39.779-17.809-39.779-39.781C89.736,339.361,107.545,321.555,129.516,321.555z"/>
</g>
<g>
	<path fill="#464646" d="M213.221,407.36c21.971,0,39.779,17.807,39.779,39.777c0,21.973-17.809,39.781-39.779,39.781
		c-21.97,0-39.779-17.812-39.779-39.781C173.441,425.164,191.25,407.36,213.221,407.36z"/>
</g>
<g>
	<path fill="#464646" d="M212.559,238.199c21.971,0,39.78,17.807,39.78,39.774c0,21.973-17.81,39.781-39.78,39.781
		c-21.97,0-39.779-17.812-39.779-39.781C172.779,256.006,190.589,238.199,212.559,238.199z"/>
	<g>
		<g>
			<path fill="#FFFFFF" d="M227.303,253.587h-29.488c-1.881,0-3.418,1.555-3.418,3.447v41.895c0,1.893,1.539,3.439,3.418,3.439
				h29.488c1.885,0,3.422-1.55,3.422-3.439v-41.895C230.725,255.138,229.178,253.587,227.303,253.587z M212.559,301.154
				c-0.668,0-1.213-0.545-1.213-1.221s0.545-1.216,1.213-1.216c0.672,0,1.211,0.545,1.211,1.216
				C213.77,300.609,213.229,301.154,212.559,301.154z M225.878,294.051c0,1.892-1.541,3.446-3.42,3.446h-19.801
				c-1.882,0-3.421-1.558-3.421-3.446v-32.139c0-1.896,1.539-3.442,3.421-3.442h19.801c1.879,0,3.42,1.546,3.42,3.442V294.051z
				 M214.402,276.294c0-0.828-0.664-1.491-1.481-1.491c-0.815,0-1.481,0.668-1.481,1.491c0,0.626,0.386,1.159,0.929,1.381h-0.005
				l-0.695,8.954h2.525l-0.711-8.954h-0.004C214.021,277.453,214.402,276.92,214.402,276.294z M209.527,273.046
				c-0.803,0.849-1.293,1.989-1.293,3.248c0,1.225,0.461,2.336,1.218,3.176l1.174-1.183c-0.455-0.536-0.733-1.233-0.733-1.993
				c0-0.815,0.319-1.558,0.836-2.104L209.527,273.046z M215.12,274.19c0.517,0.549,0.838,1.288,0.838,2.104
				c0,0.76-0.278,1.457-0.735,1.993l1.174,1.183c0.758-0.84,1.217-1.951,1.217-3.176c0-1.259-0.488-2.399-1.293-3.248L215.12,274.19
				z M208.277,271.678l-1.33-1.153c-1.391,1.461-2.264,3.433-2.303,5.609v0.325c0.039,2.133,0.879,4.075,2.228,5.525h0.004
				l1.326-1.15c-1.119-1.181-1.808-2.774-1.808-4.54C206.396,274.495,207.111,272.864,208.277,271.678z M217.611,271.729
				c1.134,1.181,1.834,2.791,1.834,4.565c0,1.698-0.645,3.244-1.688,4.409l1.236,1.251c1.368-1.487,2.204-3.476,2.204-5.66
				c0.005-2.267-0.896-4.316-2.344-5.816L217.611,271.729z"/>
		</g>
	</g>
</g>
<path fill="#FFFFFF" d="M129.936,372.546c-3.042-3.032-3.678-6.132-4.579-9.586c-0.561-2.149-2.586-7.883,0.096-10.687
	c0.959-1.002,3.854-0.271,4.986-1.617c1.107-1.319,0.813-4.867,0.629-6.554c-0.223-2.003-1.027-5.688-2.629-6.619
	c-0.866-0.504-2.374-0.431-3.302-0.229c-2.313,0.511-6.025,2.563-7.313,4.786c-0.847,1.457-0.634,4.063-0.639,5.844
	c-0.015,11.146,2.541,21.729,8.051,31.526c0.874,1.542,1.976,3.99,3.147,4.802c2.338,1.614,8.617,1.729,10.527,0.611
	c0.834-0.484,2.313-2.134,2.791-3.461c0.634-1.786-0.711-4.229-1.694-5.788c-1.237-1.941-2.351-4.064-4.755-4.743
	C133.249,370.279,132.005,372.105,129.936,372.546z"/>
<g>
	<path fill="#E72B00" d="M45.778,407.36c21.972,0,39.78,17.807,39.78,39.777c0,21.973-17.809,39.781-39.78,39.781
		C23.809,486.919,6,469.11,6,447.138S23.809,407.36,45.778,407.36z"/>
</g>
<path fill="#FFFFFF" d="M46.199,458.351c-3.043-3.032-3.677-6.129-4.579-9.586c-0.561-2.149-2.586-7.88,0.096-10.687
	c0.959-1.002,3.853-0.271,4.987-1.614c1.109-1.322,0.814-4.867,0.629-6.557c-0.224-2.003-1.028-5.688-2.629-6.616
	c-0.866-0.507-2.374-0.434-3.302-0.229c-2.313,0.511-6.025,2.563-7.313,4.787c-0.847,1.457-0.634,4.063-0.639,5.843
	c-0.015,11.147,2.541,21.73,8.051,31.529c0.874,1.542,1.976,3.99,3.147,4.799c2.336,1.617,8.617,1.729,10.527,0.614
	c0.834-0.487,2.313-2.134,2.791-3.461c0.634-1.786-0.711-4.23-1.694-5.788c-1.237-1.944-2.351-4.067-4.755-4.745
	C49.513,456.084,48.269,457.907,46.199,458.351z"/>
<g>
	<path fill="#E72B00" d="M129.514,407.36c21.973,0,39.781,17.807,39.781,39.777c0,21.973-17.809,39.781-39.781,39.781
		c-21.969,0-39.777-17.812-39.777-39.781C89.736,425.164,107.545,407.36,129.514,407.36z"/>
</g>
<g>
	<path fill="#54A804" d="M212.559,321.555c21.971,0,39.779,17.807,39.779,39.774c0,21.976-17.809,39.781-39.779,39.781
		c-21.97,0-39.779-17.809-39.779-39.781C172.779,339.361,190.588,321.555,212.559,321.555z"/>
</g>
<path fill="#FFFFFF" d="M212.979,372.546c-3.043-3.032-3.676-6.132-4.578-9.586c-0.561-2.149-2.586-7.883,0.099-10.687
	c0.959-1.002,3.854-0.271,4.983-1.617c1.109-1.319,0.814-4.867,0.629-6.554c-0.223-2.003-1.025-5.688-2.629-6.619
	c-0.863-0.504-2.373-0.431-3.301-0.229c-2.313,0.511-6.023,2.563-7.313,4.786c-0.848,1.457-0.635,4.063-0.641,5.844
	c-0.016,11.146,2.541,21.729,8.051,31.526c0.875,1.542,1.978,3.99,3.147,4.802c2.337,1.614,8.615,1.729,10.525,0.611
	c0.834-0.484,2.313-2.134,2.791-3.461c0.634-1.786-0.712-4.229-1.694-5.788c-1.236-1.941-2.352-4.064-4.755-4.743
	C216.292,370.279,215.048,372.105,212.979,372.546z"/>
<g>
	<g>
		<path fill="#FFFFFF" d="M148.508,459.97c-0.371-1.948-2.785-3.458-4.434-4.354c-2.061-1.106-4.113-2.449-6.531-1.797
			c-2.02,0.543-2.143,2.854-3.703,4.339c-2.281-0.625-3.959-1.646-5.418-2.879l-3.454,3.569l1.113-4.424l-3.776,3.901
			c3.322,3.206,6.995,6.058,11.032,8.522c1.541,0.938,3.748,2.573,5.174,2.688c2.845,0.236,8.302-2.962,9.38-4.972
			C148.355,463.688,148.781,461.418,148.508,459.97z M126.096,447.326c-1.952-1.991-4.296-4.894-3.722-7.759
			c0.279-1.42,3.124-2.34,3.368-4.164c0.241-1.785-1.894-4.793-2.953-6.198c-1.25-1.668-3.893-4.521-5.76-4.479
			c-1.005,0.021-2.247,0.908-2.93,1.592c-1.685,1.715-3.749,5.573-3.66,8.259c0.059,1.765,1.626,3.979,2.569,5.565
			c2.161,3.641,4.575,7.021,7.246,10.133l3.065-3.303l-1.024,4.456L126.096,447.326z"/>
	</g>
</g>
<path fill="#FFFFFF" d="M188.084,447.115c0.693-2.888,2.777-5.249,6.105-5.271c2.94-0.024,5.258,1.857,6.1,4.78
	c2.086,0.437,2.502-1.346,3.344-2.444c2.006-2.603,4.08-5.288,5.902-7.51h4.627c0.92-1.548,1.785-2.782,3.639-3.026
	c5.717-0.748,6.818,7.42,1.971,8.684c-2.879,0.748-4.744-1.015-5.516-2.928h-3.344c-1.945,2.302-3.773,4.718-5.508,7.22h21.938
	v-3.313c3.861,1.342,7.256,3.146,11.025,4.584c-3.533,1.734-7.256,3.277-11.025,4.78v-3.222c-5.209-0.228-10.852-0.028-16.234-0.095
	c1.111,2.117,2.892,4.415,4.431,6.438h2.651c0.229-0.488,0.041-1.396,0.103-2.047h6.981v6.93h-6.981v-2.05
	c-1.187-0.224-2.78-0.035-4.131-0.098c-2.438-2.852-4.308-6.271-6.693-9.176h-7.188c-0.809,2.354-2.379,4.325-5.02,4.688
	c-4.033,0.555-6.445-2.073-7.184-5.271v-1.66h0.008V447.115L188.084,447.115z"/>
<g>
	<path fill="#464646" d="M28.5,497.711c12.428,0,22.5,10.068,22.5,22.499c0,12.429-10.072,22.501-22.5,22.501
		c-12.426,0-22.5-10.072-22.5-22.501C6,507.781,16.074,497.711,28.5,497.711z"/>
	<path fill="#FFFFFF" d="M43.354,507.658H13.645c-0.432,0-0.78,0.353-0.78,0.783v21.886c0,0.436,0.351,0.782,0.78,0.782h11.26
		l-0.315,3.127h-1.561v0.783h10.943v-0.783h-1.564l-0.309-3.127h11.255c0.43,0,0.783-0.35,0.783-0.782v-21.886
		C44.137,508.011,43.783,507.658,43.354,507.658 M28.497,529.742c-0.752,0-1.366-0.61-1.366-1.363c0-0.757,0.614-1.368,1.366-1.368
		c0.757,0,1.371,0.611,1.371,1.368C29.865,529.132,29.254,529.742,28.497,529.742 M43.095,525.644h-29.19v-16.287h29.189
		L43.095,525.644L43.095,525.644z"/>
</g>
<g>
	<path fill="#464646" d="M77.499,497.711c12.428,0,22.501,10.069,22.501,22.499c0,12.428-10.073,22.501-22.501,22.501
		C65.073,542.711,55,532.638,55,520.21C55,507.781,65.073,497.711,77.499,497.711z"/>
	<path fill="#FFFFFF" d="M92.912,528.85v-18.924c0-0.452-0.362-0.822-0.809-0.822h-29.21c-0.446,0-0.811,0.37-0.811,0.822v18.924
		h-2.434v1.646c0,0.452,0.364,0.822,0.81,0.822h34.081c0.444,0,0.812-0.37,0.812-0.822v-1.646H92.912z M79.119,528.85h-3.244v-0.821
		h3.244V528.85z M91.777,526.959c0,0.137-0.109,0.244-0.242,0.244H63.46c-0.134,0-0.243-0.107-0.243-0.244v-16.455
		c0-0.14,0.109-0.25,0.243-0.25h28.075c0.133,0,0.242,0.11,0.242,0.25V526.959z"/>
</g>
<g>
	<path fill="#464646" d="M126.5,497.711c12.428,0,22.5,10.069,22.5,22.499c0,12.428-10.072,22.501-22.5,22.501
		c-12.426,0-22.5-10.073-22.5-22.501C104,507.781,114.074,497.711,126.5,497.711z"/>
	<g>
		<g>
			<path fill="#FFFFFF" d="M131.316,508.145h-9.631c-0.881,0-1.602,0.746-1.602,1.656v20.817c0,0.911,0.723,1.657,1.602,1.657h9.631
				c0.881,0,1.602-0.746,1.602-1.657v-20.817C132.918,508.891,132.197,508.145,131.316,508.145z M126.503,531.371
				c-0.405,0-0.731-0.339-0.731-0.755c0-0.418,0.326-0.755,0.731-0.755c0.401,0,0.727,0.337,0.727,0.755
				C127.232,531.032,126.904,531.371,126.503,531.371z M132.336,527.485c0,0.91-0.72,1.656-1.6,1.656h-8.467
				c-0.882,0-1.601-0.747-1.601-1.656v-14.669c0-0.911,0.719-1.657,1.601-1.657h8.467c0.88,0,1.6,0.746,1.6,1.657V527.485z
				 M127.515,519.319c0-0.394-0.31-0.717-0.694-0.717c-0.38,0-0.693,0.323-0.693,0.717c0,0.307,0.188,0.563,0.448,0.667h-0.014
				l-0.328,4.306h1.184l-0.332-4.306h-0.016C127.329,519.883,127.515,519.625,127.515,519.319z M125.23,517.759
				c-0.374,0.401-0.604,0.954-0.604,1.561c0,0.59,0.216,1.126,0.572,1.527l0.547-0.566c-0.213-0.259-0.344-0.594-0.344-0.961
				c0-0.391,0.147-0.746,0.39-1.012L125.23,517.759z M127.853,518.308c0.242,0.266,0.391,0.621,0.391,1.012
				c0,0.367-0.129,0.702-0.345,0.961l0.55,0.566c0.354-0.401,0.57-0.938,0.572-1.527c0-0.604-0.231-1.156-0.604-1.561
				L127.853,518.308z M124.647,517.103V517.1l-0.623-0.557c-0.668,0.722-1.08,1.696-1.08,2.773c0,1.061,0.399,2.022,1.047,2.739
				l0.623-0.56c-0.526-0.563-0.85-1.335-0.85-2.183C123.765,518.453,124.1,517.672,124.647,517.103z M129.019,517.125
				c0.534,0.565,0.861,1.341,0.861,2.193c0,0.816-0.302,1.563-0.792,2.123l0.578,0.602c0.619-0.688,1.008-1.604,1.031-2.61v-0.218
				c-0.025-1.05-0.441-1.991-1.1-2.691L129.019,517.125z"/>
		</g>
	</g>
</g>
<g>
	<path fill="#464646" d="M28.476,546.59c12.427,0,22.5,10.069,22.5,22.499c0,12.428-10.073,22.501-22.5,22.501
		c-12.426,0-22.5-10.073-22.5-22.501C5.976,556.659,16.049,546.59,28.476,546.59z"/>
	<g>
		<g>
			<path fill="#FFFFFF" d="M36.815,555.294H20.136c-1.064,0-1.933,0.879-1.933,1.946v23.696c0,1.07,0.871,1.947,1.933,1.947h16.679
				c1.066,0,1.935-0.877,1.935-1.947V557.24C38.75,556.171,37.875,555.294,36.815,555.294z M28.475,582.198
				c-0.377,0-0.686-0.308-0.686-0.688c0-0.384,0.309-0.688,0.686-0.688c0.38,0,0.685,0.312,0.685,0.688
				C29.16,581.891,28.855,582.198,28.475,582.198z M36.009,578.181c0,1.069-0.872,1.949-1.934,1.949h-11.2
				c-1.064,0-1.935-0.88-1.935-1.949v-18.179c0-1.072,0.871-1.946,1.935-1.946h11.2c1.063,0,1.934,0.874,1.934,1.946V578.181z
				 M29.519,568.137c0-0.468-0.375-0.843-0.838-0.843c-0.462,0-0.838,0.378-0.838,0.843c0,0.354,0.22,0.657,0.531,0.781h-0.008
				l-0.395,5.063h1.43l-0.402-5.063h-0.008C29.3,568.794,29.519,568.49,29.519,568.137z M26.762,566.3
				c-0.454,0.479-0.731,1.125-0.731,1.837c0,0.69,0.261,1.318,0.688,1.797l0.664-0.669c-0.257-0.304-0.416-0.698-0.416-1.128
				c0-0.461,0.181-0.879,0.473-1.189L26.762,566.3z M29.925,566.947c0.292,0.313,0.474,0.729,0.474,1.189
				c0,0.43-0.158,0.824-0.417,1.128l0.664,0.669c0.429-0.476,0.688-1.104,0.688-1.797c0-0.712-0.277-1.356-0.731-1.837
				L29.925,566.947z M26.055,565.526l-0.752-0.652c-0.787,0.826-1.281,1.939-1.303,3.176v0.184c0.022,1.206,0.497,2.305,1.259,3.127
				h0.002l0.75-0.65c-0.633-0.666-1.022-1.568-1.022-2.567C24.99,567.116,25.396,566.197,26.055,565.526z M31.334,565.555
				c0.641,0.666,1.037,1.579,1.037,2.582c0,0.961-0.363,1.835-0.956,2.494l0.699,0.708c0.774-0.845,1.247-1.968,1.247-3.202
				c0.002-1.28-0.506-2.441-1.326-3.289L31.334,565.555z"/>
		</g>
	</g>
</g>
<g>
	<g>
		<path fill="#464646" d="M175.499,497.711c12.428,0,22.501,10.069,22.501,22.499c0,12.428-10.072,22.501-22.501,22.501
			c-12.427,0-22.499-10.073-22.499-22.501C153,507.781,163.072,497.711,175.499,497.711z"/>
	</g>
	<path fill="#FFFFFF" d="M175.736,526.553c-1.721-1.715-2.079-3.467-2.59-5.422c-0.316-1.219-1.463-4.457,0.055-6.043
		c0.543-0.566,2.18-0.153,2.82-0.915c0.629-0.748,0.461-2.753,0.354-3.707c-0.126-1.136-0.581-3.22-1.484-3.743
		c-0.49-0.285-1.346-0.244-1.867-0.13c-1.312,0.289-3.408,1.45-4.137,2.708c-0.479,0.821-0.359,2.298-0.361,3.305
		c-0.008,6.306,1.438,12.291,4.554,17.834c0.495,0.872,1.118,2.257,1.78,2.714c1.322,0.915,4.873,0.979,5.955,0.349
		c0.472-0.273,1.308-1.205,1.578-1.959c0.355-1.01-0.401-2.393-0.959-3.271c-0.699-1.1-1.328-2.301-2.688-2.685
		C177.611,525.271,176.908,526.304,175.736,526.553z"/>
</g>
<g>
	<g>
		<path fill="#E72B00" d="M77.483,546.59c12.428,0,22.501,10.069,22.501,22.499c0,12.428-10.073,22.501-22.501,22.501
			c-12.426,0-22.499-10.073-22.499-22.501C54.984,556.659,65.057,546.59,77.483,546.59z"/>
	</g>
	<path fill="#FFFFFF" d="M77.721,575.431c-1.721-1.715-2.08-3.466-2.589-5.422c-0.317-1.216-1.463-4.457,0.054-6.043
		c0.542-0.566,2.179-0.153,2.82-0.914c0.628-0.748,0.461-2.753,0.355-3.707c-0.126-1.133-0.581-3.218-1.486-3.744
		c-0.491-0.285-1.344-0.243-1.868-0.129c-1.309,0.288-3.408,1.449-4.137,2.707c-0.478,0.823-0.357,2.299-0.361,3.305
		c-0.007,6.306,1.438,12.292,4.554,17.834c0.495,0.872,1.118,2.257,1.781,2.714c1.321,0.915,4.874,0.979,5.954,0.351
		c0.472-0.275,1.308-1.207,1.578-1.957c0.358-1.014-0.401-2.396-0.958-3.274c-0.7-1.1-1.329-2.301-2.689-2.684
		C79.595,574.148,78.892,575.182,77.721,575.431z"/>
</g>
<g>
	<g>
		<path fill="#54A804" d="M224.499,497.711c12.428,0,22.501,10.069,22.501,22.499c0,12.428-10.072,22.501-22.501,22.501
			c-12.427,0-22.499-10.073-22.499-22.501C202,507.781,212.072,497.711,224.499,497.711z"/>
	</g>
	<path fill="#FFFFFF" d="M224.736,526.553c-1.721-1.715-2.078-3.467-2.588-5.422c-0.317-1.219-1.463-4.457,0.054-6.043
		c0.542-0.566,2.179-0.153,2.819-0.915c0.629-0.748,0.461-2.753,0.354-3.707c-0.126-1.136-0.581-3.22-1.484-3.743
		c-0.49-0.285-1.345-0.244-1.867-0.13c-1.312,0.289-3.408,1.45-4.137,2.708c-0.479,0.821-0.357,2.298-0.361,3.305
		c-0.008,6.306,1.438,12.291,4.555,17.834c0.494,0.872,1.117,2.257,1.779,2.714c1.322,0.915,4.875,0.979,5.955,0.349
		c0.472-0.273,1.308-1.205,1.578-1.959c0.355-1.01-0.401-2.393-0.959-3.271c-0.699-1.1-1.328-2.301-2.688-2.685
		C226.611,525.271,225.908,526.304,224.736,526.553z"/>
</g>
<g>
	<g>
		<path fill="#E72B00" d="M126.491,546.59c12.428,0,22.501,10.069,22.501,22.499c0,12.428-10.073,22.501-22.501,22.501
			c-12.426,0-22.499-10.073-22.499-22.501C103.992,556.659,114.065,546.59,126.491,546.59z"/>
	</g>
	<g>
		<g>
			<path fill="#FFFFFF" d="M137.234,576.347c-0.211-1.104-1.575-1.956-2.508-2.463c-1.166-0.628-2.326-1.389-3.694-1.02
				c-1.142,0.311-1.212,1.613-2.094,2.454c-1.291-0.354-2.239-0.931-3.065-1.628l-1.954,2.021l0.63-2.504l-2.136,2.209
				c1.88,1.813,3.956,3.427,6.24,4.819c0.871,0.532,2.121,1.456,2.926,1.522c1.608,0.134,4.694-1.679,5.306-2.813
				C137.148,578.448,137.391,577.166,137.234,576.347z M124.558,569.197c-1.104-1.128-2.429-2.769-2.104-4.389
				c0.158-0.804,1.767-1.323,1.904-2.355c0.138-1.01-1.07-2.711-1.67-3.506c-0.707-0.94-2.202-2.558-3.258-2.534
				c-0.568,0.015-1.271,0.516-1.657,0.899c-0.952,0.97-2.12,3.152-2.07,4.671c0.033,0.997,0.921,2.25,1.454,3.148
				c1.222,2.059,2.587,3.971,4.099,5.729l1.733-1.867l-0.579,2.521L124.558,569.197z"/>
		</g>
	</g>
</g>
<g>
	<g>
		<path fill="#464646" d="M175.5,546.59c12.428,0,22.5,10.069,22.5,22.499c0,12.428-10.072,22.501-22.5,22.501
			S153,581.517,153,569.089C153,556.659,163.072,546.59,175.5,546.59z"/>
	</g>
	<path fill="#FFFFFF" d="M161.282,569.075c0.392-1.634,1.571-2.97,3.452-2.979c1.666-0.014,2.975,1.053,3.451,2.704
		c1.18,0.247,1.414-0.763,1.892-1.384c1.134-1.472,2.308-2.99,3.338-4.246h2.617c0.521-0.875,1.01-1.574,2.059-1.713
		c3.233-0.425,3.856,4.194,1.114,4.909c-1.628,0.427-2.684-0.57-3.119-1.652h-1.893c-1.103,1.302-2.135,2.668-3.114,4.083h12.407
		v-1.873c2.185,0.759,4.104,1.777,6.236,2.593c-1.998,0.979-4.104,1.854-6.236,2.703v-1.82c-2.945-0.129-6.137-0.018-9.182-0.054
		c0.629,1.197,1.633,2.497,2.504,3.642h1.502c0.129-0.273,0.021-0.79,0.057-1.155h3.949v3.92h-3.949v-1.159
		c-0.67-0.125-1.573-0.021-2.338-0.056c-1.377-1.611-2.434-3.549-3.785-5.188h-4.064c-0.457,1.331-1.346,2.446-2.839,2.651
		c-2.28,0.313-3.646-1.176-4.063-2.98v-0.938h0.007L161.282,569.075L161.282,569.075z"/>
</g>
<path fill="#9F9C9C" d="M7.389,214.61c0.697-2.903,2.788-5.281,6.14-5.307c2.97-0.023,5.299,1.877,6.143,4.812
	c2.1,0.439,2.516-1.351,3.367-2.452c2.016-2.618,4.106-5.328,5.944-7.565h4.654c0.923-1.558,1.794-2.801,3.664-3.046
	c5.756-0.753,6.868,7.47,1.98,8.746c-2.891,0.752-4.773-1.022-5.546-2.948h-3.374c-1.953,2.314-3.795,4.746-5.545,7.265h22.089
	v-3.335c3.886,1.354,7.309,3.169,11.095,4.618c-3.558,1.743-7.304,3.3-11.095,4.813v-3.243c-5.248-0.23-10.927-0.032-16.343-0.095
	c1.121,2.131,2.911,4.444,4.457,6.479h2.673c0.234-0.494,0.036-1.405,0.099-2.063h7.035v6.979h-7.035V226.2
	c-1.195-0.225-2.803-0.035-4.158-0.097c-2.455-2.869-4.333-6.313-6.737-9.233h-7.229c-0.823,2.364-2.399,4.354-5.054,4.72
	c-4.063,0.555-6.496-2.091-7.232-5.308v-1.674L7.389,214.61L7.389,214.61z"/>
<path fill="#9F9C9C" d="M74.399,221.509c-1.765-1.744-2.13-3.526-2.652-5.514c-0.325-1.235-1.5-4.53,0.056-6.146
	c0.556-0.576,2.23-0.159,2.888-0.933c0.645-0.762,0.474-2.805,0.365-3.771c-0.129-1.149-0.596-3.268-1.523-3.808
	c-0.504-0.289-1.378-0.245-1.913-0.128c-1.34,0.293-3.493,1.471-4.238,2.752c-0.489,0.838-0.368,2.337-0.37,3.358
	c-0.007,6.415,1.472,12.508,4.667,18.144c0.504,0.886,1.144,2.293,1.823,2.759c1.354,0.93,4.992,0.994,6.097,0.355
	c0.486-0.282,1.343-1.229,1.618-1.993c0.368-1.026-0.409-2.437-0.981-3.33c-0.716-1.121-1.36-2.342-2.755-2.729
	C76.322,220.202,75.599,221.258,74.399,221.509z"/>
<g opacity="0.15">
	<g>
		<path d="M106.633,202.789H93.339v21.684h13.294V202.789z M97.413,221.162h-1.52v-1.584h1.52V221.162z M97.42,217.786h-1.534
			v-1.563h1.534V217.786z M97.431,214.451h-1.52v-1.59h1.52V214.451z M100.736,221.162h-1.52v-1.584h1.52V221.162z M100.781,217.789
			h-1.573v-1.531h1.573V217.789z M99.172,214.44v-1.525h1.572v1.525H99.172z M104.061,221.127h-1.519v-1.584h1.519V221.127z
			 M104.061,217.779h-1.519v-1.585h1.519V217.779z M104.068,214.44h-1.572v-1.525h1.572V214.44z M104.094,211.103h-8.18v-5.729h8.18
			V211.103z M108.281,221.246v4.896H91.652v-4.882h-1.638v8.306h19.941v-8.318L108.281,221.246L108.281,221.246z"/>
	</g>
</g>
<g>
	<g>
		<path fill="#9F9C9C" d="M106.678,201c-4.431,0-8.863,0-13.294,0c0,7.229,0,14.457,0,21.684c4.5,0,8.869,0,13.294,0
			C106.678,215.406,106.678,208.204,106.678,201z M97.458,219.373c-0.517,0-0.987,0-1.52,0c0-0.531,0-1.031,0-1.584
			c0.5,0,0.967,0,1.52,0C97.458,218.267,97.458,218.766,97.458,219.373z M97.464,215.997c-0.487,0-0.982,0-1.534,0
			c0-0.491,0-0.969,0-1.563c0.518,0,0.99,0,1.534,0C97.464,214.933,97.464,215.432,97.464,215.997z M97.476,212.662
			c-0.497,0-0.967,0-1.52,0c0-0.479,0-0.977,0-1.587c0.517,0,0.987,0,1.52,0C97.476,211.609,97.476,212.109,97.476,212.662z
			 M100.781,219.373c-0.517,0-0.987,0-1.52,0c0-0.531,0-1.031,0-1.584c0.498,0,0.97,0,1.52,0
			C100.781,218.267,100.781,218.766,100.781,219.373z M100.825,216c-0.527,0-1.024,0-1.573,0c0-0.502,0-0.979,0-1.531
			c0.476,0,0.97,0,1.573,0C100.825,214.988,100.825,215.463,100.825,216z M99.217,212.651c0-0.548,0-0.998,0-1.525
			c0.507,0,1.002,0,1.572,0c0,0.467,0,0.963,0,1.525C100.299,212.651,99.805,212.651,99.217,212.651z M104.105,219.338
			c-0.463,0-0.96,0-1.52,0c0-0.494,0-0.993,0-1.584c0.544,0,0.99,0,1.52,0C104.105,218.267,104.105,218.763,104.105,219.338z
			 M104.105,215.99c-0.463,0-0.96,0-1.52,0c0-0.494,0-0.991,0-1.588c0.544,0,0.99,0,1.52,0
			C104.105,214.915,104.105,215.415,104.105,215.99z M104.113,212.651c-0.49,0-0.984,0-1.572,0c0-0.548,0-0.998,0-1.525
			c0.507,0,1.004,0,1.572,0C104.113,211.59,104.113,212.086,104.113,212.651z M104.138,209.313c-2.728,0-5.412,0-8.179,0
			c0-1.87,0-3.764,0-5.729c2.679,0,5.389,0,8.179,0C104.138,205.524,104.138,207.393,104.138,209.313z M108.326,219.457
			c0,1.666,0,3.283,0,4.896c-5.593,0-11.072,0-16.629,0c0-1.665,0-3.258,0-4.882c-0.572,0-1.067,0-1.638,0c0,2.813,0,5.558,0,8.306
			c6.648,0,13.295,0,19.941,0c0-2.772,0-5.551,0-8.318C109.383,219.457,108.912,219.457,108.326,219.457z"/>
	</g>
</g>
<g>
	<g>
		<path fill="#E72B00" d="M134.316,212.615c0-1.307-1.074-2.363-2.397-2.363s-2.396,1.06-2.396,2.363
			c0,0.988,0.621,1.837,1.498,2.188h-0.004L129.887,229h4.084l-1.148-14.197h-0.006
			C133.693,214.452,134.316,213.606,134.316,212.615z M127.71,213.05c0.024-0.304,0.042-0.681,0.036-1.051
			c0.13-0.854,0.516-1.632,1.116-2.259l0.187-0.195v-0.554l-6.811-6.479l-0.474,0.485c-2.528,2.603-3.922,6.021-3.922,9.615
			c0,3.535,1.348,6.898,3.797,9.487l0.475,0.499l4.122-3.98l0.026,0.023l2.865-2.846l-0.406-0.465
			C128.13,214.658,127.781,213.832,127.71,213.05z M127.305,215.713l-1.079,1.072l-0.021-0.021l-4.033,3.9
			c-1.919-2.258-2.968-5.09-2.968-8.056c0-3.021,1.091-5.906,3.086-8.188l5.154,4.9c-0.546,0.729-0.905,1.584-1.05,2.565
			c0,0.435-0.015,0.771-0.037,1.153C126.431,214.014,126.759,214.924,127.305,215.713z M142.205,203.006l-0.475-0.503l-4.168,4.031
			l-0.025-0.023l-2.827,2.784l0.415,0.479c0.588,0.674,0.938,1.503,1.01,2.284c-0.023,0.304-0.041,0.678-0.037,1.062
			c-0.129,0.85-0.513,1.625-1.115,2.242l-0.328,0.351l0.218,0.421l6.735,6.462l0.476-0.485c2.524-2.599,3.92-6.017,3.92-9.61
			C146,208.961,144.654,205.595,142.205,203.006z M141.559,220.682l-5.154-4.901c0.55-0.725,0.902-1.584,1.048-2.562
			c0.005-0.432,0.021-0.775,0.042-1.16c-0.079-0.963-0.405-1.873-0.949-2.666l0.896-0.883l0.012,0.017l4.227-4.092
			c1.918,2.268,2.969,5.096,2.969,8.063C144.643,215.518,143.553,218.403,141.559,220.682z"/>
	</g>
</g>
<g>
	<g>
		<path fill="#54A804" d="M170.454,212.221c0-1.336-1.116-2.419-2.495-2.419s-2.498,1.083-2.498,2.419
			c0,1.019,0.652,1.887,1.571,2.244h-0.015L165.84,229h4.256l-1.195-14.535h-0.016C169.805,214.107,170.454,213.239,170.454,212.221
			z M160.057,212.221c-0.002,1.987,0.775,3.795,2.055,5.153l1.979-1.92c-0.771-0.867-1.237-1.993-1.237-3.233
			c0-1.325,0.539-2.527,1.414-3.414v-0.005l-2.031-1.854C160.887,208.321,160.057,210.176,160.057,212.221z M171.661,208.802v0.005
			c0.873,0.887,1.413,2.089,1.413,3.414c0,1.24-0.471,2.366-1.241,3.233l1.978,1.92c1.276-1.358,2.06-3.166,2.06-5.153
			c0-2.045-0.829-3.899-2.179-5.271L171.661,208.802z M160.127,204.73l-2.238-1.876c-2.406,2.433-3.889,5.731-3.889,9.366
			c0,3.577,1.428,6.827,3.768,9.246l2.237-1.876c-1.888-1.917-3.05-4.51-3.05-7.367C156.955,209.303,158.168,206.655,160.127,204.73
			z M177.958,202.778l-2.091,2.028c1.912,1.92,3.098,4.532,3.098,7.414c0,2.759-1.081,5.271-2.852,7.165l2.092,2.026
			c2.303-2.413,3.715-5.645,3.715-9.191C181.918,208.551,180.408,205.219,177.958,202.778z"/>
	</g>
</g>
<path fill="#9F9C9C" d="M223.703,212.003c0.706,0,1.281-0.578,1.281-1.291v-8.42c0-0.717-0.571-1.292-1.281-1.292h-11.955
	c-0.708,0-1.281,0.575-1.281,1.292v8.42c0,0.713,0.573,1.291,1.281,1.291h4.965v2.558H199.15v-2.558h5.125
	c0.707,0,1.281-0.578,1.281-1.291v-8.42c0-0.717-0.574-1.292-1.281-1.292h-11.957c-0.705,0-1.279,0.575-1.279,1.292v8.42
	c0,0.713,0.57,1.291,1.279,1.291h4.806v2.558h-6.085v1.397H207v2.477h-5.188c-0.709,0-1.281,0.578-1.281,1.291v8.42
	c0,0.717,0.57,1.292,1.281,1.292h11.955c0.707,0,1.278-0.575,1.278-1.292v-8.42c0-0.713-0.571-1.291-1.278-1.291h-4.74v-2.477
	h15.959v-1.397h-6.245v-2.558H223.703z M193.529,210.498c-0.514,0-0.932-0.42-0.932-0.939v-6.117c0-0.514,0.418-0.938,0.932-0.938
	h9.609c0.514,0,0.93,0.427,0.93,0.938v6.117c0,0.521-0.416,0.939-0.93,0.939H193.529z M213.561,220.879v6.117
	c0,0.52-0.414,0.937-0.928,0.937h-9.613c-0.514,0-0.93-0.417-0.93-0.937v-6.117c0-0.518,0.416-0.938,0.93-0.938h9.613
	C213.146,219.942,213.561,220.364,213.561,220.879z M212.956,210.498c-0.513,0-0.931-0.42-0.931-0.939v-6.117
	c0-0.514,0.418-0.938,0.931-0.938h9.612c0.514,0,0.93,0.427,0.93,0.938v6.117c0,0.521-0.416,0.939-0.93,0.939H212.956z"/>
<path fill="#464646" d="M228.708,174.185l-2.276-0.575c0,0-0.373,5.26-6.009,8.25c-5.661,3.012-12.612,1.057-15.565-4.429
	c-2.947-5.483-0.768-12.389,4.879-15.427c3.318-1.788,7.093-1.813,10.236-0.429l-1.189,2.667l6.213-1.646l-2.996-5.56l-1.061,2.375
	c-3.692-1.709-7.894-1.771-12.28,0.592c-6.781,3.646-9.406,11.947-5.861,18.536c3.545,6.588,11.917,8.968,18.697,5.319
	C228.076,180.319,228.708,174.185,228.708,174.185z"/>
<path fill="#1C1C1C" d="M243.662,218.603c-0.775,1.415-2.121,2.426-3.153,2.426c-2.385,0-4.04-1.656-4.04-3.701
	c0-2.047,1.655-3.703,4.04-3.703c0.979,0,2.353,1.011,3.146,2.426h11.99c-0.449-5.923-5.582-10.598-11.861-10.598
	c-3.822,0-7.217,1.735-9.395,4.426h9.68c0.697-1.415,2.382-2.426,3.309-2.426c2.141,0,3.625,1.656,3.625,3.701
	c0,2.047-1.484,3.703-3.625,3.703c-0.878,0-2.588-1.011-3.299-2.426h-11.264c-0.604,1.37-0.938,2.876-0.938,4.458
	c0,1.717,0.405,3.34,1.109,4.801h11.082c0.697-1.415,2.382-2.426,3.309-2.426c2.141,0,3.625,1.658,3.625,3.703
	s-1.484,3.703-3.625,3.703c-0.878,0-2.588-1.011-3.299-2.426h-9.407c2.187,2.492,5.454,4.083,9.112,4.083
	c5.968,0,10.896-4.224,11.758-9.725H243.662L243.662,218.603z"/>
<linearGradient id="SVGID_5_" gradientUnits="userSpaceOnUse" x1="629.668" y1="607.887" x2="657.0469" y2="607.887" gradientTransform="matrix(1 0 0 1 -621.8008 0.8008)">
	<stop  offset="0" style="stop-color:#707C82"/>
	<stop  offset="1" style="stop-color:#FFFFFF"/>
</linearGradient>
<path fill="url(#SVGID_5_)" d="M35.246,613.14c0-2.759-2.128-4.6-6.387-5.625l-11.315-2.688c-1.577-0.445-2.397-1.135-3.033-2.432
	c-4.702,0.338-5.821,1.176-6.643,1.6c0.235,3.17,3.095,5.404,7.382,6.427l8.674,2.087c2.247,0.529,3.372,0.549,3.8,2.472
	c4.638-0.312,6.593-1.133,7.521-1.585L35.246,613.14L35.246,613.14z"/>
<radialGradient id="SVGID_6_" cx="589.5195" cy="632.886" r="15.64" gradientTransform="matrix(1.052 0 0 0.9387 -592.6341 13.2977)" gradientUnits="userSpaceOnUse">
	<stop  offset="0" style="stop-color:#FFFFFF"/>
	<stop  offset="0.177" style="stop-color:#EAEBEB"/>
	<stop  offset="0.4231" style="stop-color:#DCDFE0"/>
	<stop  offset="0.4977" style="stop-color:#CCD0D2"/>
	<stop  offset="0.9121" style="stop-color:#838E93"/>
</radialGradient>
<path fill="url(#SVGID_6_)" d="M28.572,614.82c-0.54-1.896-1.854-2.299-4.062-2.816l-8.905-2.13c-3.29-0.78-7.247-2.403-7.65-5.722
	c0.016-0.007,0.031-0.016,0.047-0.023c0.777-0.419,2.068-1.115,6.137-1.432c0.702,1.302,1.628,1.996,3.238,2.447l11.635,2.747
	c4.221,1.013,6.274,2.784,6.274,5.415v0.055C34.324,613.823,32.7,614.516,28.572,614.82L28.572,614.82z"/>
<linearGradient id="SVGID_7_" gradientUnits="userSpaceOnUse" x1="629.6445" y1="598.3645" x2="656.1992" y2="598.3645" gradientTransform="matrix(1 0 0 1 -621.8008 0.8008)">
	<stop  offset="0" style="stop-color:#707C82"/>
	<stop  offset="1" style="stop-color:#FFFFFF"/>
</linearGradient>
<path fill="url(#SVGID_7_)" d="M21.632,601.058c5.65,0,8.281,0.688,12.767,1.881v-6.063c-3.697-0.763-5.416-1.484-12.641-1.484
	c-9.095,0-13.913,2.58-13.913,7.366v0.081C9.537,602.169,13.647,601.058,21.632,601.058z"/>
<radialGradient id="SVGID_8_" cx="544.9658" cy="627.1116" r="14.7328" gradientTransform="matrix(1.1082 0 0 0.9387 -580.1343 13.2977)" gradientUnits="userSpaceOnUse">
	<stop  offset="0" style="stop-color:#FFFFFF"/>
	<stop  offset="0.3077" style="stop-color:#DCDFE0"/>
	<stop  offset="0.4531" style="stop-color:#D9DBDD"/>
	<stop  offset="0.5392" style="stop-color:#CCD0D2"/>
	<stop  offset="0.6099" style="stop-color:#B8BEC1"/>
	<stop  offset="0.6722" style="stop-color:#9EA6AA"/>
	<stop  offset="0.7284" style="stop-color:#7F8A8F"/>
	<stop  offset="0.7527" style="stop-color:#707C82"/>
	<stop  offset="0.7736" style="stop-color:#879196"/>
	<stop  offset="0.8094" style="stop-color:#ACB2B6"/>
	<stop  offset="0.8475" style="stop-color:#CBCFD1"/>
	<stop  offset="0.8884" style="stop-color:#E4E5E6"/>
	<stop  offset="0.9341" style="stop-color:#F6F6F7"/>
	<stop  offset="0.9945" style="stop-color:#FFFFFF"/>
</radialGradient>
<path fill="url(#SVGID_8_)" d="M34.404,602.08c-4.256-1.1-7.02-1.758-12.731-1.758c-7.561,0-11.713,0.92-13.74,1.598
	c0.396-5.131,7.707-6.229,13.868-6.229c6.108,0,8.315,0.481,11.106,1.09c0.478,0.106,0.969,0.213,1.498,0.318L34.404,602.08
	L34.404,602.08z"/>
<linearGradient id="SVGID_9_" gradientUnits="userSpaceOnUse" x1="630.4316" y1="617.4104" x2="657.0449" y2="617.4104" gradientTransform="matrix(1 0 0 1 -621.8008 0.8008)">
	<stop  offset="0" style="stop-color:#707C82"/>
	<stop  offset="1" style="stop-color:#FFFFFF"/>
</linearGradient>
<path fill="url(#SVGID_9_)" d="M20.912,616.256c-4.308,0-7.812-0.676-12.281-1.649v6.104c3.583,0.672,5.799,1.159,12.281,1.159
	c8.274,0,14.616-2.512,14.323-7.317C33.445,615.281,30.22,616.256,20.912,616.256z"/>
<radialGradient id="SVGID_10_" cx="566.1055" cy="641.842" r="13.4852" gradientTransform="matrix(1.0745 0 0 0.9387 -589.2047 13.2977)" gradientUnits="userSpaceOnUse">
	<stop  offset="0" style="stop-color:#FFFFFF"/>
	<stop  offset="0.3077" style="stop-color:#DCDFE0"/>
	<stop  offset="0.4531" style="stop-color:#D9DBDD"/>
	<stop  offset="0.5392" style="stop-color:#CCD0D2"/>
	<stop  offset="0.6099" style="stop-color:#B8BEC1"/>
	<stop  offset="0.6722" style="stop-color:#9EA6AA"/>
	<stop  offset="0.7284" style="stop-color:#7F8A8F"/>
	<stop  offset="0.7527" style="stop-color:#707C82"/>
	<stop  offset="0.7736" style="stop-color:#879196"/>
	<stop  offset="0.8094" style="stop-color:#ACB2B6"/>
	<stop  offset="0.8475" style="stop-color:#CBCFD1"/>
	<stop  offset="0.8884" style="stop-color:#E4E5E6"/>
	<stop  offset="0.9341" style="stop-color:#F6F6F7"/>
	<stop  offset="0.9945" style="stop-color:#FFFFFF"/>
</radialGradient>
<path fill="url(#SVGID_10_)" d="M20.954,621.449c-6.267,0-8.656-0.422-11.963-1.01l-0.255-0.046v-4.817
	c4.219,0.855,7.855,1.5,12.218,1.5c8.442,0,12.127-0.736,14.259-1.455C34.388,620.68,25.998,621.449,20.954,621.449L20.954,621.449z
	"/>
<linearGradient id="SVGID_11_" gradientUnits="userSpaceOnUse" x1="131.8477" y1="600.0403" x2="131.8477" y2="621.4709">
	<stop  offset="0.2912" style="stop-color:#C4C9CB"/>
	<stop  offset="0.5227" style="stop-color:#C9CDCF"/>
	<stop  offset="0.7084" style="stop-color:#D8DADC"/>
	<stop  offset="0.7912" style="stop-color:#E3E4E6"/>
	<stop  offset="0.9177" style="stop-color:#EEEFEF"/>
	<stop  offset="0.9945" style="stop-color:#FFFFFF"/>
</linearGradient>
<path fill="url(#SVGID_11_)" d="M96.28,612.54c2.489,0.352,3.829,0.559,5.823,0.559c7.083,0,11.405-1.786,11.405-5.125v-1.728
	c0-2.545-0.275-6.206-10.993-6.206c-9.299,0-11.896,2.781-11.896,7.084v8.521c0,4.45,5.825,5.825,11.814,5.825
	c3.8,0,7.903-0.525,10.09-1.17v-4.597c-2.352,0.79-6.344,1.317-9.571,1.317c-3.802,0-6.672-0.851-6.672-2.664L96.28,612.54
	L96.28,612.54z M96.28,607.24c0-1.578,0.521-2.75,6.235-2.75c3.827,0,5.113,0.38,5.113,1.99v0.586c0,1.582-1.886,2.223-5.306,2.223
	c-1.914,0-3.663-0.204-6.042-0.524V607.24z M55.177,614.736c0,1.643-1.256,2.46-5.932,2.46c-3.855,0-4.842-0.559-4.842-2.165v-0.995
	c0-1.2,0.795-1.846,4.569-1.846c2.899,0,3.719,0.265,6.206,0.701L55.177,614.736L55.177,614.736z M75.879,613.275h5.822v1.756
	c0,1.606-1.913,1.989-5.716,1.989c-4.703,0-5.958-0.82-5.958-2.725v-7.142c0-2.021,2.35-2.664,5.878-2.664
	c4.021,0,6.779,0.47,9.87,1.228v-4.771c-2.434-0.523-5.357-0.906-9.896-0.906c-6.043,0-11.515,1.521-11.515,7.027v7.024
	c0,4.598,2.326,7.379,11.622,7.379c10.72,0,11.351-3.631,11.351-6.207v-3.719c0-1.728-1.014-2.195-2.517-2.195h-8.94L75.879,613.275
	L75.879,613.275z M49.793,600.04c-3.747,0-6.373,0.557-8.779,1.202v4.476c2.872-0.729,4.485-1.228,8.478-1.228
	c3.801,0,5.686,0.879,5.686,2.664v1.728c-2.105-0.352-3.28-0.617-6.234-0.617c-7.574,0-9.872,2.229-9.872,5.595v1.696
	c0,2.578,0.712,5.914,10.119,5.914c9.27,0,11.647-2.78,11.647-7.086v-8.52C60.838,601.446,55.781,600.04,49.793,600.04
	L49.793,600.04z M130.076,617.079h1.725l6.069-10.189h0.053c0.469,3.807,0.77,9.342,0.934,14.055h5.305
	c-0.465-7.438-1.256-14.667-1.939-19.205c-0.111-0.731-0.408-1.375-1.973-1.375h-2.979c-0.656,0-1.174,0.32-1.584,0.994
	l-5.581,9.135h-0.027h-0.027l-5.577-9.135c-0.409-0.673-0.928-0.994-1.587-0.994h-2.977c-1.563,0-1.862,0.644-1.969,1.375
	c-0.685,4.539-1.479,11.769-1.944,19.205h5.303c0.166-4.421,0.467-10.248,0.93-14.055h0.059l6.068,10.189H130.076z M153.011,607.156
	c0-2.021,2.352-2.664,5.879-2.664c3.746,0,5.086,0.176,8.176,0.936v-4.479c-2.434-0.523-3.664-0.906-8.203-0.906
	c-6.043,0-11.512,1.521-11.512,7.027v7.375c0,5.506,5.744,7.026,11.785,7.026c4.539,0,5.771-0.379,8.203-0.905v-4.479
	c-3.09,0.76-4.432,0.936-8.178,0.936c-4.209,0-6.15-0.967-6.15-2.983V607.156L153.011,607.156z M181.913,617.02
	c-4.211,0-5.852-0.967-5.852-2.984v-6.88c0-2.021,2.324-2.664,5.852-2.664c3.529,0,5.855,0.643,5.855,2.664v6.88
	C187.767,616.053,186.126,617.02,181.913,617.02L181.913,617.02z M181.913,621.469c6.043,0,11.518-1.521,11.518-7.026v-7.375
	c0-5.504-5.473-7.027-11.518-7.027c-6.043,0-11.512,1.521-11.512,7.027v7.375C170.401,619.948,175.87,621.469,181.913,621.469
	L181.913,621.469z M210.538,617.079h1.727l6.068-10.189h0.057c0.467,3.807,0.764,9.342,0.93,14.055h5.303
	c-0.463-7.438-1.256-14.667-1.938-19.205c-0.111-0.731-0.412-1.375-1.973-1.375h-2.979c-0.658,0-1.178,0.32-1.586,0.994
	l-5.578,9.135h-0.027h-0.025l-5.578-9.135c-0.41-0.673-0.926-0.994-1.586-0.994h-2.98c-1.559,0-1.859,0.644-1.969,1.375
	c-0.684,4.539-1.48,11.769-1.939,19.205h5.305c0.164-4.421,0.465-10.248,0.93-14.055h0.055l6.068,10.189H210.538z"/>
</svg>
