<?xml version="1.0" encoding="UTF-8"?>
<!DOCTYPE svg PUBLIC "-//W3C//DTD SVG 1.1//EN" "http://www.w3.org/Graphics/SVG/1.1/DTD/svg11.dtd">
<!-- Creator: CorelDRAW -->
<svg xmlns="http://www.w3.org/2000/svg" xml:space="preserve" width="27.686mm" height="7.122mm" style="shape-rendering:geometricPrecision; text-rendering:geometricPrecision; image-rendering:optimizeQuality; fill-rule:evenodd; clip-rule:evenodd"
viewBox="0 0 27.686 7.122"
 xmlns:xlink="http://www.w3.org/1999/xlink">
 <defs>
  <style type="text/css">
   <![CDATA[
    .fil0 {fill:black}
    .fil1 {fill:#FC0321}
   ]]>
  </style>
 </defs>
 <g id="Layer_x0020_1">
  <metadata id="CorelCorpID_0Corel-Layer"/>
  <g id="_144363952">
   <path id="_144019744" class="fil0" d="M7.2314 4.1482l-0.3335 0c-0.1377,0 -0.2503,-0.1126 -0.2503,-0.2502l0 -2.118 -0.9904 0 1.4075 -1.78 1.4074 1.78 -0.9903 0 0 2.118c0,0.1376 -0.1127,0.2502 -0.2504,0.2502l0 0z"/>
   <path id="_144019480" class="fil0" d="M1.8383 1.6316l0 -0.8263 0.3888 0 0 0.8263 -0.3888 0zm1.0182 0l0 -0.8263 0.3889 0 0 0.8263 -0.3889 0zm1.0183 0.3968l0 -1.6397 -2.6661 0 0 1.6397 1.6065 0 1.0596 0zm-3.0549 0l0 -1.6397 0 -0.3887 0.3888 0 2.6661 0 0.3888 0 0 0.3887 0 1.6397 0.006 0 0.1679 0c0.3588,0 0.6522,0.2936 0.6522,0.6523l0 0.16 0 3.629c0,0.3573 -0.2955,0.6523 -0.6522,0.6523l-3.7855 0c-0.3567,0 -0.6522,-0.2936 -0.6522,-0.6523l0 -3.789c0,-0.3587 0.2934,-0.6523 0.6522,-0.6523l0.1679 0z"/>
   <path id="_144020464" class="fil0" d="M12.5381 4.2005c0.0431,-0.1043 0.0681,-0.2315 0.0681,-0.3994 0,-0.5819 0,-1.1521 0,-1.9464 0,-1.6416 1.646,-1.8547 2.0509,-1.8547 0.2553,0 1.0042,0.0849 1.5225,0.5591l-3.6415 3.6414zm1.1999 2.2002l-1.6009 0 -0.5806 0.5806 -0.1608 -0.1608 6.6798 -6.6798 0.1608 0.1608 -1.5287 1.5287 0.0004 0.0245c0,0.7943 0,1.3645 0,1.9464 0,0.8483 0.6393,0.6597 1.0102,1.7097 0.1077,0.3051 0.1216,0.8899 -0.4712,0.8899l-1.6708 0c-0.0834,0.4109 -0.4632,0.7213 -0.9191,0.7213 -0.4558,0 -0.8357,-0.3104 -0.9191,-0.7213l0 0z"/>
   <path id="_144020752" class="fil0" d="M25.1116 5.2048c-0.7297,-0.1918 -1.1023,-0.6076 -1.5486,-1.0535 -0.2776,-0.2777 -1.0971,-0.9706 -0.9464,-1.6348 0.0537,-0.2378 0.5534,-0.383 0.6021,-0.6884 0.0482,-0.3 -0.3149,-0.8136 -0.495,-1.0536 -0.2136,-0.2851 -0.6652,-0.7745 -0.989,-0.7745 -0.1755,0 -0.3955,0.1448 -0.5163,0.258 -0.3015,0.2823 -0.6742,0.9244 -0.667,1.3769 0.0042,0.2971 0.2706,0.6752 0.4303,0.9463 1.0002,1.6986 2.335,3.0835 4.0431,4.0869 0.2698,0.1579 0.6553,0.4325 0.9037,0.4517 0.0154,0.0012 0.0311,0.0018 0.0471,0.0019l0.0024 0c0.5075,0.0019 1.4046,-0.5132 1.5854,-0.8408 0.0636,-0.116 0.1229,-0.3745 0.1228,-0.5984 0,-0.0626 -0.0047,-0.1226 -0.0153,-0.1759 -0.0654,-0.3281 -0.4862,-0.5816 -0.7746,-0.7313 -0.3605,-0.187 -0.7183,-0.4115 -1.1399,-0.3012 -0.3507,0.0915 -0.3732,0.4802 -0.6448,0.7307l0 0z"/>
   <path id="_144020944" class="fil1" d="M26.7031 3.5184l-2.3456 0c-0.1613,0 -0.2932,-0.1319 -0.2932,-0.2932l0 -1.4659c0,-0.1613 0.1319,-0.2932 0.2932,-0.2932l0.1465 0 0 -0.4399c0,-0.5718 0.4545,-1.0262 1.0264,-1.0262 0.5718,0 1.0261,0.4544 1.0261,1.0262l0 0.4399 0.1466 0c0.1613,0 0.2932,0.1319 0.2932,0.2932l0 1.4659c0,0.1613 -0.1319,0.2932 -0.2932,0.2932l0 0zm-0.5865 -2.4922c0,-0.3226 -0.2638,-0.5863 -0.5862,-0.5863 -0.3226,0 -0.5865,0.2637 -0.5865,0.5863l0 0.4399 1.1727 0 0 -0.4399z"/>
  </g>
 </g>
</svg>
